<svg id="svg" version="1.1" xmlns="http://www.w3.org/2000/svg" xmlns:xlink="http://www.w3.org/1999/xlink" width="30" height="27.5" viewBox="0, 0, 400,366.6666666666667">
	<g id="svgg">
		<path id="path0" d="M112.982 24.157 C 112.048 24.494,111.005 25.006,110.664 25.294 C 108.895 26.787,108.991 20.891,108.991 128.660 L 108.991 229.466 108.208 231.614 C 107.777 232.795,107.282 233.761,107.107 233.761 C 106.932 233.761,106.789 233.998,106.789 234.287 C 106.789 235.140,103.720 237.405,101.512 238.181 C 99.687 238.822,98.460 238.899,90.081 238.899 C 79.713 238.899,79.080 238.781,75.880 236.259 C 74.604 235.253,74.148 234.631,72.971 232.294 C 72.636 231.628,72.437 227.240,72.249 216.330 C 71.970 200.151,71.931 199.738,70.585 198.392 C 68.446 196.252,68.965 196.297,47.384 196.410 L 27.590 196.514 26.181 197.653 C 23.964 199.445,23.926 199.850,23.905 222.202 C 23.881 247.569,24.734 256.095,27.879 261.951 C 28.062 262.291,28.567 263.394,29.002 264.404 C 31.424 270.020,34.592 274.063,39.577 277.902 C 41.599 279.460,43.370 280.734,43.513 280.734 C 43.656 280.734,44.534 281.082,45.464 281.507 C 50.840 283.966,52.887 284.771,53.763 284.771 C 54.218 284.771,55.150 285.005,55.836 285.292 C 56.522 285.578,58.565 285.994,60.376 286.217 C 62.188 286.439,64.495 286.772,65.505 286.958 C 67.949 287.408,109.370 287.423,113.578 286.976 C 115.394 286.783,118.460 286.460,120.390 286.258 C 122.321 286.056,124.503 285.639,125.241 285.331 C 125.979 285.023,127.063 284.771,127.651 284.771 C 128.601 284.771,132.491 283.494,134.220 282.616 C 135.739 281.844,138.266 280.734,138.505 280.734 C 140.793 280.734,150.050 270.936,152.373 266.055 C 155.882 258.682,156.677 256.116,157.721 248.807 C 158.574 242.834,158.815 31.762,157.972 28.473 C 156.692 23.478,156.698 23.479,133.362 23.515 C 116.866 23.540,114.480 23.615,112.982 24.157 M192.110 24.285 C 187.795 25.986,186.077 32.381,188.045 39.417 C 188.332 40.444,188.749 42.193,188.971 43.303 C 189.871 47.805,190.369 50.174,190.747 51.743 C 190.965 52.651,191.341 54.220,191.582 55.229 C 191.823 56.239,192.156 57.890,192.322 58.899 C 192.488 59.908,192.865 61.642,193.161 62.752 C 193.668 64.659,194.043 66.381,194.877 70.642 C 195.075 71.651,195.471 73.303,195.758 74.312 C 196.270 76.113,196.758 78.372,197.425 82.018 C 197.610 83.028,198.003 84.761,198.298 85.872 C 198.834 87.885,199.352 90.285,200.001 93.761 C 200.189 94.771,200.584 96.587,200.879 97.798 C 201.173 99.009,201.598 100.826,201.823 101.835 C 202.048 102.844,202.472 104.743,202.764 106.055 C 203.057 107.367,203.633 109.927,204.044 111.743 C 204.455 113.560,204.947 115.872,205.136 116.881 C 205.326 117.890,205.722 119.706,206.016 120.917 C 206.888 124.507,207.361 126.638,207.888 129.358 C 208.354 131.759,208.547 132.611,209.597 136.881 C 209.820 137.789,210.219 139.606,210.484 140.917 C 210.748 142.229,211.319 144.872,211.753 146.789 C 212.186 148.706,212.764 151.349,213.038 152.661 C 213.312 153.972,213.725 155.872,213.957 156.881 C 214.732 160.263,215.687 164.562,216.320 167.523 C 216.666 169.138,217.180 171.367,217.463 172.477 C 217.746 173.587,218.135 175.321,218.327 176.330 C 218.738 178.480,219.321 181.168,219.880 183.486 C 220.252 185.029,220.668 186.995,221.666 191.927 C 221.891 193.037,222.309 194.782,222.595 195.806 C 222.881 196.829,223.222 198.480,223.351 199.475 C 223.481 200.470,223.725 201.460,223.893 201.676 C 224.061 201.891,224.308 203.047,224.443 204.244 C 224.577 205.442,224.836 206.710,225.017 207.063 C 225.198 207.415,225.510 208.654,225.711 209.815 C 226.072 211.904,226.662 214.606,227.535 218.165 C 227.949 219.853,228.211 221.081,229.376 226.789 C 229.603 227.899,230.011 229.716,230.282 230.826 C 231.027 233.870,232.227 239.307,232.429 240.550 C 232.527 241.156,232.772 242.312,232.972 243.119 C 234.175 247.965,234.618 249.905,234.858 251.376 C 235.006 252.284,235.308 253.771,235.529 254.679 C 236.058 256.852,236.662 259.567,237.123 261.835 C 237.327 262.844,237.712 264.578,237.978 265.688 C 238.244 266.798,238.804 269.275,239.223 271.193 C 239.642 273.110,240.167 275.422,240.390 276.330 C 240.612 277.239,240.933 278.807,241.103 279.817 C 242.221 286.444,244.495 287.339,260.215 287.339 C 272.874 287.339,272.294 287.442,272.294 285.199 L 272.294 283.503 274.056 285.461 L 275.819 287.419 281.671 287.248 C 286.942 287.094,288.645 286.834,290.642 285.877 C 291.501 285.465,291.516 284.040,290.674 282.901 C 290.253 282.331,289.908 281.781,289.908 281.678 C 289.908 281.575,289.206 280.487,288.349 279.260 C 287.491 278.032,286.624 276.747,286.422 276.404 C 286.220 276.061,285.518 274.995,284.862 274.036 C 284.206 273.077,283.670 272.153,283.670 271.983 C 283.670 271.813,283.339 271.374,282.936 271.009 C 282.532 270.644,282.191 270.164,282.177 269.943 C 282.164 269.722,281.418 268.550,280.521 267.339 C 279.624 266.128,278.722 264.742,278.516 264.259 C 278.311 263.776,277.653 262.761,277.053 262.004 C 276.454 261.248,275.963 260.527,275.963 260.402 C 275.963 260.278,275.423 259.393,274.762 258.437 C 272.089 254.565,272.162 254.312,275.955 254.312 L 278.760 254.312 280.364 256.789 C 281.247 258.151,282.604 260.257,283.380 261.468 C 284.155 262.679,284.954 263.917,285.154 264.220 C 285.353 264.523,286.204 265.844,287.044 267.156 C 287.883 268.468,289.119 270.384,289.790 271.414 C 290.460 272.444,291.009 273.456,291.009 273.663 C 291.009 273.869,291.272 274.257,291.594 274.524 C 291.916 274.791,292.646 275.826,293.215 276.823 L 294.251 278.637 294.685 277.025 C 294.924 276.138,295.255 275.063,295.420 274.635 C 295.585 274.207,295.832 273.051,295.967 272.066 C 296.103 271.081,296.436 269.450,296.708 268.440 C 297.664 264.885,298.716 260.148,298.716 259.394 C 298.716 258.974,298.954 257.865,299.244 256.930 C 299.535 255.995,299.957 254.321,300.182 253.211 C 300.860 249.866,301.582 246.518,302.003 244.771 C 302.221 243.862,302.743 241.550,303.162 239.633 C 303.581 237.716,304.142 235.239,304.407 234.128 C 304.673 233.018,305.070 231.243,305.289 230.183 C 305.509 229.124,305.868 227.390,306.087 226.330 C 306.306 225.271,306.703 223.495,306.969 222.385 C 307.234 221.275,307.812 218.716,308.253 216.697 C 308.694 214.679,309.288 212.187,309.573 211.160 C 309.858 210.133,310.094 208.895,310.096 208.408 C 310.099 207.921,310.429 206.476,310.830 205.197 C 311.231 203.917,311.559 202.431,311.558 201.894 C 311.557 201.357,311.792 200.174,312.080 199.266 C 312.568 197.728,312.862 196.421,313.775 191.743 C 313.972 190.734,314.365 189.000,314.647 187.890 C 314.930 186.780,315.444 184.550,315.789 182.936 C 316.135 181.321,316.666 179.009,316.969 177.798 C 317.273 176.587,317.665 174.638,317.841 173.467 C 318.017 172.295,318.307 171.057,318.487 170.714 C 318.667 170.372,318.937 169.183,319.086 168.073 C 319.235 166.963,319.514 165.642,319.705 165.138 C 319.896 164.633,320.276 163.064,320.549 161.651 C 321.079 158.906,321.853 155.346,322.503 152.661 C 322.997 150.624,323.546 148.129,324.241 144.771 C 324.534 143.358,325.110 140.798,325.522 139.083 C 325.934 137.367,326.424 135.138,326.610 134.128 C 326.797 133.119,327.190 131.303,327.484 130.092 C 328.199 127.151,328.738 124.748,329.379 121.651 C 329.671 120.239,330.250 117.679,330.665 115.963 C 331.079 114.248,331.648 111.688,331.928 110.275 C 332.466 107.560,333.036 104.994,333.637 102.569 C 333.837 101.761,334.227 100.028,334.503 98.716 C 335.104 95.857,335.709 93.188,336.211 91.193 C 336.413 90.385,336.808 88.569,337.087 87.156 C 337.366 85.743,337.939 83.101,338.360 81.284 C 338.780 79.468,339.353 76.908,339.633 75.596 C 340.228 72.805,340.719 70.650,341.684 66.594 C 342.070 64.972,342.385 63.327,342.385 62.936 C 342.385 62.546,342.614 61.560,342.893 60.746 C 343.172 59.932,343.604 58.275,343.853 57.064 C 345.463 49.223,345.880 47.278,346.488 44.771 C 349.779 31.188,349.074 26.372,343.486 24.252 C 340.510 23.123,308.446 23.064,304.541 24.181 C 300.684 25.284,298.716 27.369,298.716 30.352 C 298.716 30.956,298.549 31.929,298.345 32.514 C 298.141 33.099,297.834 34.651,297.661 35.963 C 297.299 38.726,296.300 44.212,295.724 46.606 C 295.505 47.514,295.198 49.330,295.040 50.642 C 294.721 53.309,293.828 58.106,293.015 61.528 C 292.719 62.772,292.477 64.356,292.477 65.048 C 292.477 65.739,292.241 67.090,291.952 68.050 C 291.663 69.009,291.310 70.893,291.167 72.236 C 291.025 73.580,290.683 75.319,290.408 76.101 C 290.133 76.883,289.908 78.220,289.908 79.070 C 289.908 79.921,289.663 81.428,289.362 82.419 C 289.062 83.410,288.707 85.294,288.574 86.606 C 288.440 87.917,288.108 89.631,287.835 90.413 C 287.563 91.195,287.339 92.552,287.339 93.428 C 287.339 94.304,287.109 95.728,286.828 96.593 C 286.547 97.458,286.214 99.268,286.087 100.615 C 285.960 101.963,285.612 103.650,285.314 104.365 C 285.015 105.080,284.771 106.490,284.771 107.498 C 284.771 108.507,284.541 110.040,284.260 110.905 C 283.979 111.769,283.641 113.613,283.511 115.002 C 283.380 116.390,283.032 117.992,282.737 118.561 C 282.443 119.131,282.202 120.510,282.202 121.626 C 282.202 122.742,281.968 124.277,281.683 125.038 C 281.397 125.799,281.077 127.495,280.970 128.807 C 280.863 130.119,280.519 131.807,280.205 132.557 C 279.890 133.307,279.633 134.851,279.633 135.988 C 279.633 137.124,279.401 138.575,279.117 139.211 C 278.833 139.847,278.515 141.523,278.410 142.936 C 278.306 144.349,277.961 146.000,277.645 146.606 C 277.316 147.234,277.068 148.617,277.066 149.828 C 277.065 150.995,276.817 152.543,276.514 153.268 C 276.211 153.992,275.963 155.369,275.963 156.327 C 275.963 157.286,275.633 159.103,275.229 160.367 C 274.826 161.631,274.490 163.510,274.482 164.543 C 274.475 165.577,274.233 166.835,273.945 167.339 C 273.657 167.844,273.415 169.171,273.407 170.288 C 273.400 171.405,273.064 173.259,272.661 174.407 C 272.257 175.556,271.926 177.367,271.924 178.431 C 271.923 179.496,271.675 180.840,271.374 181.418 C 271.072 181.996,270.826 183.364,270.826 184.457 C 270.826 185.551,270.568 187.060,270.254 187.810 C 269.940 188.560,269.596 190.248,269.489 191.560 C 269.383 192.872,268.870 195.156,268.349 196.636 C 267.210 199.874,266.763 199.539,266.499 195.247 C 266.405 193.723,266.101 192.031,265.825 191.486 C 265.548 190.941,265.321 189.502,265.321 188.289 C 265.321 186.948,265.033 185.352,264.587 184.220 C 264.177 183.180,263.853 181.493,263.853 180.398 C 263.853 179.320,263.606 177.845,263.303 177.121 C 263.000 176.396,262.752 174.925,262.752 173.852 C 262.752 172.779,262.422 170.961,262.018 169.813 C 261.615 168.664,261.279 166.771,261.271 165.605 C 261.264 164.440,261.022 163.073,260.734 162.569 C 260.445 162.064,260.204 160.698,260.196 159.532 C 260.189 158.367,259.853 156.473,259.450 155.325 C 259.046 154.176,258.716 152.384,258.716 151.342 C 258.716 150.300,258.468 148.855,258.165 148.130 C 257.862 147.405,257.615 145.977,257.615 144.957 C 257.615 143.936,257.284 142.161,256.881 141.013 C 256.477 139.864,256.147 138.047,256.147 136.973 C 256.147 135.900,255.899 134.429,255.596 133.705 C 255.294 132.980,255.039 131.541,255.030 130.506 C 255.021 129.471,254.774 127.963,254.482 127.156 C 254.189 126.349,253.841 124.532,253.709 123.119 C 253.576 121.706,253.245 119.910,252.972 119.128 C 252.700 118.346,252.473 117.025,252.468 116.192 C 252.464 115.360,252.133 113.452,251.734 111.951 C 251.336 110.451,251.009 108.744,251.009 108.158 C 251.009 107.572,250.771 106.075,250.479 104.831 C 250.188 103.587,249.759 101.413,249.526 100.000 C 249.294 98.587,248.900 96.193,248.651 94.679 C 248.402 93.165,248.014 91.101,247.789 90.092 C 247.565 89.083,247.201 87.183,246.980 85.872 C 246.004 80.066,245.553 77.480,245.186 75.596 C 244.671 72.950,244.114 69.857,243.501 66.239 C 242.502 60.335,242.165 58.484,241.663 56.147 C 241.382 54.835,241.050 52.936,240.925 51.927 C 240.801 50.917,240.472 49.018,240.194 47.706 C 239.678 45.271,239.229 42.824,238.339 37.615 C 235.800 22.739,237.201 23.468,211.255 23.524 C 194.944 23.559,193.839 23.603,192.110 24.285 " stroke="none" fill="#720f33" fill-rule="evenodd"></path>
		<path id="path2" d="M111.766 23.913 C 109.921 24.886,109.139 25.856,108.649 27.777 C 108.376 28.850,108.257 59.471,108.257 128.942 C 108.257 230.883,108.249 231.464,106.910 233.056 C 106.641 233.375,106.422 233.815,106.422 234.033 C 106.422 234.372,105.861 234.902,103.670 236.631 C 101.551 238.303,82.263 238.996,79.031 237.517 C 76.726 236.462,75.657 235.605,74.399 233.808 L 73.211 232.110 73.003 217.064 C 72.682 193.854,74.710 195.599,48.073 195.606 C 26.287 195.612,25.470 195.757,23.887 199.893 C 22.882 202.520,22.690 241.257,23.654 246.941 C 23.948 248.674,24.346 251.083,24.540 252.294 C 25.183 256.321,26.411 260.657,27.460 262.612 C 28.411 264.383,29.263 266.328,29.490 267.248 C 29.627 267.803,29.901 268.257,30.099 268.257 C 30.297 268.257,30.459 268.440,30.459 268.665 C 30.459 269.470,35.624 275.529,37.550 276.983 C 38.631 277.799,39.753 278.689,40.043 278.959 C 41.527 280.340,42.811 281.054,47.339 283.014 C 48.248 283.407,49.669 284.045,50.499 284.433 C 51.328 284.821,52.355 285.138,52.780 285.138 C 53.205 285.138,54.095 285.369,54.758 285.652 C 55.421 285.935,57.284 286.358,58.899 286.593 C 60.514 286.828,62.991 287.185,64.404 287.387 C 69.131 288.063,118.570 287.591,121.651 286.840 C 126.834 285.577,127.555 285.410,129.174 285.094 C 130.083 284.916,131.321 284.534,131.927 284.243 C 132.532 283.953,133.771 283.397,134.679 283.007 C 135.587 282.618,136.933 282.030,137.670 281.700 C 138.407 281.371,139.107 281.101,139.226 281.101 C 139.427 281.101,139.791 280.821,141.738 279.174 C 142.156 278.821,142.596 278.528,142.717 278.524 C 142.837 278.519,143.559 277.953,144.322 277.266 C 145.084 276.580,145.831 275.964,145.982 275.899 C 146.593 275.634,152.071 268.350,152.558 267.156 C 152.846 266.450,153.660 264.633,154.367 263.119 C 156.241 259.107,156.239 259.112,156.899 256.514 C 157.790 253.011,158.511 247.531,158.919 241.184 C 159.431 233.195,159.216 27.953,158.695 27.601 C 158.481 27.457,158.089 26.801,157.823 26.143 C 157.479 25.292,156.813 24.682,155.520 24.033 L 153.701 23.119 133.456 23.135 C 113.691 23.151,113.177 23.170,111.766 23.913 M191.511 23.799 C 187.125 25.862,185.465 32.949,187.587 40.550 C 188.302 43.110,188.838 45.405,189.557 48.991 C 189.840 50.404,190.418 53.046,190.841 54.862 C 191.264 56.679,191.773 59.073,191.973 60.183 C 192.173 61.294,192.518 62.780,192.741 63.486 C 193.129 64.717,193.417 66.062,194.655 72.409 C 194.963 73.986,195.300 75.414,195.405 75.583 C 195.509 75.752,195.862 77.187,196.188 78.771 C 197.239 83.871,197.771 86.356,198.493 89.541 C 198.882 91.257,199.396 93.651,199.635 94.862 C 199.875 96.073,200.291 97.890,200.560 98.899 C 200.830 99.908,201.236 101.642,201.463 102.752 C 201.690 103.862,202.095 105.844,202.363 107.156 C 202.632 108.468,203.028 110.284,203.244 111.193 C 203.999 114.364,205.154 119.635,205.897 123.303 C 206.122 124.413,206.622 126.477,207.007 127.890 C 207.393 129.303,207.708 130.849,207.708 131.327 C 207.707 131.804,207.944 132.960,208.235 133.896 C 208.526 134.831,208.948 136.505,209.173 137.615 C 210.525 144.286,210.581 144.545,211.790 149.633 C 212.018 150.592,212.410 152.450,212.661 153.761 C 213.117 156.148,213.534 158.004,214.310 161.101 C 214.538 162.009,214.878 163.661,215.065 164.771 C 215.253 165.881,215.644 167.615,215.934 168.624 C 216.451 170.418,216.934 172.640,217.609 176.330 C 217.793 177.339,218.186 179.073,218.482 180.183 C 218.777 181.294,219.204 183.110,219.431 184.220 C 220.577 189.831,220.854 191.140,221.221 192.661 C 221.776 194.962,222.361 197.655,222.775 199.817 C 222.968 200.826,223.361 202.477,223.648 203.486 C 224.151 205.257,224.599 207.322,225.322 211.193 C 225.511 212.202,225.905 214.018,226.200 215.229 C 226.914 218.170,227.454 220.573,228.095 223.670 C 228.387 225.083,228.961 227.642,229.371 229.358 C 230.067 232.272,230.421 233.906,231.560 239.450 C 231.809 240.661,232.223 242.394,232.480 243.303 C 232.738 244.211,233.062 245.780,233.201 246.789 C 233.340 247.798,233.670 249.367,233.934 250.275 C 234.197 251.183,234.603 252.835,234.835 253.945 C 235.066 255.055,235.508 257.119,235.815 258.532 C 236.123 259.945,236.609 262.309,236.896 263.785 C 237.182 265.261,237.511 266.620,237.625 266.806 C 237.740 266.992,238.061 268.344,238.339 269.810 C 238.617 271.277,239.006 273.138,239.204 273.945 C 239.402 274.752,239.935 277.064,240.389 279.083 C 241.193 282.654,242.452 285.273,243.670 285.906 C 246.903 287.587,246.175 287.503,259.266 287.701 L 271.743 287.890 271.927 304.771 C 272.128 323.342,271.959 321.964,274.495 325.688 C 275.045 326.495,276.467 328.642,277.655 330.459 C 278.843 332.275,279.939 333.927,280.090 334.128 C 280.242 334.330,281.393 336.064,282.647 337.982 C 283.902 339.899,285.035 341.550,285.165 341.651 C 285.296 341.752,285.696 342.408,286.055 343.108 C 289.979 350.762,301.578 353.128,308.076 347.599 C 309.807 346.127,311.806 343.082,317.402 333.394 C 320.667 327.743,323.497 322.872,323.690 322.569 C 323.884 322.266,324.226 321.661,324.451 321.224 C 325.449 319.285,326.570 320.004,328.724 323.968 C 329.238 324.914,330.043 326.349,330.513 327.156 C 330.983 327.963,331.575 329.037,331.830 329.541 C 332.085 330.046,332.830 331.281,333.486 332.285 C 334.142 333.290,334.679 334.308,334.679 334.548 C 334.679 334.788,334.821 335.040,334.995 335.107 C 335.169 335.174,335.871 336.246,336.555 337.489 C 342.452 348.207,345.266 350.459,352.761 350.459 C 359.088 350.459,362.011 348.637,366.246 342.051 C 366.948 340.960,368.514 338.527,369.725 336.646 C 370.936 334.765,372.670 332.031,373.578 330.571 C 374.486 329.111,375.931 326.866,376.789 325.581 C 377.647 324.296,378.349 323.113,378.349 322.952 C 378.349 322.791,378.596 322.453,378.899 322.202 C 379.468 321.729,379.763 285.429,379.215 283.380 C 378.996 282.563,376.881 284.192,376.881 285.177 C 376.881 285.329,376.674 285.675,376.422 285.947 C 375.808 286.610,374.312 288.735,374.312 288.945 C 374.312 289.106,372.151 292.455,369.124 296.984 C 368.344 298.151,367.706 299.183,367.706 299.277 C 367.706 299.371,367.128 300.252,366.422 301.236 C 365.716 302.219,365.138 303.196,365.138 303.408 C 365.138 303.619,365.014 303.847,364.862 303.914 C 364.711 303.982,363.431 305.761,362.018 307.870 C 358.905 312.515,357.662 313.769,355.350 314.598 C 350.474 316.346,344.627 313.939,342.620 309.358 C 342.399 308.853,341.710 307.697,341.088 306.789 C 340.466 305.881,339.587 304.394,339.135 303.486 C 338.683 302.578,337.696 300.844,336.943 299.633 C 336.190 298.422,334.918 296.299,334.117 294.914 C 333.316 293.530,332.495 292.125,332.294 291.793 C 332.092 291.460,331.304 290.082,330.542 288.731 C 327.219 282.832,325.251 282.267,322.513 286.422 C 320.781 289.050,319.468 291.174,318.995 292.110 C 318.741 292.615,318.204 293.523,317.802 294.128 C 317.401 294.734,316.867 295.642,316.616 296.147 C 316.365 296.651,314.933 299.128,313.433 301.651 C 311.934 304.174,310.528 306.569,310.307 306.972 C 305.036 316.634,296.634 318.212,291.260 310.550 C 290.516 309.491,289.330 307.800,288.624 306.793 C 287.917 305.786,287.328 304.836,287.315 304.683 C 287.301 304.529,286.556 303.413,285.659 302.202 C 284.761 300.991,283.881 299.663,283.703 299.251 C 283.525 298.839,283.114 298.282,282.791 298.013 C 282.467 297.745,282.202 297.385,282.202 297.214 C 282.202 296.825,279.181 292.337,278.807 292.171 C 278.656 292.104,278.532 291.886,278.532 291.687 C 278.532 291.488,278.028 290.592,277.411 289.695 C 276.026 287.682,275.797 287.767,282.972 287.631 C 286.535 287.564,288.890 287.366,289.210 287.107 C 289.493 286.878,290.251 286.578,290.894 286.440 C 292.192 286.163,292.354 286.289,294.565 289.304 C 297.782 293.690,302.184 292.957,305.780 287.437 C 306.335 286.585,306.789 285.798,306.789 285.689 C 306.789 285.579,307.236 284.791,307.782 283.938 C 308.709 282.488,310.570 279.166,311.632 277.064 C 311.887 276.560,312.184 276.064,312.294 275.963 C 312.403 275.862,312.706 275.367,312.968 274.862 C 315.780 269.440,320.263 262.129,321.531 260.899 C 324.705 257.819,329.392 258.962,331.608 263.357 C 332.001 264.134,332.743 265.431,333.258 266.239 C 334.273 267.831,335.152 269.418,335.762 270.762 C 335.975 271.231,336.397 271.862,336.699 272.164 C 337.001 272.466,337.248 272.934,337.248 273.205 C 337.248 273.476,337.826 274.575,338.532 275.648 C 339.239 276.720,339.817 277.711,339.817 277.850 C 339.817 277.988,340.394 278.979,341.101 280.051 C 341.807 281.124,342.385 282.137,342.385 282.303 C 342.385 282.562,343.642 284.716,345.230 287.177 C 345.483 287.569,345.837 288.220,346.017 288.624 C 346.924 290.659,349.895 292.258,352.333 292.023 C 354.842 291.782,355.665 291.086,358.420 286.871 C 359.769 284.808,360.968 283.037,361.086 282.936 C 361.203 282.835,361.503 282.339,361.753 281.835 C 362.199 280.933,363.665 278.651,366.276 274.796 C 367.003 273.722,368.832 270.945,370.340 268.624 C 380.667 252.736,380.075 254.229,376.132 254.006 C 372.409 253.796,371.994 253.985,370.413 256.606 C 369.652 257.867,368.484 259.682,367.817 260.638 C 367.151 261.595,366.606 262.457,366.606 262.554 C 366.606 262.650,365.964 263.684,365.180 264.851 C 364.397 266.018,362.973 268.211,362.017 269.725 C 361.062 271.239,359.904 273.055,359.445 273.761 C 358.583 275.087,356.813 277.884,356.154 278.961 C 352.125 285.550,351.467 285.876,349.427 282.296 C 348.764 281.134,347.910 279.659,347.528 279.018 C 346.533 277.346,344.334 273.401,343.679 272.110 C 343.372 271.505,342.795 270.514,342.398 269.908 C 342.000 269.303,341.430 268.312,341.131 267.706 C 340.832 267.101,340.042 265.670,339.376 264.526 C 338.710 263.383,337.558 261.401,336.816 260.122 C 333.088 253.699,326.394 250.894,321.038 253.511 C 319.430 254.298,315.229 258.110,315.229 258.784 C 315.229 258.952,314.693 259.880,314.037 260.846 C 312.652 262.884,312.596 262.982,310.281 267.339 C 309.316 269.156,308.336 270.890,308.105 271.193 C 307.873 271.495,307.292 272.486,306.813 273.394 C 306.335 274.303,305.796 275.237,305.615 275.471 C 305.434 275.705,304.823 276.779,304.256 277.857 C 301.976 282.196,300.618 284.299,299.926 284.565 C 299.269 284.817,297.615 283.474,297.615 282.688 C 297.615 282.421,297.446 282.202,297.240 282.202 C 297.034 282.202,296.671 281.748,296.435 281.193 C 296.198 280.638,295.762 279.893,295.465 279.537 C 295.011 278.994,294.996 278.611,295.371 277.152 C 295.617 276.195,295.976 274.587,296.169 273.578 C 296.363 272.569,296.756 270.917,297.042 269.908 C 297.329 268.899,297.746 267.165,297.968 266.055 C 299.081 260.511,299.447 258.793,299.768 257.615 C 299.961 256.908,300.225 255.550,300.356 254.596 C 300.486 253.642,300.748 252.765,300.939 252.647 C 301.129 252.530,301.284 251.995,301.284 251.458 C 301.284 250.922,301.600 249.156,301.986 247.535 C 303.050 243.060,303.482 241.144,304.015 238.532 C 304.862 234.376,305.363 232.148,305.747 230.826 C 305.952 230.119,306.345 228.385,306.620 226.972 C 307.478 222.567,307.955 220.426,308.458 218.716 C 308.725 217.807,309.059 216.156,309.199 215.046 C 309.340 213.936,309.590 212.856,309.754 212.646 C 309.918 212.437,310.234 211.133,310.455 209.749 C 310.676 208.365,310.996 206.968,311.166 206.644 C 311.336 206.320,311.593 205.147,311.736 204.037 C 311.880 202.927,312.211 201.275,312.471 200.367 C 312.732 199.459,313.135 197.807,313.367 196.697 C 314.406 191.720,315.358 187.441,316.186 184.037 C 316.480 182.826,316.876 181.009,317.065 180.000 C 317.255 178.991,317.755 176.679,318.176 174.862 C 318.597 173.046,319.170 170.486,319.450 169.174 C 320.234 165.496,320.729 163.272,321.167 161.468 C 321.542 159.918,321.989 157.924,322.936 153.578 C 323.155 152.569,323.514 151.000,323.733 150.092 C 324.111 148.526,324.603 146.198,325.517 141.651 C 325.740 140.541,326.157 138.807,326.444 137.798 C 326.731 136.789,327.112 135.138,327.290 134.128 C 327.598 132.391,327.881 131.122,328.862 127.064 C 329.252 125.452,329.586 123.870,330.667 118.532 C 330.892 117.422,331.296 115.688,331.566 114.679 C 331.835 113.670,332.230 111.936,332.443 110.826 C 332.657 109.716,333.010 108.064,333.229 107.156 C 334.007 103.928,334.403 102.171,334.884 99.817 C 335.951 94.600,336.233 93.323,336.705 91.560 C 336.975 90.550,337.373 88.858,337.589 87.798 C 338.520 83.231,338.808 81.905,339.283 80.000 C 339.560 78.890,339.887 77.321,340.011 76.514 C 340.134 75.706,340.462 74.303,340.738 73.394 C 341.257 71.691,341.820 69.073,342.358 65.864 C 342.527 64.850,342.933 63.234,343.260 62.273 C 343.586 61.311,343.852 60.076,343.851 59.528 C 343.850 58.980,344.084 57.789,344.371 56.881 C 344.659 55.972,345.087 54.239,345.324 53.028 C 345.560 51.817,346.075 49.422,346.467 47.706 C 346.860 45.991,347.340 43.629,347.533 42.457 C 347.727 41.286,348.091 39.965,348.344 39.522 C 349.190 38.034,348.959 29.492,348.019 27.523 C 345.881 23.047,346.062 23.079,323.486 23.208 C 298.476 23.351,298.861 23.190,297.423 34.128 C 297.303 35.037,296.972 36.853,296.687 38.165 C 296.401 39.477,295.997 41.624,295.788 42.936 C 294.778 49.292,294.305 51.964,294.100 52.472 C 293.977 52.778,293.651 54.514,293.375 56.330 C 292.526 61.923,291.778 66.169,291.538 66.768 C 291.411 67.082,291.088 68.826,290.819 70.642 C 290.550 72.459,290.150 74.853,289.930 75.963 C 289.711 77.073,289.352 78.890,289.133 80.000 C 288.914 81.110,288.516 83.422,288.249 85.138 C 287.982 86.853,287.583 89.165,287.363 90.275 C 286.542 94.405,286.174 96.410,285.676 99.450 C 285.394 101.165,284.985 103.477,284.767 104.587 C 284.092 108.010,283.639 110.514,283.107 113.761 C 282.826 115.477,282.424 117.748,282.215 118.807 C 281.358 123.152,281.072 124.741,280.581 127.890 C 280.298 129.706,279.887 131.658,279.666 132.226 C 279.446 132.794,279.266 134.079,279.266 135.082 C 279.266 136.084,279.038 137.451,278.759 138.119 C 278.480 138.786,278.130 140.541,277.982 142.018 C 277.833 143.495,277.484 145.250,277.205 145.918 C 276.926 146.586,276.697 148.026,276.697 149.118 C 276.697 150.210,276.470 151.660,276.193 152.341 C 275.915 153.021,275.574 154.780,275.435 156.249 C 275.296 157.719,274.946 159.489,274.656 160.183 C 274.366 160.877,274.128 162.272,274.128 163.284 C 274.128 164.295,273.895 165.745,273.609 166.506 C 273.324 167.267,273.003 168.963,272.897 170.275 C 272.790 171.587,272.446 173.275,272.131 174.025 C 271.817 174.775,271.560 176.311,271.560 177.438 C 271.560 178.564,271.335 179.932,271.060 180.477 C 270.785 181.022,270.466 182.624,270.351 184.037 C 270.235 185.450,269.882 187.219,269.566 187.970 C 269.250 188.720,268.988 190.207,268.985 191.273 C 268.981 192.373,268.609 194.223,268.124 195.553 L 267.269 197.895 267.029 196.144 C 266.897 195.181,266.789 193.822,266.789 193.124 C 266.789 192.425,266.555 191.334,266.269 190.698 C 265.983 190.062,265.678 188.267,265.591 186.711 C 265.504 185.154,265.229 183.634,264.980 183.334 C 264.732 183.035,264.403 181.416,264.250 179.738 C 264.097 178.060,263.801 176.359,263.592 175.958 C 263.383 175.557,263.134 173.956,263.038 172.399 C 262.942 170.842,262.678 169.343,262.450 169.069 C 262.222 168.794,261.935 167.343,261.812 165.844 C 261.689 164.346,261.355 162.497,261.070 161.736 C 260.784 160.975,260.550 159.442,260.550 158.329 C 260.550 157.217,260.292 155.693,259.975 154.942 C 259.659 154.192,259.317 152.422,259.215 151.009 C 259.113 149.596,258.804 147.862,258.529 147.156 C 258.254 146.450,257.958 144.677,257.871 143.216 C 257.785 141.756,257.518 140.325,257.278 140.037 C 257.039 139.749,256.755 138.301,256.647 136.821 C 256.540 135.340,256.218 133.506,255.932 132.745 C 255.647 131.984,255.413 130.535,255.413 129.525 C 255.413 128.515,255.083 126.748,254.679 125.600 C 254.267 124.429,253.945 122.571,253.945 121.371 C 253.945 120.193,253.720 118.784,253.446 118.239 C 253.171 117.694,252.841 115.944,252.712 114.350 C 252.583 112.756,252.316 111.257,252.119 111.020 C 251.922 110.782,251.658 109.361,251.533 107.863 C 251.409 106.364,251.086 104.477,250.816 103.670 C 250.546 102.862,250.224 101.063,250.101 99.671 C 249.978 98.280,249.712 96.834,249.512 96.458 C 249.311 96.083,249.058 94.662,248.951 93.301 C 248.844 91.939,248.535 90.165,248.265 89.358 C 247.995 88.550,247.674 86.817,247.551 85.505 C 247.428 84.193,247.090 82.459,246.799 81.651 C 246.509 80.844,246.263 79.389,246.255 78.418 C 246.246 77.446,246.007 75.878,245.724 74.931 C 245.441 73.985,245.036 72.055,244.824 70.642 C 244.158 66.198,243.652 63.377,243.101 61.041 C 242.809 59.797,242.569 58.213,242.569 57.521 C 242.569 56.829,242.325 55.453,242.026 54.462 C 241.728 53.471,241.382 51.670,241.256 50.459 C 241.131 49.248,240.797 47.443,240.514 46.447 C 240.231 45.452,240.000 44.037,240.000 43.303 C 240.000 42.569,239.760 41.154,239.467 40.158 C 239.174 39.163,238.762 37.110,238.551 35.596 C 237.395 27.281,236.509 25.516,232.661 23.868 C 230.577 22.975,193.395 22.913,191.511 23.799 M154.003 24.103 C 156.505 24.892,157.270 25.734,157.972 28.473 C 158.815 31.762,158.574 242.834,157.721 248.807 C 156.677 256.116,155.882 258.682,152.373 266.055 C 150.050 270.936,140.793 280.734,138.505 280.734 C 138.266 280.734,135.739 281.844,134.220 282.616 C 132.491 283.494,128.601 284.771,127.651 284.771 C 127.063 284.771,125.979 285.023,125.241 285.331 C 124.503 285.639,122.321 286.056,120.390 286.258 C 118.460 286.460,115.394 286.783,113.578 286.976 C 109.370 287.423,67.949 287.408,65.505 286.958 C 64.495 286.772,62.188 286.439,60.376 286.217 C 58.565 285.994,56.522 285.578,55.836 285.292 C 55.150 285.005,54.218 284.771,53.763 284.771 C 52.887 284.771,50.840 283.966,45.464 281.507 C 44.534 281.082,43.656 280.734,43.513 280.734 C 43.370 280.734,41.599 279.460,39.577 277.902 C 34.592 274.063,31.424 270.020,29.002 264.404 C 28.567 263.394,28.062 262.291,27.879 261.951 C 24.734 256.095,23.881 247.569,23.905 222.202 C 23.926 199.850,23.964 199.445,26.181 197.653 L 27.590 196.514 47.384 196.410 C 74.618 196.267,71.864 194.061,72.249 216.330 C 72.437 227.240,72.636 231.628,72.971 232.294 C 75.933 238.177,77.802 238.899,90.081 238.899 C 98.460 238.899,99.687 238.822,101.512 238.181 C 103.720 237.405,106.789 235.140,106.789 234.287 C 106.789 233.998,106.932 233.761,107.107 233.761 C 107.282 233.761,107.777 232.795,108.208 231.614 L 108.991 229.466 108.991 128.660 C 108.991 20.891,108.895 26.787,110.664 25.294 C 112.643 23.624,113.656 23.545,133.362 23.515 C 149.896 23.490,152.271 23.557,154.003 24.103 M230.888 24.069 C 236.014 25.355,236.351 25.968,238.339 37.615 C 239.229 42.824,239.678 45.271,240.194 47.706 C 240.472 49.018,240.801 50.917,240.925 51.927 C 241.050 52.936,241.382 54.835,241.663 56.147 C 242.165 58.484,242.502 60.335,243.501 66.239 C 244.114 69.857,244.671 72.950,245.186 75.596 C 245.553 77.480,246.004 80.066,246.980 85.872 C 247.201 87.183,247.565 89.083,247.789 90.092 C 248.014 91.101,248.402 93.165,248.651 94.679 C 248.900 96.193,249.294 98.587,249.526 100.000 C 249.759 101.413,250.188 103.587,250.479 104.831 C 250.771 106.075,251.009 107.572,251.009 108.158 C 251.009 108.744,251.336 110.451,251.734 111.951 C 252.133 113.452,252.464 115.360,252.468 116.192 C 252.473 117.025,252.700 118.346,252.972 119.128 C 253.245 119.910,253.576 121.706,253.709 123.119 C 253.841 124.532,254.189 126.349,254.482 127.156 C 254.774 127.963,255.021 129.471,255.030 130.506 C 255.039 131.541,255.294 132.980,255.596 133.705 C 255.899 134.429,256.147 135.900,256.147 136.973 C 256.147 138.047,256.477 139.864,256.881 141.013 C 257.284 142.161,257.615 143.936,257.615 144.957 C 257.615 145.977,257.862 147.405,258.165 148.130 C 258.468 148.855,258.716 150.300,258.716 151.342 C 258.716 152.384,259.046 154.176,259.450 155.325 C 259.853 156.473,260.189 158.367,260.196 159.532 C 260.204 160.698,260.445 162.064,260.734 162.569 C 261.022 163.073,261.264 164.440,261.271 165.605 C 261.279 166.771,261.615 168.664,262.018 169.813 C 262.422 170.961,262.752 172.779,262.752 173.852 C 262.752 174.925,263.000 176.396,263.303 177.121 C 263.606 177.845,263.853 179.320,263.853 180.398 C 263.853 181.493,264.177 183.180,264.587 184.220 C 265.033 185.352,265.321 186.948,265.321 188.289 C 265.321 189.502,265.548 190.941,265.825 191.486 C 266.101 192.031,266.405 193.723,266.499 195.247 C 266.763 199.539,267.210 199.874,268.349 196.636 C 268.870 195.156,269.383 192.872,269.489 191.560 C 269.596 190.248,269.940 188.560,270.254 187.810 C 270.568 187.060,270.826 185.551,270.826 184.457 C 270.826 183.364,271.072 181.996,271.374 181.418 C 271.675 180.840,271.923 179.496,271.924 178.431 C 271.926 177.367,272.257 175.556,272.661 174.407 C 273.064 173.259,273.400 171.405,273.407 170.288 C 273.415 169.171,273.657 167.844,273.945 167.339 C 274.233 166.835,274.475 165.577,274.482 164.543 C 274.490 163.510,274.826 161.631,275.229 160.367 C 275.633 159.103,275.963 157.286,275.963 156.327 C 275.963 155.369,276.211 153.992,276.514 153.268 C 276.817 152.543,277.065 150.995,277.066 149.828 C 277.068 148.617,277.316 147.234,277.645 146.606 C 277.961 146.000,278.306 144.349,278.410 142.936 C 278.515 141.523,278.833 139.847,279.117 139.211 C 279.401 138.575,279.633 137.124,279.633 135.988 C 279.633 134.851,279.890 133.307,280.205 132.557 C 280.519 131.807,280.863 130.119,280.970 128.807 C 281.077 127.495,281.397 125.799,281.683 125.038 C 281.968 124.277,282.202 122.742,282.202 121.626 C 282.202 120.510,282.443 119.131,282.737 118.561 C 283.032 117.992,283.380 116.390,283.511 115.002 C 283.641 113.613,283.979 111.769,284.260 110.905 C 284.541 110.040,284.771 108.507,284.771 107.498 C 284.771 106.490,285.015 105.080,285.314 104.365 C 285.612 103.650,285.960 101.963,286.087 100.615 C 286.214 99.268,286.547 97.458,286.828 96.593 C 287.109 95.728,287.339 94.304,287.339 93.428 C 287.339 92.552,287.563 91.195,287.835 90.413 C 288.108 89.631,288.440 87.917,288.574 86.606 C 288.707 85.294,289.062 83.410,289.362 82.419 C 289.663 81.428,289.908 79.921,289.908 79.070 C 289.908 78.220,290.133 76.883,290.408 76.101 C 290.683 75.319,291.025 73.580,291.167 72.236 C 291.310 70.893,291.663 69.009,291.952 68.050 C 292.241 67.090,292.477 65.739,292.477 65.048 C 292.477 64.356,292.719 62.772,293.015 61.528 C 293.828 58.106,294.721 53.309,295.040 50.642 C 295.198 49.330,295.505 47.514,295.724 46.606 C 296.300 44.212,297.299 38.726,297.661 35.963 C 297.834 34.651,298.141 33.099,298.345 32.514 C 298.549 31.929,298.716 30.956,298.716 30.352 C 298.716 27.369,300.684 25.284,304.541 24.181 C 308.446 23.064,340.510 23.123,343.486 24.252 C 349.074 26.372,349.779 31.188,346.488 44.771 C 345.880 47.278,345.463 49.223,343.853 57.064 C 343.604 58.275,343.172 59.932,342.893 60.746 C 342.614 61.560,342.385 62.546,342.385 62.936 C 342.385 63.327,342.070 64.972,341.684 66.594 C 340.719 70.650,340.228 72.805,339.633 75.596 C 339.353 76.908,338.780 79.468,338.360 81.284 C 337.939 83.101,337.366 85.743,337.087 87.156 C 336.808 88.569,336.413 90.385,336.211 91.193 C 335.709 93.188,335.104 95.857,334.503 98.716 C 334.227 100.028,333.837 101.761,333.637 102.569 C 333.036 104.994,332.466 107.560,331.928 110.275 C 331.648 111.688,331.079 114.248,330.665 115.963 C 330.250 117.679,329.671 120.239,329.379 121.651 C 328.738 124.748,328.199 127.151,327.484 130.092 C 327.190 131.303,326.797 133.119,326.610 134.128 C 326.424 135.138,325.934 137.367,325.522 139.083 C 325.110 140.798,324.534 143.358,324.241 144.771 C 323.546 148.129,322.997 150.624,322.503 152.661 C 321.853 155.346,321.079 158.906,320.549 161.651 C 320.276 163.064,319.896 164.633,319.705 165.138 C 319.514 165.642,319.235 166.963,319.086 168.073 C 318.937 169.183,318.667 170.372,318.487 170.714 C 318.307 171.057,318.017 172.295,317.841 173.467 C 317.665 174.638,317.273 176.587,316.969 177.798 C 316.666 179.009,316.135 181.321,315.789 182.936 C 315.444 184.550,314.930 186.780,314.647 187.890 C 314.365 189.000,313.972 190.734,313.775 191.743 C 312.862 196.421,312.568 197.728,312.080 199.266 C 311.792 200.174,311.557 201.357,311.558 201.894 C 311.559 202.431,311.231 203.917,310.830 205.197 C 310.429 206.476,310.099 207.921,310.096 208.408 C 310.094 208.895,309.858 210.133,309.573 211.160 C 309.288 212.187,308.694 214.679,308.253 216.697 C 307.812 218.716,307.234 221.275,306.969 222.385 C 306.703 223.495,306.306 225.271,306.087 226.330 C 305.868 227.390,305.509 229.124,305.289 230.183 C 305.070 231.243,304.673 233.018,304.407 234.128 C 304.142 235.239,303.581 237.716,303.162 239.633 C 302.743 241.550,302.221 243.862,302.003 244.771 C 301.582 246.518,300.860 249.866,300.182 253.211 C 299.957 254.321,299.535 255.995,299.244 256.930 C 298.954 257.865,298.716 258.974,298.716 259.394 C 298.716 260.148,297.664 264.885,296.708 268.440 C 296.436 269.450,296.103 271.081,295.967 272.066 C 295.832 273.051,295.585 274.207,295.420 274.635 C 295.255 275.063,294.924 276.138,294.685 277.025 L 294.251 278.637 293.215 276.823 C 292.646 275.826,291.916 274.791,291.594 274.524 C 291.272 274.257,291.009 273.869,291.009 273.663 C 291.009 273.456,290.460 272.444,289.790 271.414 C 289.119 270.384,287.883 268.468,287.044 267.156 C 286.204 265.844,285.353 264.523,285.154 264.220 C 284.954 263.917,284.155 262.679,283.380 261.468 C 282.604 260.257,281.247 258.151,280.364 256.789 L 278.760 254.312 275.955 254.312 C 272.162 254.312,272.089 254.565,274.762 258.437 C 275.423 259.393,275.963 260.278,275.963 260.402 C 275.963 260.527,276.454 261.248,277.053 262.004 C 277.653 262.761,278.311 263.776,278.516 264.259 C 278.722 264.742,279.624 266.128,280.521 267.339 C 281.418 268.550,282.164 269.722,282.177 269.943 C 282.191 270.164,282.532 270.644,282.936 271.009 C 283.339 271.374,283.670 271.813,283.670 271.983 C 283.670 272.153,284.206 273.077,284.862 274.036 C 285.518 274.995,286.220 276.061,286.422 276.404 C 286.624 276.747,287.491 278.032,288.349 279.260 C 289.206 280.487,289.908 281.575,289.908 281.678 C 289.908 281.781,290.253 282.331,290.674 282.901 C 292.826 285.811,290.377 286.994,281.671 287.248 L 275.819 287.419 274.056 285.461 L 272.294 283.503 272.294 285.199 C 272.294 287.442,272.874 287.339,260.215 287.339 C 244.495 287.339,242.221 286.444,241.103 279.817 C 240.933 278.807,240.612 277.239,240.390 276.330 C 240.167 275.422,239.642 273.110,239.223 271.193 C 238.804 269.275,238.244 266.798,237.978 265.688 C 237.712 264.578,237.327 262.844,237.123 261.835 C 236.662 259.567,236.058 256.852,235.529 254.679 C 235.308 253.771,235.006 252.284,234.858 251.376 C 234.618 249.905,234.175 247.965,232.972 243.119 C 232.772 242.312,232.527 241.156,232.429 240.550 C 232.227 239.307,231.027 233.870,230.282 230.826 C 230.011 229.716,229.603 227.899,229.376 226.789 C 228.211 221.081,227.949 219.853,227.535 218.165 C 226.662 214.606,226.072 211.904,225.711 209.815 C 225.510 208.654,225.198 207.415,225.017 207.063 C 224.836 206.710,224.577 205.442,224.443 204.244 C 224.308 203.047,224.061 201.891,223.893 201.676 C 223.725 201.460,223.481 200.470,223.351 199.475 C 223.222 198.480,222.881 196.829,222.595 195.806 C 222.309 194.782,221.891 193.037,221.666 191.927 C 220.668 186.995,220.252 185.029,219.880 183.486 C 219.321 181.168,218.738 178.480,218.327 176.330 C 218.135 175.321,217.746 173.587,217.463 172.477 C 217.180 171.367,216.666 169.138,216.320 167.523 C 215.687 164.562,214.732 160.263,213.957 156.881 C 213.725 155.872,213.312 153.972,213.038 152.661 C 212.764 151.349,212.186 148.706,211.753 146.789 C 211.319 144.872,210.748 142.229,210.484 140.917 C 210.219 139.606,209.820 137.789,209.597 136.881 C 208.547 132.611,208.354 131.759,207.888 129.358 C 207.361 126.638,206.888 124.507,206.016 120.917 C 205.722 119.706,205.326 117.890,205.136 116.881 C 204.947 115.872,204.455 113.560,204.044 111.743 C 203.633 109.927,203.057 107.367,202.764 106.055 C 202.472 104.743,202.048 102.844,201.823 101.835 C 201.598 100.826,201.173 99.009,200.879 97.798 C 200.584 96.587,200.189 94.771,200.001 93.761 C 199.352 90.285,198.834 87.885,198.298 85.872 C 198.003 84.761,197.610 83.028,197.425 82.018 C 196.758 78.372,196.270 76.113,195.758 74.312 C 195.471 73.303,195.075 71.651,194.877 70.642 C 194.043 66.381,193.668 64.659,193.161 62.752 C 192.865 61.642,192.488 59.908,192.322 58.899 C 192.156 57.890,191.823 56.239,191.582 55.229 C 191.341 54.220,190.965 52.651,190.747 51.743 C 190.369 50.174,189.871 47.805,188.971 43.303 C 188.749 42.193,188.332 40.444,188.045 39.417 C 186.077 32.381,187.795 25.986,192.110 24.285 C 194.666 23.277,227.015 23.097,230.888 24.069 " stroke="none" fill="#ec6c2d" fill-rule="evenodd"></path>
	</g>
</svg>