<svg id="svg" version="1.1" xmlns="http://www.w3.org/2000/svg" xmlns:xlink="http://www.w3.org/1999/xlink" width="40" height="64.5" viewBox="0, 0, 400,645.4767726161368">
	<g id="svgg">
		<path id="path0" d="M193.400 4.248 C 179.065 5.419,173.413 6.036,168.200 7.001 C 166.220 7.367,163.700 7.829,162.600 8.027 C 158.976 8.679,153.995 9.871,152.481 10.449 C 151.976 10.642,151.270 10.800,150.912 10.800 C 150.298 10.800,140.717 13.701,139.000 14.407 C 138.560 14.588,136.850 15.215,135.200 15.800 C 133.550 16.385,131.840 17.008,131.400 17.184 C 130.960 17.360,129.790 17.820,128.800 18.206 C 126.101 19.259,124.493 19.960,121.358 21.450 C 119.795 22.192,118.310 22.800,118.058 22.800 C 117.806 22.800,117.600 22.980,117.600 23.200 C 117.600 23.420,117.362 23.600,117.070 23.600 C 116.495 23.600,110.439 26.634,109.820 27.233 C 109.611 27.435,109.116 27.600,108.720 27.600 C 108.324 27.600,108.000 27.759,108.000 27.953 C 108.000 28.148,107.685 28.415,107.300 28.548 C 106.915 28.680,106.060 29.121,105.400 29.528 C 104.740 29.935,103.379 30.725,102.376 31.283 C 97.020 34.266,82.734 43.916,81.200 45.587 C 81.090 45.707,79.938 46.595,78.639 47.561 C 77.341 48.527,75.347 50.146,74.209 51.159 C 73.070 52.171,71.252 53.754,70.169 54.675 C 65.155 58.941,56.315 68.033,50.991 74.400 C 49.244 76.490,47.630 78.405,47.407 78.655 C 44.412 82.008,37.666 91.725,32.727 99.800 C 30.605 103.269,29.782 104.684,27.374 109.000 C 24.882 113.466,21.400 120.939,18.802 127.400 C 17.652 130.260,16.482 133.140,16.202 133.800 C 15.921 134.460,15.466 135.720,15.191 136.600 C 14.915 137.480,14.559 138.560,14.399 139.000 C 14.240 139.440,13.799 140.790,13.421 142.000 C 13.042 143.210,12.583 144.560,12.402 145.000 C 12.220 145.440,11.591 147.780,11.004 150.200 C 10.417 152.620,9.766 155.052,9.559 155.605 C 9.352 156.157,8.997 157.597,8.770 158.805 C 8.544 160.012,8.205 161.810,8.017 162.800 C 6.333 171.656,6.010 173.566,6.005 174.694 C 6.002 175.406,5.826 176.756,5.614 177.694 C 4.258 183.687,3.472 207.921,4.392 215.410 C 4.607 217.165,4.971 220.670,5.201 223.200 C 5.788 229.655,6.977 237.633,7.973 241.800 C 8.183 242.680,8.651 244.750,9.013 246.400 C 10.532 253.325,12.978 262.028,14.354 265.400 C 14.823 266.551,15.557 268.697,16.269 271.000 C 16.608 272.100,17.349 273.990,17.913 275.200 C 18.478 276.410,19.343 278.300,19.836 279.400 C 22.056 284.357,22.811 285.989,24.159 288.741 C 24.952 290.359,25.600 291.853,25.600 292.063 C 25.600 292.272,26.510 294.368,27.623 296.722 C 28.736 299.075,29.796 301.360,29.980 301.800 C 30.164 302.240,30.765 303.590,31.315 304.800 C 31.866 306.010,32.763 307.990,33.308 309.200 C 35.378 313.796,36.342 315.895,37.748 318.875 C 38.547 320.567,39.200 322.039,39.200 322.146 C 39.200 322.254,39.845 323.750,40.633 325.471 C 41.421 327.192,42.515 329.590,43.065 330.800 C 44.828 334.677,45.868 336.919,47.553 340.476 C 48.459 342.388,49.200 344.119,49.200 344.323 C 49.200 344.527,49.795 345.856,50.522 347.275 C 51.248 348.694,52.092 350.473,52.397 351.228 C 52.701 351.983,53.523 353.860,54.223 355.400 C 56.398 360.185,57.645 362.945,58.289 364.400 C 58.630 365.170,59.402 366.880,60.005 368.200 C 60.607 369.520,61.503 371.500,61.994 372.600 C 63.004 374.860,64.230 377.572,65.702 380.800 C 66.253 382.010,67.111 383.900,67.607 385.000 C 68.103 386.100,69.450 389.070,70.600 391.600 C 72.850 396.549,73.932 398.942,75.481 402.400 C 76.023 403.610,76.880 405.500,77.384 406.600 C 77.889 407.700,78.578 409.230,78.916 410.000 C 79.254 410.770,80.062 412.570,80.712 414.000 C 81.362 415.430,82.302 417.500,82.800 418.600 C 83.298 419.700,84.198 421.680,84.800 423.000 C 85.402 424.320,86.300 426.300,86.796 427.400 C 87.292 428.500,88.285 430.660,89.003 432.200 C 89.720 433.740,90.544 435.675,90.834 436.500 C 91.124 437.325,91.505 438.000,91.680 438.000 C 91.856 438.000,92.000 438.267,92.000 438.592 C 92.000 439.119,92.607 440.507,96.204 448.200 C 97.060 450.031,97.855 451.775,100.398 457.400 C 100.896 458.500,101.909 460.718,102.651 462.329 C 103.393 463.940,104.000 465.346,104.000 465.454 C 104.000 465.678,105.858 469.666,109.193 476.600 C 110.462 479.240,112.437 483.380,113.582 485.800 C 114.726 488.220,116.752 492.450,118.083 495.200 C 119.414 497.950,120.918 501.100,121.425 502.200 C 121.933 503.300,123.726 507.080,125.411 510.600 C 127.096 514.120,129.111 518.350,129.889 520.000 C 130.666 521.650,132.341 525.160,133.611 527.800 C 139.100 539.215,141.913 545.106,142.586 546.600 C 142.982 547.480,144.386 550.450,145.705 553.200 C 148.519 559.068,152.147 566.660,154.688 572.000 C 155.683 574.090,157.443 577.780,158.599 580.200 C 159.755 582.620,161.776 586.850,163.089 589.600 C 164.402 592.350,166.298 596.310,167.303 598.400 C 168.308 600.490,169.881 603.820,170.797 605.800 C 171.714 607.780,173.550 611.650,174.877 614.400 C 178.016 620.901,181.914 629.027,182.744 630.800 C 183.105 631.570,183.535 632.260,183.700 632.333 C 183.865 632.407,184.000 632.720,184.000 633.030 C 184.000 633.340,185.125 634.735,186.500 636.130 C 193.556 643.290,204.119 643.885,211.983 637.566 C 213.334 636.480,216.800 632.085,216.800 631.457 C 216.800 631.338,218.134 628.487,219.764 625.120 C 221.393 621.754,223.658 617.020,224.796 614.600 C 225.934 612.180,227.735 608.400,228.798 606.200 C 229.862 604.000,231.668 600.220,232.813 597.800 C 233.958 595.380,236.112 590.880,237.600 587.800 C 240.169 582.483,241.485 579.725,246.094 570.000 C 247.189 567.690,249.035 563.820,250.196 561.400 C 251.357 558.980,253.335 554.840,254.592 552.200 C 255.848 549.560,257.652 545.780,258.600 543.800 C 259.548 541.820,261.132 538.490,262.119 536.400 C 263.106 534.310,265.123 530.080,266.602 527.000 C 268.081 523.920,270.097 519.690,271.083 517.600 C 273.664 512.127,276.134 506.940,278.987 501.000 C 280.361 498.140,282.036 494.630,282.709 493.200 C 283.382 491.770,285.183 487.990,286.711 484.800 C 291.996 473.766,295.562 466.186,296.590 463.800 C 297.369 461.993,298.832 458.766,300.218 455.800 C 300.732 454.700,301.991 451.910,303.016 449.600 C 306.628 441.458,308.231 437.936,310.036 434.176 C 310.676 432.843,311.200 431.634,311.200 431.491 C 311.200 431.347,312.190 429.154,313.400 426.618 C 314.610 424.081,315.600 421.927,315.600 421.831 C 315.600 421.629,317.454 417.506,319.435 413.305 C 320.186 411.713,320.800 410.338,320.800 410.250 C 320.800 410.162,321.707 408.135,322.816 405.745 C 323.925 403.355,324.990 401.040,325.184 400.600 C 326.602 397.375,327.798 394.710,328.592 393.000 C 329.104 391.900,329.925 390.100,330.417 389.000 C 331.414 386.769,332.983 383.319,334.510 380.000 C 335.067 378.790,336.364 375.910,337.393 373.600 C 338.422 371.290,339.678 368.500,340.184 367.400 C 340.690 366.300,341.380 364.770,341.718 364.000 C 342.875 361.358,344.497 357.796,346.248 354.055 C 347.211 351.995,348.000 350.253,348.000 350.184 C 348.000 350.115,348.606 348.740,349.348 347.129 C 351.889 341.607,352.800 339.576,352.800 339.436 C 352.800 339.360,353.700 337.398,354.800 335.078 C 355.900 332.757,356.800 330.761,356.800 330.641 C 356.800 330.521,357.586 328.752,358.547 326.711 C 360.985 321.534,362.800 317.567,362.800 317.417 C 362.800 317.347,363.707 315.335,364.816 312.945 C 365.925 310.555,366.990 308.240,367.182 307.800 C 367.375 307.360,368.178 305.598,368.967 303.885 C 369.755 302.171,370.400 300.699,370.400 300.614 C 370.400 300.528,371.007 299.140,371.749 297.529 C 372.491 295.918,373.504 293.700,374.000 292.600 C 374.496 291.500,375.527 289.250,376.291 287.600 C 377.832 284.269,380.942 277.366,381.877 275.200 C 382.883 272.870,383.103 272.289,383.847 270.000 C 384.240 268.790,384.705 267.629,384.881 267.420 C 385.056 267.211,385.200 266.707,385.200 266.300 C 385.200 265.893,385.470 265.038,385.800 264.400 C 386.130 263.762,386.662 262.286,386.984 261.120 C 387.305 259.954,388.039 257.290,388.616 255.200 C 389.943 250.393,390.764 247.092,391.205 244.800 C 391.396 243.810,391.846 241.650,392.207 240.000 C 392.841 237.096,393.047 235.819,393.982 229.000 C 396.375 211.548,396.392 190.855,394.025 175.600 C 393.837 174.390,393.492 171.910,393.258 170.088 C 393.024 168.266,392.718 166.591,392.579 166.365 C 392.439 166.140,392.153 164.930,391.944 163.677 C 391.080 158.515,390.830 157.299,390.199 155.200 C 389.835 153.990,389.122 151.380,388.614 149.400 C 387.530 145.170,383.494 132.959,382.358 130.471 C 381.924 129.521,381.046 127.427,380.408 125.819 C 378.646 121.385,373.644 110.947,371.676 107.600 C 371.223 106.830,370.294 105.159,369.611 103.886 C 367.151 99.305,355.637 82.102,354.426 81.200 C 354.279 81.090,353.627 80.280,352.979 79.400 C 352.330 78.520,351.562 77.549,351.272 77.243 C 350.981 76.937,349.727 75.407,348.485 73.843 C 346.394 71.210,330.267 54.810,327.989 53.000 C 327.435 52.560,325.820 51.210,324.400 50.000 C 320.646 46.801,320.359 46.565,318.600 45.236 C 317.720 44.571,314.210 42.042,310.800 39.616 C 307.390 37.190,304.383 35.024,304.117 34.803 C 303.851 34.581,303.508 34.400,303.355 34.400 C 303.201 34.400,302.486 33.950,301.764 33.400 C 301.043 32.850,300.343 32.400,300.207 32.400 C 300.072 32.400,299.025 31.803,297.881 31.074 C 293.267 28.134,281.756 22.248,275.839 19.803 C 273.881 18.993,271.991 18.188,271.639 18.012 C 268.576 16.484,254.946 11.950,248.800 10.413 C 248.030 10.221,246.590 9.841,245.600 9.569 C 243.231 8.918,240.467 8.371,232.000 6.875 C 220.853 4.907,201.481 3.588,193.400 4.248 M217.200 30.189 C 232.647 31.769,243.361 34.041,257.200 38.673 C 265.766 41.540,278.502 47.135,285.400 51.063 C 286.940 51.940,288.650 52.911,289.200 53.221 C 292.740 55.217,300.439 60.251,304.000 62.899 C 308.003 65.875,312.772 69.553,313.200 69.994 C 313.310 70.107,314.660 71.272,316.200 72.583 C 319.791 75.638,330.885 86.631,333.101 89.329 C 334.036 90.468,335.355 92.030,336.032 92.800 C 336.709 93.570,338.001 95.190,338.903 96.400 C 339.806 97.610,340.663 98.690,340.808 98.800 C 341.259 99.142,346.400 106.378,346.400 106.671 C 346.400 106.824,346.730 107.320,347.133 107.774 C 349.363 110.287,361.200 131.496,361.200 132.979 C 361.200 133.106,361.579 134.062,362.042 135.104 C 366.635 145.441,369.780 155.123,372.533 167.400 C 378.695 194.886,377.339 230.036,369.129 255.600 C 367.285 261.341,365.816 265.634,365.227 267.000 C 365.037 267.440,364.124 269.690,363.197 272.000 C 358.058 284.816,347.688 302.618,339.549 312.600 C 325.905 329.332,314.367 339.993,298.049 350.946 C 295.546 352.626,293.428 354.000,293.341 354.000 C 293.255 354.000,292.423 354.484,291.492 355.076 C 287.006 357.929,276.454 363.449,272.200 365.169 C 271.311 365.529,270.287 365.969,267.554 367.164 C 266.538 367.608,264.648 368.350,263.354 368.814 C 262.059 369.278,260.640 369.803,260.200 369.981 C 258.036 370.856,256.049 371.555,254.600 371.951 C 253.720 372.192,251.830 372.761,250.400 373.216 C 248.970 373.670,247.080 374.200,246.200 374.392 C 245.320 374.584,243.520 375.022,242.200 375.364 C 238.877 376.226,232.784 377.461,229.200 377.999 C 227.550 378.247,225.210 378.616,224.000 378.819 C 208.509 381.421,183.668 380.622,166.000 376.954 C 157.455 375.180,142.836 371.056,138.600 369.226 C 138.160 369.036,135.280 367.835,132.200 366.558 C 126.051 364.008,115.101 358.557,111.519 356.262 C 110.265 355.458,109.145 354.800,109.032 354.800 C 108.466 354.800,93.525 344.528,92.800 343.640 C 92.690 343.506,91.880 342.863,91.000 342.211 C 85.599 338.213,72.831 326.104,68.295 320.677 C 67.363 319.562,65.957 317.918,65.171 317.025 C 63.338 314.940,56.800 306.474,56.800 306.185 C 56.800 306.065,56.110 305.029,55.267 303.883 C 53.543 301.539,49.363 295.023,47.567 291.878 C 46.095 289.301,38.400 273.793,38.400 273.405 C 38.400 273.153,37.900 271.935,36.758 269.400 C 36.189 268.137,33.548 260.727,33.194 259.400 C 33.018 258.740,32.392 256.670,31.803 254.800 C 30.578 250.912,28.920 244.648,28.417 242.000 C 28.229 241.010,27.774 238.670,27.406 236.800 C 27.038 234.930,26.584 232.140,26.396 230.600 C 26.208 229.060,25.735 225.190,25.344 222.000 C 23.757 209.023,24.610 188.426,27.374 173.000 C 28.763 165.252,33.702 147.452,35.588 143.400 C 35.793 142.960,36.785 140.551,37.794 138.046 C 40.144 132.214,44.260 123.797,47.477 118.248 C 48.865 115.855,50.000 113.740,50.000 113.548 C 50.000 113.357,50.137 113.200,50.305 113.200 C 50.473 113.200,50.788 112.862,51.005 112.450 C 52.252 110.080,53.273 108.517,56.520 104.004 C 60.433 98.564,66.538 90.862,69.204 88.000 C 81.347 74.965,91.287 66.471,104.492 57.848 C 107.732 55.731,110.474 54.000,110.585 54.000 C 110.695 54.000,111.930 53.300,113.327 52.444 C 116.829 50.301,125.468 45.966,129.761 44.198 C 131.719 43.391,133.609 42.577,133.961 42.388 C 134.312 42.200,136.400 41.391,138.600 40.590 C 140.800 39.789,143.230 38.899,144.000 38.612 C 145.326 38.117,148.270 37.223,153.200 35.817 C 156.895 34.764,158.083 34.464,161.200 33.797 C 162.850 33.444,164.920 32.993,165.800 32.794 C 167.336 32.447,172.515 31.601,178.000 30.801 C 179.430 30.592,183.120 30.230,186.200 29.996 C 189.280 29.761,192.520 29.504,193.400 29.423 C 196.595 29.129,211.541 29.610,217.200 30.189 M139.365 95.965 C 135.706 96.876,136.000 90.627,136.000 167.494 L 136.000 235.414 135.015 236.864 C 133.137 239.628,131.420 240.086,123.505 239.933 C 112.217 239.716,112.280 239.798,111.983 225.000 C 111.683 210.140,113.201 211.400,95.600 211.400 C 77.391 211.400,79.203 209.389,79.203 229.600 C 79.203 247.411,79.646 251.195,82.406 256.907 C 82.843 257.811,83.200 258.698,83.200 258.879 C 83.200 259.808,86.839 264.133,89.277 266.100 C 96.125 271.628,101.984 272.784,123.200 272.790 C 141.970 272.795,147.421 272.263,152.787 269.901 C 153.770 269.468,155.013 268.947,155.550 268.743 C 162.481 266.108,167.967 256.969,169.564 245.400 C 170.205 240.756,170.180 100.895,169.538 98.752 C 168.657 95.810,168.652 95.809,153.800 95.729 C 146.540 95.690,140.044 95.796,139.365 95.965 M192.787 95.961 C 189.360 97.054,187.948 100.802,189.173 105.554 C 189.857 108.204,190.981 113.125,192.200 118.800 C 192.936 122.228,193.224 123.512,194.440 128.800 C 194.921 130.890,195.447 133.320,195.610 134.200 C 195.772 135.080,196.218 137.150,196.600 138.800 C 196.982 140.450,197.443 142.520,197.624 143.400 C 197.805 144.280,198.137 145.810,198.361 146.800 C 198.586 147.790,199.030 149.770,199.349 151.200 C 199.668 152.630,200.236 155.150,200.612 156.800 C 200.987 158.450,201.439 160.520,201.615 161.400 C 201.791 162.280,202.226 164.260,202.582 165.800 C 202.938 167.340,203.421 169.500,203.655 170.600 C 203.889 171.700,204.224 173.230,204.399 174.000 C 204.574 174.770,205.186 177.560,205.758 180.200 C 206.700 184.546,207.493 188.094,208.396 192.000 C 208.574 192.770,208.911 194.300,209.145 195.400 C 209.379 196.500,209.851 198.660,210.193 200.200 C 210.535 201.740,210.985 203.810,211.193 204.800 C 211.401 205.790,211.862 207.860,212.218 209.400 C 212.574 210.940,213.009 212.920,213.185 213.800 C 213.361 214.680,213.816 216.750,214.197 218.400 C 215.156 222.564,215.455 223.896,215.945 226.200 C 216.454 228.592,217.280 232.307,218.212 236.400 C 218.587 238.050,219.053 240.165,219.247 241.100 C 219.977 244.617,220.339 246.279,220.968 249.000 C 221.324 250.540,221.788 252.610,222.000 253.600 C 222.212 254.590,222.665 256.660,223.008 258.200 C 223.824 261.866,224.229 263.748,224.746 266.278 C 225.966 272.242,226.521 272.528,237.400 272.800 L 245.400 273.000 245.506 284.705 L 245.612 296.411 247.406 299.209 C 248.393 300.749,249.200 302.143,249.200 302.308 C 249.200 302.473,249.650 303.093,250.200 303.687 C 250.750 304.280,251.200 304.878,251.200 305.015 C 251.200 305.815,256.772 313.443,258.152 314.532 C 260.742 316.577,264.438 317.435,266.305 316.424 C 266.687 316.217,267.481 315.948,268.069 315.824 C 269.921 315.436,276.000 308.050,276.000 306.187 C 276.000 306.076,276.464 305.250,277.030 304.352 C 277.597 303.455,278.525 301.883,279.094 300.860 C 282.421 294.871,282.632 294.914,286.170 302.297 C 286.407 302.790,286.735 303.195,286.900 303.197 C 287.065 303.199,287.200 303.457,287.200 303.771 C 287.200 304.086,287.425 304.581,287.700 304.871 C 287.975 305.162,288.733 306.435,289.384 307.700 C 290.036 308.965,290.711 310.000,290.884 310.000 C 291.058 310.000,291.203 310.315,291.206 310.700 C 291.234 313.799,301.144 318.756,302.600 316.400 C 302.736 316.180,303.199 316.000,303.629 316.000 C 305.924 316.000,308.243 313.133,316.228 300.425 L 318.600 296.651 318.722 284.825 C 318.876 269.791,318.588 268.214,316.358 271.900 C 315.859 272.725,314.404 274.981,313.125 276.913 C 311.846 278.845,310.800 280.538,310.800 280.675 C 310.800 280.812,310.350 281.514,309.800 282.236 C 309.250 282.957,308.800 283.647,308.800 283.769 C 308.800 283.891,308.542 284.308,308.226 284.695 C 307.910 285.083,306.866 286.570,305.906 288.000 C 304.946 289.430,303.764 290.778,303.280 290.995 C 302.796 291.212,302.400 291.527,302.400 291.695 C 302.400 292.252,298.143 292.010,296.881 291.381 C 295.773 290.828,293.373 287.997,292.658 286.400 C 292.510 286.070,291.846 284.900,291.182 283.800 C 290.518 282.700,289.858 281.530,289.716 281.200 C 289.574 280.870,289.355 280.510,289.229 280.400 C 289.103 280.290,288.804 279.840,288.563 279.400 C 286.202 275.072,285.431 273.781,285.140 273.667 C 284.953 273.593,284.800 273.310,284.800 273.036 C 284.800 272.276,283.048 270.800,282.146 270.800 C 281.449 270.800,279.600 272.414,279.600 273.022 C 279.600 273.141,278.997 274.182,278.259 275.334 C 277.114 277.124,275.793 279.415,273.837 283.000 C 273.596 283.440,273.297 283.890,273.171 284.000 C 273.045 284.110,272.819 284.470,272.668 284.800 C 272.362 285.471,271.107 287.479,269.600 289.710 C 269.050 290.524,268.296 291.192,267.924 291.195 C 267.552 291.198,267.136 291.380,267.000 291.600 C 266.598 292.250,262.715 292.008,261.400 291.250 C 260.060 290.478,248.800 274.113,248.800 272.939 C 248.800 272.862,250.452 272.800,252.472 272.800 C 254.491 272.800,256.724 272.590,257.434 272.333 C 258.710 271.872,260.000 272.449,260.000 273.480 C 260.000 274.863,262.538 276.800,264.351 276.800 C 266.893 276.800,267.900 275.772,271.203 269.800 C 272.516 267.427,273.039 266.503,275.282 262.600 C 275.914 261.500,276.644 260.105,276.903 259.500 C 277.163 258.895,277.516 258.400,277.688 258.400 C 277.859 258.400,278.000 258.164,278.000 257.876 C 278.000 257.091,280.367 254.823,281.478 254.545 C 282.863 254.197,284.937 255.442,285.835 257.159 C 286.249 257.952,287.176 259.536,287.894 260.681 C 288.612 261.825,289.200 262.928,289.200 263.132 C 289.200 263.335,289.470 263.726,289.800 264.000 C 290.130 264.274,290.400 264.836,290.400 265.249 C 290.400 265.662,290.535 266.001,290.700 266.003 C 290.865 266.005,291.193 266.410,291.430 266.903 C 296.056 276.555,299.477 279.052,302.982 275.337 C 303.762 274.510,304.400 273.616,304.400 273.350 C 304.400 273.084,304.539 272.807,304.709 272.733 C 304.880 272.660,306.715 269.900,308.788 266.600 C 310.861 263.300,312.702 260.540,312.879 260.467 C 313.055 260.393,313.200 260.203,313.200 260.045 C 313.200 259.886,314.364 257.977,315.787 255.804 C 318.761 251.262,318.727 250.800,315.419 250.800 C 313.376 250.800,311.739 252.135,310.757 254.600 C 310.670 254.820,309.609 256.538,308.399 258.418 C 307.190 260.298,306.020 262.127,305.800 262.482 C 303.812 265.696,300.533 270.695,300.159 271.082 C 299.576 271.685,298.932 271.019,297.374 268.200 C 296.766 267.100,295.967 265.660,295.599 265.000 C 294.604 263.214,292.335 259.114,291.837 258.200 C 291.596 257.760,291.308 257.310,291.196 257.200 C 291.084 257.090,290.638 256.325,290.205 255.500 C 289.772 254.675,289.300 254.000,289.156 254.000 C 289.011 254.000,288.806 253.665,288.698 253.255 C 288.591 252.845,287.715 251.973,286.752 251.316 C 281.969 248.059,276.940 249.920,273.561 256.200 C 272.056 258.997,271.612 259.785,268.855 264.557 C 267.725 266.514,266.800 268.183,266.800 268.265 C 266.800 269.552,264.644 271.619,263.997 270.951 C 261.668 268.549,261.300 266.790,262.247 262.600 C 262.595 261.060,263.042 259.035,263.240 258.100 C 263.438 257.165,263.762 255.635,263.960 254.700 C 264.158 253.765,264.612 251.740,264.969 250.200 C 265.325 248.660,265.772 246.680,265.962 245.800 C 266.733 242.219,268.439 234.570,269.197 231.292 C 269.641 229.371,270.176 226.990,270.386 226.000 C 270.807 224.012,271.827 219.483,272.412 217.000 C 272.778 215.448,276.205 200.023,276.812 197.200 C 276.977 196.430,277.423 194.450,277.803 192.800 C 278.184 191.150,278.639 189.080,278.815 188.200 C 278.991 187.320,279.426 185.340,279.782 183.800 C 280.138 182.260,280.621 180.100,280.855 179.000 C 281.292 176.949,281.421 176.369,282.592 171.200 C 282.966 169.550,283.724 166.130,284.277 163.600 C 285.444 158.260,285.670 157.250,286.603 153.200 C 286.984 151.550,287.439 149.480,287.615 148.600 C 287.791 147.720,288.226 145.740,288.582 144.200 C 288.938 142.660,289.421 140.500,289.655 139.400 C 290.088 137.365,290.194 136.889,291.391 131.600 C 291.765 129.950,292.426 126.980,292.860 125.000 C 293.850 120.487,295.238 114.312,296.454 109.000 C 297.989 102.302,297.586 98.100,295.260 96.519 C 294.292 95.863,293.048 95.800,281.000 95.800 C 264.456 95.800,264.673 95.733,263.648 101.200 C 262.534 107.140,262.027 109.949,261.590 112.600 C 261.336 114.140,260.965 116.120,260.765 117.000 C 260.566 117.880,260.229 119.680,260.018 121.000 C 259.585 123.703,259.108 126.327,258.199 131.000 C 257.857 132.760,257.415 135.280,257.218 136.600 C 257.021 137.920,256.559 140.530,256.192 142.400 C 255.825 144.270,255.378 146.700,255.199 147.800 C 255.021 148.900,254.675 151.036,254.432 152.546 C 254.189 154.057,253.883 155.465,253.753 155.677 C 253.622 155.888,253.340 157.263,253.126 158.731 C 252.556 162.637,252.155 164.988,251.409 168.800 C 251.043 170.670,250.585 173.190,250.392 174.400 C 250.199 175.610,249.750 178.040,249.394 179.800 C 248.727 183.098,248.331 185.419,247.631 190.116 C 247.409 191.610,247.090 193.050,246.923 193.316 C 246.755 193.582,246.479 194.835,246.309 196.100 C 246.139 197.365,245.861 199.435,245.691 200.700 C 245.521 201.965,245.245 203.218,245.077 203.484 C 244.910 203.750,244.605 205.100,244.399 206.484 C 243.271 214.069,243.008 214.844,242.615 211.737 C 242.480 210.671,242.197 209.149,241.985 208.354 C 241.773 207.558,241.600 206.241,241.600 205.427 C 241.600 204.613,241.413 203.598,241.184 203.170 C 240.955 202.743,240.586 201.180,240.364 199.697 C 239.863 196.356,239.364 193.024,238.834 189.484 C 238.610 187.990,238.289 186.550,238.120 186.284 C 237.951 186.018,237.682 184.720,237.522 183.400 C 237.186 180.622,236.690 177.600,236.013 174.200 C 235.750 172.880,235.377 170.900,235.184 169.800 C 234.615 166.561,233.584 160.755,233.194 158.600 C 232.995 157.500,232.544 154.980,232.190 153.000 C 231.837 151.020,231.379 148.749,231.174 147.954 C 230.968 147.158,230.800 146.036,230.800 145.459 C 230.800 144.883,230.625 143.644,230.411 142.706 C 229.900 140.468,229.180 136.697,228.788 134.200 C 228.397 131.711,227.813 128.381,227.015 124.100 C 226.677 122.285,226.123 119.315,225.785 117.500 C 225.447 115.685,225.006 113.210,224.805 112.000 C 224.414 109.641,223.967 107.170,223.070 102.400 C 221.787 95.577,222.397 95.822,206.400 95.719 C 199.470 95.675,193.344 95.784,192.787 95.961 M285.320 251.061 C 286.903 251.878,288.745 253.858,289.796 255.874 C 290.234 256.713,290.684 257.490,290.796 257.600 C 290.908 257.710,291.340 258.430,291.757 259.200 C 294.547 264.363,295.444 265.972,296.269 267.292 C 296.781 268.113,297.200 268.929,297.200 269.107 C 297.200 269.285,297.703 270.033,298.318 270.770 C 299.755 272.491,300.352 272.154,302.773 268.255 C 303.748 266.685,306.043 263.096,307.873 260.279 C 309.703 257.463,311.200 255.066,311.200 254.953 C 311.200 254.663,313.311 251.861,313.798 251.506 C 314.383 251.079,317.112 251.134,317.387 251.579 C 317.516 251.788,315.937 254.533,313.877 257.679 C 311.818 260.826,309.249 264.750,308.169 266.400 C 307.089 268.050,306.114 269.584,306.003 269.809 C 304.408 273.025,301.290 276.400,299.911 276.400 C 298.114 276.400,293.600 271.713,293.600 269.848 C 293.600 269.754,292.952 268.535,292.161 267.138 C 290.739 264.632,288.685 260.955,287.837 259.400 C 287.596 258.960,287.308 258.510,287.196 258.400 C 287.084 258.290,286.650 257.546,286.231 256.748 C 284.331 253.124,277.749 253.598,277.613 257.369 C 277.606 257.571,277.355 258.021,277.057 258.369 C 276.758 258.716,275.878 260.170,275.103 261.600 C 274.327 263.030,273.131 265.190,272.445 266.400 C 271.760 267.610,270.614 269.678,269.899 270.995 C 266.642 276.999,263.336 277.959,260.730 273.659 C 260.244 272.856,259.275 271.480,258.577 270.600 C 257.878 269.720,257.238 268.820,257.153 268.600 C 256.985 268.166,253.478 262.743,250.354 258.088 C 249.279 256.487,248.400 255.002,248.400 254.788 C 248.400 254.575,248.265 254.399,248.100 254.397 C 247.760 254.395,246.400 252.130,246.400 251.568 C 246.400 251.365,247.435 251.203,248.700 251.207 L 251.000 251.214 252.510 253.707 C 253.340 255.078,255.361 258.270,257.000 260.800 C 258.639 263.330,260.514 266.390,261.167 267.600 C 264.080 272.999,264.717 273.073,267.408 268.328 C 268.446 266.497,269.604 264.460,269.982 263.800 C 270.360 263.140,271.269 261.520,272.001 260.200 C 277.196 250.841,280.501 248.573,285.320 251.061 M248.327 273.409 C 248.917 274.504,249.541 275.580,249.712 275.800 C 249.884 276.020,252.050 279.278,254.524 283.041 C 260.782 292.554,260.828 292.591,266.100 292.442 C 268.177 292.384,270.057 290.407,273.362 284.805 C 274.813 282.345,276.000 280.256,276.000 280.162 C 276.000 280.068,276.900 278.555,278.000 276.800 C 279.100 275.045,280.000 273.509,280.000 273.387 C 280.000 272.533,282.063 271.043,282.701 271.436 C 283.362 271.843,285.742 275.100,286.329 276.400 C 286.570 276.934,288.691 280.623,290.434 283.539 C 290.782 284.123,291.565 285.500,292.173 286.600 C 295.306 292.267,299.865 294.260,303.605 291.597 C 304.810 290.738,316.000 274.271,316.000 273.355 C 316.000 273.229,316.341 272.693,316.757 272.163 C 317.932 270.670,318.001 271.356,317.991 284.533 L 317.982 296.600 313.403 303.800 C 305.839 315.692,305.736 315.786,300.200 315.793 C 295.258 315.799,293.738 314.538,289.603 307.000 C 288.879 305.680,287.978 304.150,287.600 303.600 C 287.223 303.050,286.843 302.420,286.757 302.200 C 285.604 299.262,282.567 295.050,281.900 295.462 C 281.576 295.662,278.800 299.892,278.800 300.185 C 278.800 300.602,271.421 312.698,270.661 313.526 C 268.299 316.100,262.405 316.713,259.317 314.706 C 257.270 313.375,253.128 307.721,248.600 300.075 C 248.380 299.704,248.110 299.310,248.000 299.200 C 246.519 297.719,246.027 289.311,246.389 271.667 C 246.410 270.660,247.256 271.420,248.327 273.409 " stroke="none" fill="#630433" fill-rule="evenodd"></path>
		<path id="path2" d="M193.400 29.423 C 192.520 29.504,189.280 29.761,186.200 29.996 C 183.120 30.230,179.430 30.592,178.000 30.801 C 172.515 31.601,167.336 32.447,165.800 32.794 C 164.920 32.993,162.850 33.444,161.200 33.797 C 158.083 34.464,156.895 34.764,153.200 35.817 C 148.270 37.223,145.326 38.117,144.000 38.612 C 143.230 38.899,140.800 39.789,138.600 40.590 C 136.400 41.391,134.312 42.200,133.961 42.388 C 133.609 42.577,131.719 43.391,129.761 44.198 C 125.468 45.966,116.829 50.301,113.327 52.444 C 111.930 53.300,110.695 54.000,110.585 54.000 C 110.474 54.000,107.732 55.731,104.492 57.848 C 91.287 66.471,81.347 74.965,69.204 88.000 C 66.538 90.862,60.433 98.564,56.520 104.004 C 53.273 108.517,52.252 110.080,51.005 112.450 C 50.788 112.862,50.473 113.200,50.305 113.200 C 50.137 113.200,50.000 113.357,50.000 113.548 C 50.000 113.740,48.865 115.855,47.477 118.248 C 44.260 123.797,40.144 132.214,37.794 138.046 C 36.785 140.551,35.793 142.960,35.588 143.400 C 33.702 147.452,28.763 165.252,27.374 173.000 C 24.610 188.426,23.757 209.023,25.344 222.000 C 25.735 225.190,26.208 229.060,26.396 230.600 C 26.584 232.140,27.038 234.930,27.406 236.800 C 27.774 238.670,28.229 241.010,28.417 242.000 C 28.920 244.648,30.578 250.912,31.803 254.800 C 32.392 256.670,33.018 258.740,33.194 259.400 C 33.548 260.727,36.189 268.137,36.758 269.400 C 37.900 271.935,38.400 273.153,38.400 273.405 C 38.400 275.480,50.634 297.586,55.267 303.883 C 56.110 305.029,56.800 306.065,56.800 306.185 C 56.800 306.474,63.338 314.940,65.171 317.025 C 65.957 317.918,67.363 319.562,68.295 320.677 C 72.831 326.104,85.599 338.213,91.000 342.211 C 91.880 342.863,92.690 343.506,92.800 343.640 C 93.525 344.528,108.466 354.800,109.032 354.800 C 109.145 354.800,110.265 355.458,111.519 356.262 C 115.101 358.557,126.051 364.008,132.200 366.558 C 135.280 367.835,138.160 369.036,138.600 369.226 C 142.836 371.056,157.455 375.180,166.000 376.954 C 183.668 380.622,208.509 381.421,224.000 378.819 C 225.210 378.616,227.550 378.247,229.200 377.999 C 232.784 377.461,238.877 376.226,242.200 375.364 C 243.520 375.022,245.320 374.584,246.200 374.392 C 247.080 374.200,248.970 373.670,250.400 373.216 C 251.830 372.761,253.720 372.192,254.600 371.951 C 256.049 371.555,258.036 370.856,260.200 369.981 C 260.640 369.803,262.059 369.278,263.354 368.814 C 264.648 368.350,266.538 367.608,267.554 367.164 C 270.287 365.969,271.311 365.529,272.200 365.169 C 276.454 363.449,287.006 357.929,291.492 355.076 C 292.423 354.484,293.255 354.000,293.341 354.000 C 293.428 354.000,295.546 352.626,298.049 350.946 C 314.367 339.993,325.905 329.332,339.549 312.600 C 347.688 302.618,358.058 284.816,363.197 272.000 C 364.124 269.690,365.037 267.440,365.227 267.000 C 365.816 265.634,367.285 261.341,369.129 255.600 C 371.979 246.727,374.457 234.226,375.712 222.400 C 376.256 217.273,376.374 193.675,375.882 188.600 C 374.451 173.859,370.953 158.294,366.129 145.200 C 364.367 140.418,363.993 139.495,362.042 135.104 C 361.579 134.062,361.200 133.106,361.200 132.979 C 361.200 131.496,349.363 110.287,347.133 107.774 C 346.730 107.320,346.400 106.824,346.400 106.671 C 346.400 106.378,341.259 99.142,340.808 98.800 C 340.663 98.690,339.806 97.610,338.903 96.400 C 338.001 95.190,336.709 93.570,336.032 92.800 C 335.355 92.030,334.036 90.468,333.101 89.329 C 330.885 86.631,319.791 75.638,316.200 72.583 C 314.660 71.272,313.310 70.107,313.200 69.994 C 312.772 69.553,308.003 65.875,304.000 62.899 C 300.439 60.251,292.740 55.217,289.200 53.221 C 288.650 52.911,286.940 51.940,285.400 51.063 C 268.854 41.642,245.745 33.929,225.800 31.170 C 216.390 29.868,198.850 28.922,193.400 29.423 M168.038 96.506 C 170.058 97.878,170.000 95.667,170.003 171.246 C 170.005 243.246,169.975 244.887,168.525 251.200 C 166.802 258.699,160.869 266.721,155.550 268.743 C 155.013 268.947,153.770 269.468,152.787 269.901 C 147.421 272.263,141.970 272.795,123.200 272.790 C 101.984 272.784,96.125 271.628,89.277 266.100 C 86.839 264.133,83.200 259.808,83.200 258.879 C 83.200 258.698,82.843 257.811,82.406 256.907 C 79.646 251.195,79.203 247.411,79.203 229.600 C 79.203 209.389,77.391 211.400,95.600 211.400 C 113.201 211.400,111.683 210.140,111.983 225.000 C 112.280 239.798,112.217 239.716,123.505 239.933 C 131.420 240.086,133.137 239.628,135.015 236.864 L 136.000 235.414 136.000 167.494 C 136.000 90.627,135.706 96.876,139.365 95.965 C 142.137 95.275,166.915 95.742,168.038 96.506 M220.317 96.519 C 221.042 96.915,221.830 97.725,222.070 98.319 C 222.528 99.456,223.677 105.201,224.805 112.000 C 225.006 113.210,225.447 115.685,225.785 117.500 C 226.123 119.315,226.677 122.285,227.015 124.100 C 227.813 128.381,228.397 131.711,228.788 134.200 C 229.180 136.697,229.900 140.468,230.411 142.706 C 230.625 143.644,230.800 144.883,230.800 145.459 C 230.800 146.036,230.968 147.158,231.174 147.954 C 231.379 148.749,231.837 151.020,232.190 153.000 C 232.544 154.980,232.995 157.500,233.194 158.600 C 233.584 160.755,234.615 166.561,235.184 169.800 C 235.377 170.900,235.750 172.880,236.013 174.200 C 236.690 177.600,237.186 180.622,237.522 183.400 C 237.682 184.720,237.951 186.018,238.120 186.284 C 238.289 186.550,238.610 187.990,238.834 189.484 C 239.364 193.024,239.863 196.356,240.364 199.697 C 240.586 201.180,240.955 202.743,241.184 203.170 C 241.413 203.598,241.600 204.613,241.600 205.427 C 241.600 206.241,241.773 207.558,241.985 208.354 C 242.197 209.149,242.480 210.671,242.615 211.737 C 243.008 214.844,243.271 214.069,244.399 206.484 C 244.605 205.100,244.910 203.750,245.077 203.484 C 245.245 203.218,245.521 201.965,245.691 200.700 C 245.861 199.435,246.139 197.365,246.309 196.100 C 246.479 194.835,246.755 193.582,246.923 193.316 C 247.090 193.050,247.409 191.610,247.631 190.116 C 248.331 185.419,248.727 183.098,249.394 179.800 C 249.750 178.040,250.199 175.610,250.392 174.400 C 250.585 173.190,251.043 170.670,251.409 168.800 C 252.155 164.988,252.556 162.637,253.126 158.731 C 253.340 157.263,253.622 155.888,253.753 155.677 C 253.883 155.465,254.189 154.057,254.432 152.546 C 254.675 151.036,255.021 148.900,255.199 147.800 C 255.378 146.700,255.825 144.270,256.192 142.400 C 256.559 140.530,257.021 137.920,257.218 136.600 C 257.415 135.280,257.857 132.760,258.199 131.000 C 259.108 126.327,259.585 123.703,260.018 121.000 C 260.229 119.680,260.566 117.880,260.765 117.000 C 260.965 116.120,261.336 114.140,261.590 112.600 C 262.027 109.949,262.534 107.140,263.648 101.200 C 264.673 95.733,264.456 95.800,281.000 95.800 C 298.590 95.800,299.333 96.434,296.454 109.000 C 295.238 114.312,293.850 120.487,292.860 125.000 C 292.426 126.980,291.765 129.950,291.391 131.600 C 290.194 136.889,290.088 137.365,289.655 139.400 C 289.421 140.500,288.938 142.660,288.582 144.200 C 288.226 145.740,287.791 147.720,287.615 148.600 C 287.439 149.480,286.984 151.550,286.603 153.200 C 285.670 157.250,285.444 158.260,284.277 163.600 C 283.724 166.130,282.966 169.550,282.592 171.200 C 281.421 176.369,281.292 176.949,280.855 179.000 C 280.621 180.100,280.138 182.260,279.782 183.800 C 279.426 185.340,278.991 187.320,278.815 188.200 C 278.639 189.080,278.184 191.150,277.803 192.800 C 277.423 194.450,276.977 196.430,276.812 197.200 C 276.205 200.023,272.778 215.448,272.412 217.000 C 271.827 219.483,270.807 224.012,270.386 226.000 C 270.176 226.990,269.641 229.371,269.197 231.292 C 268.439 234.570,266.733 242.219,265.962 245.800 C 265.772 246.680,265.325 248.660,264.969 250.200 C 264.612 251.740,264.158 253.765,263.960 254.700 C 263.762 255.635,263.438 257.165,263.240 258.100 C 263.042 259.035,262.595 261.060,262.247 262.600 C 261.300 266.790,261.668 268.549,263.997 270.951 C 264.644 271.619,266.800 269.552,266.800 268.265 C 266.800 268.183,267.725 266.514,268.855 264.557 C 271.612 259.785,272.056 258.997,273.561 256.200 C 276.940 249.920,281.969 248.059,286.752 251.316 C 287.715 251.973,288.591 252.845,288.698 253.255 C 288.806 253.665,289.011 254.000,289.156 254.000 C 289.300 254.000,289.772 254.675,290.205 255.500 C 290.638 256.325,291.084 257.090,291.196 257.200 C 291.308 257.310,291.596 257.760,291.837 258.200 C 292.335 259.114,294.604 263.214,295.599 265.000 C 295.967 265.660,296.766 267.100,297.374 268.200 C 298.932 271.019,299.576 271.685,300.159 271.082 C 300.533 270.695,303.812 265.696,305.800 262.482 C 306.020 262.127,307.190 260.298,308.399 258.418 C 309.609 256.538,310.670 254.820,310.757 254.600 C 311.739 252.135,313.376 250.800,315.419 250.800 C 318.727 250.800,318.761 251.262,315.787 255.804 C 314.364 257.977,313.200 259.886,313.200 260.045 C 313.200 260.203,313.055 260.393,312.879 260.467 C 312.702 260.540,310.861 263.300,308.788 266.600 C 306.715 269.900,304.880 272.660,304.709 272.733 C 304.539 272.807,304.400 273.084,304.400 273.350 C 304.400 273.616,303.762 274.510,302.982 275.337 C 299.477 279.052,296.056 276.555,291.430 266.903 C 291.193 266.410,290.865 266.005,290.700 266.003 C 290.535 266.001,290.400 265.662,290.400 265.249 C 290.400 264.836,290.130 264.274,289.800 264.000 C 289.470 263.726,289.200 263.335,289.200 263.132 C 289.200 262.928,288.612 261.825,287.894 260.681 C 287.176 259.536,286.249 257.952,285.835 257.159 C 284.937 255.442,282.863 254.197,281.478 254.545 C 280.367 254.823,278.000 257.091,278.000 257.876 C 278.000 258.164,277.859 258.400,277.688 258.400 C 277.516 258.400,277.163 258.895,276.903 259.500 C 276.644 260.105,275.914 261.500,275.282 262.600 C 273.039 266.503,272.516 267.427,271.203 269.800 C 267.900 275.772,266.893 276.800,264.351 276.800 C 262.538 276.800,260.000 274.863,260.000 273.480 C 260.000 272.449,258.710 271.872,257.434 272.333 C 256.724 272.590,254.491 272.800,252.472 272.800 C 250.452 272.800,248.800 272.862,248.800 272.939 C 248.800 274.113,260.060 290.478,261.400 291.250 C 262.715 292.008,266.598 292.250,267.000 291.600 C 267.136 291.380,267.552 291.198,267.924 291.195 C 268.296 291.192,269.050 290.524,269.600 289.710 C 271.107 287.479,272.362 285.471,272.668 284.800 C 272.819 284.470,273.045 284.110,273.171 284.000 C 273.297 283.890,273.596 283.440,273.837 283.000 C 275.793 279.415,277.114 277.124,278.259 275.334 C 278.997 274.182,279.600 273.141,279.600 273.022 C 279.600 272.414,281.449 270.800,282.146 270.800 C 283.048 270.800,284.800 272.276,284.800 273.036 C 284.800 273.310,284.953 273.593,285.140 273.667 C 285.431 273.781,286.202 275.072,288.563 279.400 C 288.804 279.840,289.103 280.290,289.229 280.400 C 289.355 280.510,289.574 280.870,289.716 281.200 C 289.858 281.530,290.518 282.700,291.182 283.800 C 291.846 284.900,292.510 286.070,292.658 286.400 C 293.373 287.997,295.773 290.828,296.881 291.381 C 298.143 292.010,302.400 292.252,302.400 291.695 C 302.400 291.527,302.796 291.212,303.280 290.995 C 303.764 290.778,304.946 289.430,305.906 288.000 C 306.866 286.570,307.910 285.083,308.226 284.695 C 308.542 284.308,308.800 283.891,308.800 283.769 C 308.800 283.647,309.250 282.957,309.800 282.236 C 310.350 281.514,310.800 280.812,310.800 280.675 C 310.800 280.538,311.846 278.845,313.125 276.913 C 314.404 274.981,315.859 272.725,316.358 271.900 C 318.588 268.214,318.876 269.791,318.722 284.825 L 318.600 296.651 316.228 300.425 C 308.243 313.133,305.924 316.000,303.629 316.000 C 303.199 316.000,302.736 316.180,302.600 316.400 C 301.144 318.756,291.234 313.799,291.206 310.700 C 291.203 310.315,291.058 310.000,290.884 310.000 C 290.711 310.000,290.036 308.965,289.384 307.700 C 288.733 306.435,287.975 305.162,287.700 304.871 C 287.425 304.581,287.200 304.086,287.200 303.771 C 287.200 303.457,287.065 303.199,286.900 303.197 C 286.735 303.195,286.407 302.790,286.170 302.297 C 282.632 294.914,282.421 294.871,279.094 300.860 C 278.525 301.883,277.597 303.455,277.030 304.352 C 276.464 305.250,276.000 306.076,276.000 306.187 C 276.000 308.050,269.921 315.436,268.069 315.824 C 267.481 315.948,266.687 316.217,266.305 316.424 C 264.438 317.435,260.742 316.577,258.152 314.532 C 256.772 313.443,251.200 305.815,251.200 305.015 C 251.200 304.878,250.750 304.280,250.200 303.687 C 249.650 303.093,249.200 302.473,249.200 302.308 C 249.200 302.143,248.393 300.749,247.406 299.209 L 245.612 296.411 245.506 284.705 L 245.400 273.000 237.400 272.800 C 226.521 272.528,225.966 272.242,224.746 266.278 C 224.229 263.748,223.824 261.866,223.008 258.200 C 222.665 256.660,222.212 254.590,222.000 253.600 C 221.788 252.610,221.324 250.540,220.968 249.000 C 220.339 246.279,219.977 244.617,219.247 241.100 C 219.053 240.165,218.587 238.050,218.212 236.400 C 217.280 232.307,216.454 228.592,215.945 226.200 C 215.455 223.896,215.156 222.564,214.197 218.400 C 213.816 216.750,213.361 214.680,213.185 213.800 C 213.009 212.920,212.574 210.940,212.218 209.400 C 211.862 207.860,211.401 205.790,211.193 204.800 C 210.985 203.810,210.535 201.740,210.193 200.200 C 209.851 198.660,209.379 196.500,209.145 195.400 C 208.911 194.300,208.574 192.770,208.396 192.000 C 207.493 188.094,206.700 184.546,205.758 180.200 C 205.186 177.560,204.574 174.770,204.399 174.000 C 204.224 173.230,203.889 171.700,203.655 170.600 C 203.421 169.500,202.938 167.340,202.582 165.800 C 202.226 164.260,201.791 162.280,201.615 161.400 C 201.439 160.520,200.987 158.450,200.612 156.800 C 200.236 155.150,199.668 152.630,199.349 151.200 C 199.030 149.770,198.586 147.790,198.361 146.800 C 198.137 145.810,197.805 144.280,197.624 143.400 C 197.443 142.520,196.982 140.450,196.600 138.800 C 196.218 137.150,195.772 135.080,195.610 134.200 C 195.447 133.320,194.921 130.890,194.440 128.800 C 193.224 123.512,192.936 122.228,192.200 118.800 C 190.981 113.125,189.857 108.204,189.173 105.554 C 187.948 100.802,189.360 97.054,192.787 95.961 C 195.012 95.252,218.883 95.736,220.317 96.519 " stroke="none" fill="#ffffff" fill-rule="evenodd"></path>
		<path id="path3" d="M184.200 4.486 C 182.000 4.687,178.670 5.102,176.800 5.408 C 173.063 6.020,173.644 5.992,184.200 5.052 C 188.160 4.700,192.300 4.351,193.400 4.278 C 194.500 4.204,193.780 4.139,191.800 4.132 C 189.820 4.125,186.400 4.285,184.200 4.486 M209.400 4.383 C 215.518 4.877,223.013 5.196,219.200 4.799 C 217.550 4.628,213.770 4.391,210.800 4.273 C 206.040 4.085,205.874 4.098,209.400 4.383 M223.800 5.600 C 224.460 5.768,225.540 5.906,226.200 5.907 C 227.209 5.908,227.145 5.855,225.800 5.577 C 223.774 5.158,222.137 5.177,223.800 5.600 M169.200 6.400 C 168.228 6.711,168.233 6.720,169.400 6.720 C 170.060 6.720,171.050 6.576,171.600 6.400 C 172.572 6.089,172.567 6.080,171.400 6.080 C 170.740 6.080,169.750 6.224,169.200 6.400 M229.800 6.400 C 230.460 6.568,231.360 6.714,231.800 6.725 L 232.600 6.744 231.800 6.400 C 231.360 6.211,230.460 6.065,229.800 6.075 L 228.600 6.095 229.800 6.400 M165.122 7.011 C 165.006 7.128,164.121 7.392,163.155 7.599 L 161.400 7.976 163.200 7.795 C 164.190 7.696,165.720 7.452,166.600 7.253 L 168.200 6.892 166.767 6.846 C 165.978 6.821,165.238 6.895,165.122 7.011 M234.600 7.220 C 235.480 7.437,237.010 7.693,238.000 7.789 L 239.800 7.963 238.200 7.612 C 237.320 7.419,235.790 7.164,234.800 7.044 L 233.000 6.826 234.600 7.220 M159.200 8.400 C 158.405 8.914,159.404 8.914,160.600 8.400 L 161.400 8.056 160.600 8.034 C 160.160 8.022,159.530 8.187,159.200 8.400 M240.400 8.400 C 240.730 8.613,241.360 8.778,241.800 8.766 L 242.600 8.744 241.800 8.400 C 240.604 7.886,239.605 7.886,240.400 8.400 M155.000 9.308 C 152.635 9.910,149.916 10.884,151.400 10.598 C 154.012 10.093,155.846 9.637,156.800 9.253 C 158.063 8.745,157.096 8.775,155.000 9.308 M244.400 9.218 C 244.950 9.459,246.120 9.809,247.000 9.997 C 247.880 10.186,249.050 10.448,249.600 10.581 L 250.600 10.823 249.600 10.362 C 249.050 10.109,247.970 9.767,247.200 9.603 C 246.430 9.439,245.260 9.187,244.600 9.043 C 243.457 8.794,243.448 8.802,244.400 9.218 M251.800 11.200 C 252.996 11.714,253.995 11.714,253.200 11.200 C 252.870 10.987,252.240 10.822,251.800 10.834 L 251.000 10.856 251.800 11.200 M142.800 12.693 C 139.319 13.862,137.181 14.778,137.905 14.791 C 138.183 14.796,138.723 14.633,139.105 14.429 C 139.487 14.225,141.510 13.520,143.600 12.862 C 145.690 12.204,147.040 11.670,146.600 11.675 C 146.160 11.681,144.450 12.139,142.800 12.693 M255.146 12.216 C 255.886 12.537,256.786 12.786,257.146 12.770 C 257.506 12.753,257.170 12.497,256.400 12.200 C 254.505 11.470,253.459 11.483,255.146 12.216 M258.000 12.965 C 258.000 13.200,263.262 14.872,263.439 14.694 C 263.579 14.555,258.769 12.800,258.247 12.800 C 258.111 12.800,258.000 12.874,258.000 12.965 M134.200 15.669 C 133.100 16.112,131.772 16.644,131.248 16.852 C 130.725 17.060,130.392 17.326,130.509 17.443 C 130.626 17.560,131.055 17.471,131.461 17.244 C 131.867 17.018,133.325 16.442,134.700 15.963 C 136.075 15.484,137.200 15.027,137.200 14.946 C 137.200 14.636,136.122 14.896,134.200 15.669 M267.146 16.216 C 267.886 16.537,268.696 16.793,268.946 16.784 C 269.196 16.776,268.794 16.506,268.054 16.184 C 267.314 15.863,266.504 15.607,266.254 15.616 C 266.004 15.624,266.406 15.894,267.146 16.216 M127.800 18.214 C 127.140 18.517,126.870 18.766,127.200 18.768 C 127.530 18.770,128.250 18.514,128.800 18.200 C 130.065 17.477,129.389 17.487,127.800 18.214 M271.820 17.961 C 272.029 18.159,273.743 18.955,275.629 19.729 C 277.514 20.503,280.201 21.691,281.600 22.369 C 282.998 23.046,284.240 23.600,284.360 23.600 C 284.984 23.600,282.478 22.318,278.200 20.448 C 275.560 19.294,273.087 18.181,272.705 17.975 C 271.823 17.498,271.324 17.490,271.820 17.961 M121.424 21.013 C 120.425 21.768,120.795 21.763,122.254 21.002 C 122.884 20.674,123.130 20.410,122.800 20.415 C 122.470 20.421,121.851 20.690,121.424 21.013 M118.800 22.233 C 118.242 22.543,118.065 22.785,118.400 22.781 C 118.730 22.778,119.349 22.510,119.776 22.187 C 120.739 21.459,120.145 21.487,118.800 22.233 M114.085 24.471 C 113.142 24.929,112.435 25.369,112.515 25.449 C 112.695 25.628,116.000 24.056,116.000 23.791 C 116.000 23.537,116.046 23.521,114.085 24.471 M284.800 23.788 C 284.800 23.881,285.663 24.391,286.718 24.921 C 290.363 26.752,295.807 29.753,297.881 31.074 C 299.025 31.803,300.072 32.400,300.207 32.400 C 300.343 32.400,301.043 32.850,301.764 33.400 C 302.486 33.950,303.221 34.400,303.398 34.400 C 303.575 34.400,302.975 33.860,302.063 33.200 C 301.152 32.540,300.319 32.000,300.211 32.000 C 300.104 32.000,299.067 31.399,297.908 30.664 C 296.748 29.929,294.000 28.373,291.800 27.207 C 289.600 26.040,287.620 24.967,287.400 24.821 C 286.719 24.371,284.800 23.608,284.800 23.788 M109.600 26.800 C 109.600 27.020,109.285 27.214,108.900 27.232 C 108.499 27.250,108.409 27.348,108.690 27.461 C 108.959 27.571,109.584 27.376,110.079 27.030 C 110.814 26.515,110.852 26.400,110.289 26.400 C 109.910 26.400,109.600 26.580,109.600 26.800 M105.400 29.162 C 104.740 29.550,103.300 30.363,102.200 30.968 C 101.100 31.574,99.930 32.359,99.600 32.713 C 99.067 33.285,99.067 33.308,99.600 32.921 C 100.261 32.441,102.578 31.123,104.902 29.905 C 105.728 29.471,106.504 28.956,106.626 28.759 C 106.913 28.294,106.830 28.321,105.400 29.162 M95.500 35.011 C 94.015 35.988,92.800 36.879,92.800 36.991 C 92.800 37.157,98.195 33.865,98.767 33.350 C 99.592 32.606,97.668 33.585,95.500 35.011 M304.833 35.330 C 304.925 35.401,305.630 35.866,306.400 36.363 L 307.800 37.266 306.600 36.235 C 305.940 35.668,305.235 35.203,305.033 35.202 C 304.832 35.201,304.742 35.258,304.833 35.330 M88.800 39.606 C 86.930 40.923,84.906 42.316,84.303 42.700 C 83.699 43.085,83.204 43.558,83.203 43.751 C 83.201 43.944,83.785 43.633,84.500 43.059 C 85.215 42.485,87.285 41.021,89.100 39.805 C 91.887 37.939,92.824 37.177,92.300 37.205 C 92.245 37.208,90.670 38.288,88.800 39.606 M308.000 37.341 C 308.000 37.508,310.522 39.354,314.800 42.318 L 316.200 43.289 315.000 42.237 C 313.528 40.946,308.000 37.080,308.000 37.341 M316.552 43.509 C 316.910 44.104,321.028 47.200,321.462 47.200 C 321.624 47.200,320.957 46.621,319.979 45.913 C 319.000 45.205,318.110 44.530,318.000 44.413 C 317.366 43.738,316.284 43.063,316.552 43.509 M80.573 45.521 C 74.065 50.290,62.108 61.378,54.781 69.439 C 51.128 73.458,47.085 78.404,47.472 78.379 C 47.653 78.368,49.060 76.808,50.600 74.911 C 55.550 68.816,64.841 59.209,70.169 54.675 C 71.252 53.754,73.070 52.171,74.209 51.159 C 75.347 50.146,77.341 48.526,78.639 47.559 C 81.080 45.740,83.139 43.987,82.796 44.018 C 82.688 44.028,81.688 44.704,80.573 45.521 M323.600 49.214 C 326.643 52.032,329.557 54.421,328.879 53.542 C 328.601 53.181,326.984 51.767,325.286 50.401 C 323.589 49.035,322.830 48.501,323.600 49.214 M330.400 54.861 C 330.400 54.954,334.135 58.817,338.700 63.446 C 343.265 68.075,347.990 73.149,349.200 74.722 C 350.410 76.295,351.570 77.585,351.778 77.591 C 351.987 77.596,351.612 77.015,350.946 76.300 C 350.279 75.585,349.332 74.460,348.841 73.800 C 347.962 72.619,340.773 64.762,338.778 62.804 C 334.640 58.739,330.400 54.720,330.400 54.861 M353.038 79.400 C 353.663 80.280,354.611 81.450,355.143 82.000 L 356.112 83.000 355.266 81.800 C 354.800 81.140,353.852 79.970,353.160 79.200 L 351.901 77.800 353.038 79.400 M45.499 80.500 C 43.204 83.381,40.986 86.580,41.508 86.257 C 41.781 86.088,42.721 84.927,43.598 83.675 C 44.474 82.424,45.666 80.815,46.247 80.100 C 46.827 79.385,47.202 78.800,47.078 78.800 C 46.955 78.800,46.244 79.565,45.499 80.500 M356.800 84.400 C 357.270 85.060,357.744 85.600,357.854 85.600 C 357.964 85.600,357.670 85.060,357.200 84.400 C 356.730 83.740,356.256 83.200,356.146 83.200 C 356.036 83.200,356.330 83.740,356.800 84.400 M358.800 87.200 C 359.270 87.860,359.744 88.400,359.854 88.400 C 359.964 88.400,359.670 87.860,359.200 87.200 C 358.730 86.540,358.256 86.000,358.146 86.000 C 358.036 86.000,358.330 86.540,358.800 87.200 M39.871 88.100 C 39.338 88.815,38.204 90.480,37.352 91.800 C 36.500 93.120,35.627 94.325,35.413 94.478 C 35.198 94.631,35.127 94.860,35.254 94.987 C 35.380 95.114,36.760 93.324,38.320 91.009 C 41.056 86.947,41.872 85.418,39.871 88.100 M361.141 90.500 C 361.855 91.545,362.514 92.400,362.606 92.400 C 362.921 92.400,361.159 89.664,360.501 89.132 C 360.140 88.839,360.428 89.455,361.141 90.500 M32.742 99.100 C 31.523 101.025,29.929 103.680,29.199 105.000 C 26.356 110.142,25.508 111.785,25.897 111.400 C 26.119 111.180,26.746 110.190,27.289 109.200 C 29.766 104.685,31.081 102.413,32.614 100.000 C 34.437 97.130,35.299 95.600,35.093 95.600 C 35.019 95.600,33.961 97.175,32.742 99.100 M366.031 97.927 C 366.740 99.067,367.394 100.000,367.485 100.000 C 367.773 100.000,365.853 96.776,365.285 96.304 C 364.987 96.057,365.322 96.787,366.031 97.927 M369.802 104.303 C 370.399 105.460,371.051 106.508,371.252 106.632 C 371.664 106.887,369.713 103.216,369.109 102.600 C 368.893 102.380,369.204 103.147,369.802 104.303 M374.108 112.176 C 374.808 113.593,375.439 114.695,375.509 114.624 C 375.716 114.417,373.428 109.618,373.117 109.609 C 372.962 109.604,373.408 110.759,374.108 112.176 M24.885 112.813 C 24.618 113.240,24.401 113.817,24.402 114.095 C 24.404 114.373,24.677 114.078,25.010 113.440 C 25.703 112.111,25.611 111.650,24.885 112.813 M375.693 115.400 C 375.808 115.620,376.372 116.835,376.946 118.100 C 377.520 119.365,378.079 120.400,378.190 120.400 C 378.487 120.400,376.429 115.865,375.920 115.400 C 375.628 115.133,375.553 115.133,375.693 115.400 M22.462 118.062 C 21.977 118.970,21.662 119.795,21.762 119.895 C 21.862 119.995,22.315 119.309,22.769 118.369 C 23.840 116.152,23.606 115.918,22.462 118.062 M20.885 121.213 C 20.618 121.640,20.407 122.217,20.416 122.495 C 20.425 122.773,20.709 122.489,21.047 121.865 C 21.750 120.568,21.618 120.038,20.885 121.213 M378.414 121.024 C 378.439 121.694,379.572 123.430,379.573 122.800 C 379.574 122.470,379.310 121.851,378.987 121.424 C 378.664 120.996,378.406 120.816,378.414 121.024 M18.855 126.255 C 18.165 127.948,17.666 129.399,17.746 129.479 C 17.826 129.559,18.456 128.239,19.145 126.545 C 19.835 124.852,20.334 123.401,20.254 123.321 C 20.174 123.241,19.544 124.561,18.855 126.255 M379.687 124.034 C 381.402 128.376,382.133 130.000,382.301 129.833 C 382.412 129.722,382.128 128.834,381.670 127.860 C 381.212 126.885,380.719 125.617,380.574 125.040 C 380.430 124.464,380.121 123.875,379.888 123.731 C 379.637 123.576,379.555 123.700,379.687 124.034 M16.085 132.973 C 15.386 134.508,15.492 135.217,16.213 133.833 C 16.548 133.191,16.765 132.496,16.696 132.288 C 16.627 132.080,16.352 132.388,16.085 132.973 M383.234 132.400 C 383.237 133.139,384.322 135.577,384.368 134.946 C 384.385 134.696,384.137 133.886,383.816 133.146 C 383.494 132.406,383.232 132.070,383.234 132.400 M384.412 136.000 C 384.412 136.330,384.587 136.870,384.800 137.200 C 385.145 137.733,385.188 137.733,385.188 137.200 C 385.188 136.870,385.013 136.330,384.800 136.000 C 384.455 135.467,384.412 135.467,384.412 136.000 M14.109 138.687 C 12.445 143.335,11.876 145.158,11.763 146.200 C 11.692 146.860,11.725 147.040,11.837 146.600 C 11.949 146.160,12.197 145.440,12.387 145.000 C 12.577 144.560,13.042 143.210,13.421 142.000 C 13.799 140.790,14.295 139.395,14.522 138.901 C 14.749 138.406,14.838 137.905,14.721 137.788 C 14.604 137.670,14.328 138.075,14.109 138.687 M385.216 138.254 C 385.207 138.504,385.463 139.314,385.784 140.054 C 386.106 140.794,386.376 141.196,386.384 140.946 C 386.393 140.696,386.137 139.886,385.816 139.146 C 385.494 138.406,385.224 138.004,385.216 138.254 M386.400 141.906 C 386.400 142.074,386.760 143.196,387.200 144.400 C 387.640 145.604,388.014 146.951,388.032 147.394 C 388.051 147.881,388.148 147.988,388.276 147.666 C 388.482 147.150,386.922 141.600,386.572 141.600 C 386.477 141.600,386.400 141.738,386.400 141.906 M11.029 148.629 C 10.881 149.215,10.838 149.772,10.932 149.866 C 11.027 149.960,11.224 149.558,11.371 148.971 C 11.519 148.385,11.562 147.828,11.468 147.734 C 11.373 147.640,11.176 148.042,11.029 148.629 M388.456 148.800 C 388.456 149.130,388.611 149.760,388.800 150.200 C 389.017 150.704,389.144 150.778,389.144 150.400 C 389.144 150.070,388.989 149.440,388.800 149.000 C 388.583 148.496,388.456 148.422,388.456 148.800 M9.810 153.072 C 8.845 157.012,8.691 158.027,9.336 156.200 C 10.247 153.617,10.927 150.794,10.694 150.561 C 10.575 150.442,10.177 151.572,9.810 153.072 M389.219 151.681 C 389.209 152.056,389.362 152.776,389.560 153.281 C 389.758 153.787,390.130 154.983,390.388 155.939 C 390.645 156.895,390.949 157.584,391.064 157.469 C 391.179 157.354,391.078 156.661,390.839 155.930 C 390.601 155.198,390.143 153.790,389.822 152.800 C 389.501 151.810,389.230 151.307,389.219 151.681 M8.229 159.829 C 8.081 160.415,8.051 160.984,8.161 161.094 C 8.271 161.204,8.481 160.815,8.629 160.229 C 8.776 159.642,8.806 159.073,8.696 158.963 C 8.586 158.853,8.376 159.242,8.229 159.829 M391.246 160.000 C 391.227 160.550,391.387 161.270,391.600 161.600 C 392.094 162.364,392.094 161.542,391.600 160.000 L 391.280 159.000 391.246 160.000 M7.300 164.224 C 6.627 167.488,6.712 168.322,7.442 165.607 C 7.766 164.401,7.979 163.051,7.916 162.607 C 7.852 162.163,7.575 162.891,7.300 164.224 M392.056 163.400 C 392.032 164.060,392.283 165.410,392.615 166.400 C 393.244 168.281,393.243 168.268,392.401 163.800 C 392.138 162.403,392.095 162.352,392.056 163.400 M6.182 170.182 C 6.029 171.202,5.994 172.127,6.104 172.237 C 6.214 172.347,6.429 171.602,6.582 170.582 C 6.735 169.561,6.770 168.637,6.660 168.527 C 6.550 168.417,6.335 169.161,6.182 170.182 M393.268 170.600 C 393.287 172.511,393.917 174.219,393.932 172.400 C 393.938 171.630,393.789 170.640,393.600 170.200 C 393.308 169.521,393.258 169.581,393.268 170.600 M5.467 175.547 C 5.298 176.727,5.247 177.781,5.354 177.888 C 5.649 178.182,6.090 175.436,5.922 174.352 C 5.832 173.770,5.655 174.234,5.467 175.547 M394.247 176.400 C 394.378 177.610,394.618 180.040,394.780 181.800 L 395.076 185.000 395.106 182.400 C 395.123 180.970,394.883 178.540,394.573 177.000 C 394.064 174.470,394.032 174.412,394.247 176.400 M4.702 181.600 C 4.059 188.921,4.016 191.550,4.623 186.400 C 4.948 183.650,5.165 180.680,5.106 179.800 C 5.039 178.788,4.890 179.449,4.702 181.600 M395.485 190.000 C 395.603 192.750,395.766 195.075,395.849 195.167 C 396.120 195.466,395.929 189.455,395.596 187.200 C 395.382 185.747,395.344 186.699,395.485 190.000 M3.767 201.800 C 3.767 205.980,3.826 207.636,3.898 205.479 C 3.971 203.323,3.970 199.903,3.898 197.879 C 3.825 195.856,3.766 197.620,3.767 201.800 M396.148 202.400 C 396.148 204.710,396.214 205.655,396.295 204.500 C 396.376 203.345,396.376 201.455,396.295 200.300 C 396.214 199.145,396.148 200.090,396.148 202.400 M395.680 211.000 C 395.633 212.540,395.511 215.060,395.408 216.600 C 395.230 219.281,395.239 219.318,395.626 217.468 C 395.848 216.406,395.970 213.886,395.898 211.868 C 395.778 208.531,395.758 208.453,395.680 211.000 M4.086 215.400 C 4.071 216.500,4.203 218.210,4.380 219.200 L 4.700 221.000 4.710 219.400 C 4.716 218.520,4.584 216.810,4.417 215.600 L 4.113 213.400 4.086 215.400 M394.854 221.723 C 394.825 222.561,394.606 224.494,394.370 226.019 C 394.133 227.544,394.009 229.108,394.094 229.496 C 394.321 230.531,395.306 222.307,395.091 221.168 C 394.965 220.496,394.892 220.667,394.854 221.723 M4.931 223.800 C 4.933 225.340,5.005 225.921,5.092 225.091 C 5.179 224.261,5.177 223.001,5.089 222.291 C 5.000 221.581,4.929 222.260,4.931 223.800 M5.469 229.000 C 5.596 230.320,5.768 231.475,5.850 231.567 C 6.141 231.890,5.916 228.586,5.579 227.600 C 5.358 226.952,5.320 227.445,5.469 229.000 M393.489 232.000 C 393.336 232.550,393.225 233.450,393.242 234.000 C 393.268 234.861,393.326 234.814,393.658 233.660 C 393.870 232.924,393.981 232.024,393.906 231.660 C 393.808 231.194,393.686 231.293,393.489 232.000 M6.068 233.200 C 6.062 233.750,6.211 234.560,6.400 235.000 L 6.744 235.800 6.732 235.000 C 6.726 234.560,6.576 233.750,6.400 233.200 L 6.080 232.200 6.068 233.200 M392.493 238.567 C 391.822 241.787,391.917 242.704,392.642 240.007 C 392.966 238.801,393.176 237.451,393.108 237.007 C 393.041 236.563,392.764 237.265,392.493 238.567 M6.868 237.800 C 6.850 238.460,7.101 239.900,7.425 241.000 C 7.952 242.787,7.989 242.830,7.769 241.400 C 7.198 237.695,6.902 236.514,6.868 237.800 M391.473 242.953 C 391.323 243.345,391.211 243.966,391.225 244.333 C 391.242 244.775,391.381 244.674,391.637 244.034 C 391.849 243.503,391.961 242.882,391.885 242.654 C 391.809 242.427,391.624 242.561,391.473 242.953 M8.034 243.600 C 8.046 243.930,8.211 244.560,8.400 245.000 L 8.744 245.800 8.766 245.000 C 8.778 244.560,8.613 243.930,8.400 243.600 C 8.055 243.067,8.015 243.067,8.034 243.600 M390.849 246.400 C 390.816 246.730,390.689 247.450,390.567 248.000 C 390.375 248.864,390.407 248.903,390.799 248.288 C 391.048 247.897,391.175 247.177,391.081 246.688 C 390.986 246.200,390.882 246.070,390.849 246.400 M8.972 247.600 C 9.319 250.450,11.129 257.004,11.474 256.659 C 11.584 256.549,11.306 255.231,10.854 253.729 C 10.403 252.228,9.757 249.920,9.418 248.600 C 9.079 247.280,8.878 246.830,8.972 247.600 M389.909 250.200 C 389.197 253.476,389.180 253.824,389.809 252.200 C 390.150 251.320,390.370 250.240,390.299 249.800 C 390.202 249.197,390.106 249.295,389.909 250.200 M277.962 251.700 C 276.330 252.948,274.874 255.025,272.001 260.200 C 271.269 261.520,270.360 263.140,269.982 263.800 C 269.604 264.460,268.446 266.497,267.408 268.328 C 264.717 273.073,264.080 272.999,261.167 267.600 C 260.514 266.390,258.639 263.330,257.000 260.800 C 255.361 258.270,253.340 255.078,252.510 253.707 L 251.000 251.214 248.700 251.207 C 247.435 251.203,246.400 251.365,246.400 251.568 C 246.400 252.130,247.760 254.395,248.100 254.397 C 248.265 254.399,248.400 254.575,248.400 254.788 C 248.400 255.002,249.279 256.487,250.354 258.088 C 253.478 262.743,256.985 268.166,257.153 268.600 C 257.238 268.820,257.878 269.720,258.577 270.600 C 259.275 271.480,260.244 272.856,260.730 273.659 C 263.336 277.959,266.642 276.999,269.899 270.995 C 270.614 269.678,271.760 267.610,272.445 266.400 C 273.131 265.190,274.327 263.030,275.103 261.600 C 275.878 260.170,276.758 258.716,277.057 258.369 C 277.355 258.021,277.606 257.571,277.613 257.369 C 277.749 253.598,284.331 253.124,286.231 256.748 C 286.650 257.546,287.084 258.290,287.196 258.400 C 287.308 258.510,287.596 258.960,287.837 259.400 C 288.685 260.955,290.739 264.632,292.161 267.138 C 292.952 268.535,293.600 269.754,293.600 269.848 C 293.600 271.713,298.114 276.400,299.911 276.400 C 301.290 276.400,304.408 273.025,306.003 269.809 C 306.114 269.584,307.089 268.050,308.169 266.400 C 309.249 264.750,311.818 260.826,313.877 257.679 C 315.937 254.533,317.516 251.788,317.387 251.579 C 317.112 251.134,314.383 251.079,313.798 251.506 C 313.311 251.861,311.200 254.663,311.200 254.953 C 311.200 255.066,309.703 257.463,307.873 260.279 C 306.043 263.096,303.748 266.685,302.773 268.255 C 300.352 272.154,299.755 272.491,298.318 270.770 C 297.703 270.033,297.200 269.285,297.200 269.107 C 297.200 268.929,296.781 268.113,296.269 267.292 C 295.444 265.972,294.547 264.363,291.757 259.200 C 291.340 258.430,290.908 257.710,290.796 257.600 C 290.684 257.490,290.234 256.713,289.796 255.874 C 287.049 250.606,281.809 248.758,277.962 251.700 M388.629 255.029 C 388.481 255.615,388.451 256.184,388.561 256.294 C 388.671 256.404,388.881 256.015,389.029 255.429 C 389.176 254.842,389.206 254.273,389.096 254.163 C 388.986 254.053,388.776 254.442,388.629 255.029 M387.699 258.390 C 386.996 260.642,387.113 261.358,387.843 259.273 C 388.176 258.323,388.392 257.376,388.323 257.169 C 388.254 256.961,387.973 257.511,387.699 258.390 M11.641 257.854 C 11.618 258.324,11.880 259.314,12.222 260.054 C 12.837 261.385,12.804 261.097,12.011 258.200 C 11.762 257.294,11.672 257.209,11.641 257.854 M12.821 261.747 C 12.777 262.480,14.584 267.247,14.735 266.796 C 14.822 266.535,14.709 265.934,14.483 265.461 C 14.258 264.987,13.796 263.880,13.457 263.000 C 13.119 262.120,12.832 261.556,12.821 261.747 M385.637 264.711 C 385.353 265.398,385.214 266.193,385.328 266.480 C 385.446 266.774,385.551 266.644,385.568 266.180 C 385.586 265.729,385.800 265.160,386.045 264.915 C 386.290 264.670,386.414 264.243,386.322 263.966 C 386.230 263.689,385.921 264.024,385.637 264.711 M15.624 269.600 C 15.617 269.930,15.871 270.920,16.188 271.800 C 16.505 272.680,16.770 273.130,16.776 272.800 C 16.783 272.470,16.529 271.480,16.212 270.600 C 15.895 269.720,15.630 269.270,15.624 269.600 M383.670 270.370 C 383.006 272.274,383.114 272.870,383.826 271.230 C 384.153 270.477,384.357 269.672,384.280 269.441 C 384.203 269.210,383.929 269.629,383.670 270.370 M246.389 271.667 C 246.027 289.311,246.519 297.719,248.000 299.200 C 248.110 299.310,248.380 299.704,248.600 300.075 C 253.128 307.721,257.270 313.375,259.317 314.706 C 262.405 316.713,268.299 316.100,270.661 313.526 C 271.421 312.698,278.800 300.602,278.800 300.185 C 278.800 299.892,281.576 295.662,281.900 295.462 C 282.567 295.050,285.604 299.262,286.757 302.200 C 286.843 302.420,287.223 303.050,287.600 303.600 C 287.978 304.150,288.879 305.680,289.603 307.000 C 293.738 314.538,295.258 315.799,300.200 315.793 C 305.736 315.786,305.839 315.692,313.403 303.800 L 317.982 296.600 317.991 284.533 C 318.001 271.356,317.932 270.670,316.757 272.163 C 316.341 272.693,316.000 273.229,316.000 273.355 C 316.000 274.271,304.810 290.738,303.605 291.597 C 299.865 294.260,295.306 292.267,292.173 286.600 C 291.565 285.500,290.782 284.123,290.434 283.539 C 288.691 280.623,286.570 276.934,286.329 276.400 C 285.742 275.100,283.362 271.843,282.701 271.436 C 282.063 271.043,280.000 272.533,280.000 273.387 C 280.000 273.509,279.100 275.045,278.000 276.800 C 276.900 278.555,276.000 280.068,276.000 280.162 C 276.000 280.860,270.406 289.594,269.162 290.838 C 266.688 293.312,262.296 293.142,259.612 290.467 C 259.289 290.145,256.999 286.803,254.524 283.041 C 252.050 279.278,249.884 276.020,249.712 275.800 C 249.541 275.580,248.917 274.504,248.327 273.409 C 247.256 271.420,246.410 270.660,246.389 271.667 M17.613 275.254 C 17.606 275.394,17.869 276.024,18.198 276.654 C 18.526 277.284,18.796 277.519,18.798 277.176 C 18.800 276.590,17.640 274.708,17.613 275.254 M378.890 281.890 C 377.527 284.890,376.473 287.407,376.549 287.482 C 376.625 287.558,377.804 285.168,379.170 282.170 C 380.536 279.172,381.589 276.656,381.511 276.578 C 381.433 276.499,380.253 278.890,378.890 281.890 M19.651 279.871 C 21.702 284.421,22.784 286.567,22.792 286.097 C 22.796 285.820,22.369 284.740,21.843 283.697 C 21.317 282.654,20.565 281.026,20.173 280.081 C 19.782 279.135,19.308 278.267,19.122 278.152 C 18.935 278.036,19.173 278.810,19.651 279.871 M375.656 288.845 C 375.454 289.370,374.753 290.970,374.098 292.400 C 373.442 293.830,372.541 295.810,372.095 296.800 C 371.650 297.790,370.724 299.843,370.039 301.363 C 369.354 302.883,368.879 304.213,368.985 304.319 C 369.091 304.424,369.343 304.081,369.544 303.555 C 369.746 303.030,370.447 301.430,371.102 300.000 C 371.758 298.570,372.702 296.500,373.200 295.400 C 373.698 294.300,374.630 292.253,375.271 290.851 C 375.911 289.449,376.343 288.209,376.229 288.096 C 376.115 287.982,375.857 288.319,375.656 288.845 M23.600 288.733 C 23.600 288.917,23.735 289.202,23.900 289.367 C 24.065 289.531,24.505 290.416,24.878 291.333 C 25.250 292.250,25.565 292.719,25.578 292.375 C 25.590 292.031,25.236 290.996,24.791 290.075 C 24.019 288.479,23.600 288.006,23.600 288.733 M26.421 294.467 C 26.381 294.972,28.020 298.513,28.207 298.326 C 28.311 298.223,27.955 297.252,27.418 296.169 C 26.881 295.086,26.433 294.320,26.421 294.467 M28.428 299.000 C 28.428 299.220,28.686 299.850,29.000 300.400 C 29.314 300.950,29.572 301.220,29.572 301.000 C 29.572 300.780,29.314 300.150,29.000 299.600 C 28.686 299.050,28.428 298.780,28.428 299.000 M30.400 303.725 C 30.400 304.111,32.361 307.728,32.379 307.375 C 32.404 306.861,30.860 303.600,30.591 303.600 C 30.486 303.600,30.400 303.656,30.400 303.725 M368.085 305.613 C 367.818 306.040,367.607 306.617,367.616 306.895 C 367.625 307.173,367.909 306.889,368.247 306.265 C 368.950 304.968,368.818 304.438,368.085 305.613 M32.400 308.132 C 32.400 308.205,32.849 309.150,33.398 310.232 C 34.587 312.575,34.756 312.087,33.591 309.675 C 32.907 308.259,32.400 307.603,32.400 308.132 M366.085 310.173 C 365.415 311.644,365.478 311.952,366.230 310.879 C 366.576 310.384,366.795 309.784,366.715 309.544 C 366.635 309.305,366.352 309.588,366.085 310.173 M363.399 316.092 C 361.305 320.791,360.300 322.997,358.795 326.200 C 356.831 330.378,355.957 332.491,356.125 332.658 C 356.199 332.733,356.685 331.850,357.205 330.697 C 357.725 329.544,358.846 327.070,359.697 325.200 C 360.549 323.330,361.489 321.260,361.787 320.600 C 362.086 319.940,362.894 318.163,363.583 316.651 C 364.272 315.139,364.764 313.831,364.676 313.743 C 364.588 313.655,364.014 314.712,363.399 316.092 M35.200 314.129 C 35.200 314.284,35.359 314.723,35.553 315.105 C 35.748 315.487,36.138 316.295,36.421 316.899 C 36.703 317.504,37.027 317.906,37.141 317.793 C 37.254 317.679,37.134 317.374,36.873 317.113 C 36.613 316.853,36.394 316.361,36.387 316.020 C 36.375 315.424,35.200 313.552,35.200 314.129 M37.200 318.631 C 37.200 318.856,37.348 319.211,37.528 319.420 C 37.709 319.629,38.370 321.060,38.998 322.600 C 40.152 325.431,41.200 327.320,41.200 326.569 C 41.200 326.344,41.048 325.989,40.862 325.780 C 40.677 325.571,40.012 324.140,39.384 322.600 C 38.224 319.752,37.200 317.891,37.200 318.631 M42.015 329.200 C 42.021 329.530,42.290 330.149,42.613 330.576 C 43.368 331.575,43.363 331.205,42.602 329.746 C 42.274 329.116,42.010 328.870,42.015 329.200 M44.000 333.659 C 44.000 334.129,45.960 337.748,45.979 337.312 C 45.991 337.044,45.621 336.144,45.157 335.312 C 44.276 333.731,44.000 333.337,44.000 333.659 M353.608 337.695 C 352.884 339.293,351.771 341.749,351.134 343.154 C 350.497 344.559,350.043 345.777,350.126 345.860 C 350.209 345.942,350.869 344.703,351.592 343.105 C 352.316 341.507,353.429 339.051,354.066 337.646 C 354.703 336.241,355.157 335.023,355.074 334.940 C 354.991 334.858,354.331 336.097,353.608 337.695 M46.000 338.125 C 46.000 338.236,46.570 339.472,48.615 343.800 C 48.927 344.460,49.186 344.773,49.191 344.495 C 49.201 343.951,46.423 338.000,46.159 338.000 C 46.072 338.000,46.000 338.056,46.000 338.125 M348.286 349.483 C 347.948 350.318,346.958 352.530,346.085 354.400 C 345.212 356.270,344.095 358.700,343.602 359.800 C 343.109 360.900,342.367 362.509,341.953 363.375 C 341.539 364.241,341.205 365.141,341.210 365.375 C 341.223 365.899,342.665 362.912,346.386 354.656 C 347.958 351.167,349.167 348.234,349.073 348.139 C 348.978 348.044,348.624 348.649,348.286 349.483 M50.818 348.700 C 50.845 349.144,52.761 352.652,52.782 352.296 C 52.805 351.905,51.162 348.400,50.956 348.400 C 50.870 348.400,50.808 348.535,50.818 348.700 M52.821 353.025 C 52.792 353.607,54.415 356.919,54.625 356.708 C 54.719 356.615,54.355 355.652,53.818 354.569 C 53.281 353.486,52.833 352.791,52.821 353.025 M54.821 357.267 C 54.781 357.772,56.420 361.313,56.607 361.126 C 56.711 361.023,56.355 360.052,55.818 358.969 C 55.281 357.886,54.833 357.120,54.821 357.267 M56.846 361.800 C 56.851 362.390,58.728 366.274,58.767 365.775 C 58.785 365.541,58.359 364.461,57.821 363.375 C 57.283 362.289,56.844 361.580,56.846 361.800 M59.775 368.582 C 60.864 371.044,61.570 372.340,61.588 371.910 C 61.606 371.465,59.236 366.400,59.010 366.400 C 58.900 366.400,59.244 367.382,59.775 368.582 M338.865 370.217 C 338.195 371.688,338.323 372.002,339.047 370.665 C 339.386 370.040,339.588 369.454,339.496 369.363 C 339.405 369.271,339.121 369.656,338.865 370.217 M61.600 372.529 C 61.600 372.684,61.767 373.123,61.970 373.505 C 62.174 373.887,62.893 375.370,63.567 376.800 C 64.241 378.230,64.794 379.185,64.796 378.921 C 64.798 378.658,64.350 377.596,63.800 376.562 C 63.250 375.527,62.794 374.483,62.787 374.240 C 62.773 373.760,61.600 372.069,61.600 372.529 M336.267 376.067 C 335.681 377.424,335.266 378.599,335.344 378.678 C 335.423 378.756,335.968 377.711,336.556 376.356 C 337.143 375.000,337.559 373.825,337.478 373.745 C 337.398 373.664,336.852 374.709,336.267 376.067 M332.996 383.292 C 332.380 384.671,331.339 386.930,330.682 388.311 C 330.026 389.692,329.572 390.905,329.674 391.008 C 329.777 391.110,330.280 390.250,330.792 389.097 C 331.305 387.944,332.348 385.687,333.111 384.083 C 333.874 382.478,334.413 381.079,334.308 380.974 C 334.203 380.869,333.613 381.912,332.996 383.292 M65.600 381.329 C 65.600 381.484,65.759 381.923,65.953 382.305 C 66.148 382.687,66.538 383.495,66.821 384.099 C 67.103 384.704,67.427 385.106,67.541 384.993 C 67.654 384.879,67.534 384.574,67.273 384.313 C 67.013 384.053,66.794 383.561,66.787 383.220 C 66.775 382.624,65.600 380.752,65.600 381.329 M68.400 387.458 C 68.400 387.953,69.958 391.200,70.195 391.200 C 70.378 391.200,68.884 387.551,68.575 387.242 C 68.479 387.145,68.400 387.243,68.400 387.458 M70.426 391.839 C 70.412 392.080,70.656 392.800,70.969 393.439 C 71.282 394.077,72.100 395.837,72.787 397.349 C 73.474 398.861,74.118 400.016,74.218 399.915 C 74.318 399.815,73.809 398.488,73.087 396.966 C 72.365 395.445,71.476 393.570,71.113 392.800 C 70.749 392.030,70.440 391.597,70.426 391.839 M327.629 395.029 C 327.148 396.051,326.840 396.973,326.944 397.077 C 327.048 397.181,327.510 396.414,327.971 395.371 C 329.063 392.903,328.767 392.607,327.629 395.029 M326.085 398.413 C 325.818 398.840,325.607 399.417,325.616 399.695 C 325.625 399.973,325.909 399.689,326.247 399.065 C 326.950 397.768,326.818 397.238,326.085 398.413 M74.400 400.932 C 74.400 401.005,74.849 401.950,75.398 403.032 C 76.587 405.375,76.756 404.887,75.591 402.475 C 74.907 401.059,74.400 400.403,74.400 400.932 M324.065 403.017 C 323.395 404.488,323.523 404.802,324.247 403.465 C 324.586 402.840,324.788 402.254,324.696 402.163 C 324.605 402.071,324.321 402.456,324.065 403.017 M321.692 408.186 C 320.496 410.647,320.568 411.023,321.817 408.837 C 322.371 407.868,322.771 406.912,322.704 406.713 C 322.638 406.513,322.182 407.176,321.692 408.186 M77.200 406.878 C 77.200 407.005,77.469 407.624,77.798 408.254 C 78.126 408.884,78.390 409.130,78.385 408.800 C 78.379 408.470,78.110 407.851,77.787 407.424 C 77.464 406.996,77.200 406.751,77.200 406.878 M319.686 412.686 C 319.212 413.715,318.886 414.619,318.961 414.694 C 319.036 414.769,319.491 413.994,319.971 412.971 C 320.452 411.949,320.778 411.045,320.696 410.963 C 320.614 410.881,320.159 411.656,319.686 412.686 M80.012 413.028 C 79.999 413.509,82.340 418.356,82.377 417.924 C 82.389 417.772,81.865 416.512,81.212 415.124 C 80.558 413.736,80.018 412.793,80.012 413.028 M318.150 415.843 C 318.003 416.259,317.523 417.410,317.085 418.400 C 315.263 422.513,314.788 423.721,314.936 423.869 C 315.022 423.955,315.330 423.435,315.621 422.713 C 315.912 421.991,316.756 420.074,317.496 418.454 C 318.236 416.833,318.746 415.413,318.630 415.297 C 318.514 415.180,318.298 415.426,318.150 415.843 M84.015 422.000 C 84.021 422.330,84.290 422.949,84.613 423.376 C 85.368 424.375,85.363 424.005,84.602 422.546 C 84.274 421.916,84.010 421.670,84.015 422.000 M312.799 427.851 C 311.914 429.748,311.082 431.730,310.951 432.254 C 310.819 432.779,310.551 433.306,310.356 433.427 C 310.160 433.548,310.000 433.857,310.000 434.113 C 310.000 434.798,310.971 433.240,311.691 431.400 C 312.299 429.845,314.320 425.304,314.672 424.700 C 314.768 424.535,314.748 424.400,314.628 424.400 C 314.507 424.400,313.684 425.953,312.799 427.851 M86.015 426.305 C 86.007 426.583,86.179 427.123,86.397 427.505 C 86.859 428.314,89.608 434.394,90.380 436.313 C 90.670 437.035,90.976 437.558,91.059 437.474 C 91.238 437.296,90.388 435.144,88.820 431.800 C 88.200 430.480,87.319 428.590,86.861 427.600 C 86.404 426.610,86.023 426.027,86.015 426.305 M309.172 435.848 C 308.920 436.482,308.541 437.333,308.329 437.739 C 308.118 438.145,308.017 438.550,308.105 438.638 C 308.193 438.727,308.497 438.304,308.779 437.699 C 309.062 437.095,309.465 436.267,309.674 435.861 C 309.884 435.455,309.960 435.026,309.843 434.909 C 309.726 434.792,309.424 435.215,309.172 435.848 M306.086 442.686 C 305.612 443.715,305.299 444.632,305.390 444.723 C 305.480 444.814,305.948 444.051,306.429 443.029 C 306.909 442.006,307.223 441.089,307.125 440.991 C 307.027 440.894,306.559 441.656,306.086 442.686 M303.058 449.458 C 302.018 451.792,301.232 453.765,301.310 453.843 C 301.388 453.921,302.302 452.076,303.342 449.742 C 304.382 447.408,305.168 445.435,305.090 445.357 C 305.012 445.279,304.098 447.124,303.058 449.458 M94.802 445.825 C 94.799 446.437,96.423 449.710,96.628 449.506 C 96.722 449.411,96.350 448.449,95.801 447.367 C 95.252 446.285,94.803 445.591,94.802 445.825 M96.821 450.225 C 96.792 450.807,98.415 454.119,98.625 453.908 C 98.719 453.815,98.355 452.852,97.818 451.769 C 97.281 450.686,96.833 449.991,96.821 450.225 M98.827 454.503 C 98.787 454.957,102.789 463.737,103.247 464.200 C 103.465 464.420,103.361 463.970,103.017 463.200 C 102.672 462.430,102.116 461.170,101.780 460.400 C 100.591 457.673,98.854 454.204,98.827 454.503 M300.028 456.036 C 299.573 456.979,299.209 457.941,299.221 458.175 C 299.233 458.409,299.681 457.714,300.218 456.631 C 300.755 455.548,301.119 454.585,301.025 454.492 C 300.932 454.399,300.483 455.094,300.028 456.036 M298.028 460.436 C 296.850 462.875,297.002 463.398,298.201 461.033 C 298.750 459.951,299.122 458.989,299.028 458.894 C 298.933 458.800,298.483 459.494,298.028 460.436 M103.630 465.200 C 103.628 465.776,104.757 468.066,104.786 467.546 C 104.794 467.406,104.537 466.686,104.216 465.946 C 103.894 465.206,103.631 464.870,103.630 465.200 M295.286 466.686 C 294.812 467.715,294.486 468.619,294.561 468.694 C 294.636 468.769,295.091 467.994,295.571 466.971 C 296.052 465.949,296.378 465.045,296.296 464.963 C 296.214 464.881,295.759 465.656,295.286 466.686 M105.679 470.009 C 106.139 471.115,106.602 471.932,106.709 471.825 C 106.915 471.618,105.318 468.000,105.020 468.000 C 104.923 468.000,105.220 468.904,105.679 470.009 M293.685 470.013 C 293.418 470.440,293.201 471.017,293.202 471.295 C 293.204 471.573,293.477 471.278,293.810 470.640 C 294.503 469.311,294.411 468.850,293.685 470.013 M290.581 476.658 C 289.372 479.221,288.454 481.388,288.541 481.474 C 288.694 481.627,289.290 480.447,291.705 475.200 C 292.364 473.770,292.980 472.465,293.075 472.300 C 293.170 472.135,293.142 472.000,293.013 472.000 C 292.884 472.000,291.789 474.096,290.581 476.658 M107.600 474.096 C 107.600 474.513,109.340 477.593,109.491 477.442 C 109.573 477.361,109.251 476.598,108.777 475.747 C 107.851 474.087,107.600 473.735,107.600 474.096 M109.600 478.125 C 109.600 478.511,111.561 482.128,111.579 481.775 C 111.604 481.261,110.060 478.000,109.791 478.000 C 109.686 478.000,109.600 478.056,109.600 478.125 M285.434 487.434 C 283.588 491.255,283.017 493.125,284.688 489.879 C 286.315 486.718,287.595 483.861,287.449 483.715 C 287.368 483.635,286.462 485.309,285.434 487.434 M112.400 484.036 C 112.400 484.411,114.011 487.600,114.201 487.600 C 114.301 487.600,114.170 487.105,113.910 486.500 C 113.401 485.318,112.400 483.684,112.400 484.036 M114.400 488.078 C 114.400 488.205,114.669 488.824,114.998 489.454 C 115.326 490.084,115.590 490.330,115.585 490.000 C 115.579 489.670,115.310 489.051,114.987 488.624 C 114.664 488.196,114.400 487.951,114.400 488.078 M282.428 493.636 C 281.973 494.579,281.609 495.541,281.621 495.775 C 281.633 496.009,282.081 495.314,282.618 494.231 C 283.155 493.148,283.519 492.185,283.425 492.092 C 283.332 491.999,282.883 492.694,282.428 493.636 M116.400 492.458 C 116.400 492.943,118.078 496.055,118.248 495.886 C 118.353 495.780,118.051 494.998,117.577 494.147 C 116.677 492.533,116.400 492.136,116.400 492.458 M118.400 496.459 C 118.400 496.929,120.360 500.548,120.379 500.112 C 120.391 499.844,120.021 498.944,119.557 498.112 C 118.676 496.531,118.400 496.137,118.400 496.459 M280.026 498.876 C 279.361 500.237,278.896 501.430,278.992 501.525 C 279.087 501.621,279.645 500.642,280.231 499.349 C 280.817 498.057,281.376 496.865,281.472 496.700 C 281.568 496.535,281.554 496.400,281.440 496.400 C 281.327 496.400,280.690 497.514,280.026 498.876 M120.400 500.932 C 120.400 501.005,120.849 501.950,121.398 503.032 C 122.587 505.375,122.756 504.887,121.591 502.475 C 120.907 501.059,120.400 500.403,120.400 500.932 M277.296 504.483 C 276.634 505.867,275.690 507.900,275.198 509.000 C 274.707 510.100,274.226 511.135,274.129 511.300 C 274.032 511.465,274.064 511.600,274.199 511.600 C 274.335 511.600,275.055 510.263,275.800 508.628 C 276.545 506.993,277.523 504.892,277.974 503.958 C 278.425 503.025,278.728 502.195,278.647 502.114 C 278.566 502.033,277.958 503.099,277.296 504.483 M123.281 506.991 C 123.759 507.976,124.219 508.714,124.303 508.630 C 124.484 508.449,122.868 505.200,122.597 505.200 C 122.494 505.200,122.802 506.006,123.281 506.991 M125.200 510.858 C 125.200 511.343,126.878 514.455,127.048 514.286 C 127.153 514.180,126.851 513.398,126.377 512.547 C 125.477 510.933,125.200 510.536,125.200 510.858 M273.089 513.286 C 272.751 514.009,271.846 515.950,271.079 517.600 C 270.312 519.250,268.385 523.300,266.797 526.600 C 265.209 529.900,263.027 534.490,261.948 536.800 C 260.869 539.110,259.797 541.333,259.565 541.739 C 259.334 542.145,259.223 542.556,259.319 542.652 C 259.496 542.829,260.416 541.025,262.919 535.600 C 263.680 533.950,265.578 529.962,267.136 526.738 C 271.993 516.691,274.020 512.286,273.859 512.126 C 273.774 512.041,273.428 512.563,273.089 513.286 M127.214 514.899 C 127.190 515.412,129.672 520.461,129.857 520.276 C 129.953 520.180,129.401 518.863,128.630 517.351 C 127.858 515.838,127.221 514.735,127.214 514.899 M130.000 520.878 C 130.000 521.005,130.269 521.624,130.598 522.254 C 130.926 522.884,131.190 523.130,131.185 522.800 C 131.179 522.470,130.910 521.851,130.587 521.424 C 130.264 520.996,130.000 520.751,130.000 520.878 M131.328 523.900 C 131.424 524.065,131.983 525.257,132.569 526.549 C 133.155 527.842,133.713 528.821,133.808 528.725 C 134.013 528.520,131.663 523.600,131.360 523.600 C 131.246 523.600,131.232 523.735,131.328 523.900 M134.000 529.258 C 134.000 529.743,135.678 532.855,135.848 532.686 C 135.953 532.580,135.651 531.798,135.177 530.947 C 134.277 529.333,134.000 528.936,134.000 529.258 M136.021 533.304 C 135.990 533.759,137.679 537.254,137.849 537.085 C 137.929 537.004,137.555 536.052,137.018 534.969 C 136.481 533.886,136.033 533.137,136.021 533.304 M138.800 539.271 C 138.800 539.695,141.951 545.782,141.973 545.400 C 141.986 545.180,141.350 543.740,140.561 542.200 C 139.152 539.450,138.800 538.864,138.800 539.271 M258.031 544.831 C 257.577 545.770,257.282 546.615,257.375 546.708 C 257.468 546.801,257.915 546.109,258.369 545.169 C 258.823 544.230,259.118 543.385,259.025 543.292 C 258.932 543.199,258.485 543.891,258.031 544.831 M256.086 549.086 C 255.612 550.115,255.286 551.019,255.361 551.094 C 255.436 551.169,255.891 550.394,256.371 549.371 C 256.852 548.349,257.178 547.445,257.096 547.363 C 257.014 547.281,256.559 548.056,256.086 549.086 M142.828 547.800 C 142.828 548.020,143.086 548.650,143.400 549.200 C 143.714 549.750,143.972 550.020,143.972 549.800 C 143.972 549.580,143.714 548.950,143.400 548.400 C 143.086 547.850,142.828 547.580,142.828 547.800 M144.928 552.300 C 145.024 552.465,145.572 553.635,146.146 554.900 C 146.720 556.165,147.292 557.200,147.418 557.200 C 147.544 557.200,147.568 557.065,147.472 556.900 C 147.376 556.735,146.828 555.565,146.254 554.300 C 145.680 553.035,145.108 552.000,144.982 552.000 C 144.856 552.000,144.832 552.135,144.928 552.300 M253.393 554.686 C 253.002 555.519,252.169 557.266,251.542 558.568 C 250.916 559.870,250.484 561.017,250.584 561.117 C 250.683 561.216,251.326 560.061,252.013 558.549 C 252.700 557.037,253.519 555.276,253.833 554.635 C 254.147 553.994,254.336 553.403,254.254 553.321 C 254.172 553.239,253.785 553.853,253.393 554.686 M147.604 557.805 C 147.602 558.028,148.315 559.558,149.189 561.205 C 150.064 562.852,150.777 564.020,150.774 563.800 C 150.768 563.263,147.608 557.289,147.604 557.805 M249.092 563.687 C 246.822 568.415,246.411 569.345,246.540 569.473 C 246.614 569.548,247.519 567.873,248.552 565.752 C 249.584 563.631,250.356 561.823,250.268 561.734 C 250.179 561.646,249.650 562.524,249.092 563.687 M151.621 566.104 C 151.590 566.559,153.279 570.054,153.449 569.885 C 153.529 569.804,153.155 568.852,152.618 567.769 C 152.081 566.686,151.633 565.937,151.621 566.104 M153.671 570.700 C 156.279 576.400,159.291 582.443,159.446 582.287 C 159.531 582.202,158.893 580.707,158.027 578.966 C 157.161 577.225,155.903 574.585,155.231 573.100 C 154.559 571.615,153.902 570.400,153.771 570.400 C 153.640 570.400,153.595 570.535,153.671 570.700 M242.831 576.831 C 241.448 579.701,240.393 582.126,240.486 582.219 C 240.579 582.312,241.768 580.021,243.128 577.128 C 244.489 574.235,245.544 571.811,245.473 571.740 C 245.403 571.669,244.213 573.960,242.831 576.831 M238.431 586.031 C 237.360 588.248,237.594 588.482,238.738 586.338 C 239.223 585.430,239.538 584.605,239.438 584.505 C 239.338 584.405,238.885 585.091,238.431 586.031 M161.215 586.400 C 161.221 586.730,161.490 587.349,161.813 587.776 C 162.568 588.775,162.563 588.405,161.802 586.946 C 161.474 586.316,161.210 586.070,161.215 586.400 M236.605 589.727 C 236.272 590.524,235.279 592.651,234.398 594.453 C 233.517 596.255,232.864 597.797,232.946 597.879 C 233.028 597.961,233.416 597.347,233.808 596.514 C 234.200 595.681,235.215 593.576,236.062 591.835 C 236.910 590.094,237.515 588.582,237.407 588.474 C 237.299 588.366,236.938 588.929,236.605 589.727 M163.200 590.555 C 163.200 591.017,166.884 598.449,167.038 598.296 C 167.138 598.195,166.873 597.413,166.449 596.557 C 166.026 595.700,165.182 593.965,164.574 592.700 C 163.597 590.666,163.200 590.046,163.200 590.555 M231.672 600.043 C 231.192 600.941,230.808 601.884,230.819 602.138 C 230.829 602.392,231.291 601.727,231.846 600.661 C 232.401 599.594,232.785 598.652,232.699 598.566 C 232.613 598.480,232.151 599.145,231.672 600.043 M167.200 598.836 C 167.200 599.211,168.811 602.400,169.001 602.400 C 169.101 602.400,168.970 601.905,168.710 601.300 C 168.201 600.118,167.200 598.484,167.200 598.836 M169.221 602.904 C 169.190 603.359,170.879 606.854,171.049 606.685 C 171.129 606.604,170.755 605.652,170.218 604.569 C 169.681 603.486,169.233 602.737,169.221 602.904 M229.257 605.257 C 228.975 605.709,228.832 606.166,228.940 606.273 C 229.047 606.381,229.344 606.078,229.600 605.600 C 230.205 604.470,229.924 604.190,229.257 605.257 M227.290 609.301 C 225.217 613.498,222.770 618.904,222.890 619.023 C 222.970 619.104,224.167 616.820,225.549 613.949 C 226.930 611.077,227.987 608.654,227.898 608.564 C 227.808 608.475,227.535 608.806,227.290 609.301 M172.028 609.000 C 172.028 609.220,172.286 609.850,172.600 610.400 C 172.914 610.950,173.172 611.220,173.172 611.000 C 173.172 610.780,172.914 610.150,172.600 609.600 C 172.286 609.050,172.028 608.780,172.028 609.000 M173.225 611.800 C 173.225 612.020,173.490 612.549,173.813 612.976 C 174.136 613.404,174.400 613.573,174.400 613.353 C 174.400 613.133,174.136 612.604,173.813 612.176 C 173.490 611.749,173.225 611.580,173.225 611.800 M176.079 617.609 C 176.539 618.715,177.002 619.532,177.109 619.425 C 177.315 619.218,175.718 615.600,175.420 615.600 C 175.323 615.600,175.620 616.504,176.079 617.609 M219.237 626.220 C 217.897 629.014,216.800 631.384,216.800 631.486 C 216.800 632.093,213.298 636.509,211.970 637.576 C 207.228 641.387,201.761 642.620,195.000 641.403 C 194.340 641.284,194.610 641.457,195.600 641.788 C 203.380 644.382,213.202 639.442,217.470 630.787 C 220.953 623.725,221.995 621.462,221.837 621.304 C 221.747 621.214,220.577 623.426,219.237 626.220 M178.000 621.696 C 178.000 622.113,179.740 625.193,179.891 625.042 C 179.973 624.961,179.651 624.198,179.177 623.347 C 178.251 621.687,178.000 621.335,178.000 621.696 M180.814 627.424 C 180.839 628.094,181.972 629.830,181.973 629.200 C 181.974 628.870,181.710 628.251,181.387 627.824 C 181.064 627.396,180.806 627.216,180.814 627.424 M182.025 630.200 C 182.025 630.420,182.290 630.949,182.613 631.376 C 182.936 631.804,183.200 631.973,183.200 631.753 C 183.200 631.533,182.936 631.004,182.613 630.576 C 182.290 630.149,182.025 629.980,182.025 630.200 M184.711 634.673 C 186.373 637.012,191.273 640.860,191.851 640.282 C 191.949 640.184,191.347 639.783,190.514 639.391 C 189.681 638.998,187.831 637.490,186.403 636.038 C 184.975 634.587,184.214 633.973,184.711 634.673 " stroke="none" fill="#ea6b2b" fill-rule="evenodd"></path>
	</g>
</svg>