<svg id="svg" version="1.1" xmlns="http://www.w3.org/2000/svg" xmlns:xlink="http://www.w3.org/1999/xlink" width="40" height="63.7" viewBox="0, 0, 400,637.2881355932204">
	<g id="svgg">
		<path id="path0" d="M189.128 2.205 C 189.015 2.318,186.734 2.577,184.058 2.780 C 175.379 3.438,162.614 5.616,154.600 7.805 C 153.280 8.165,151.570 8.608,150.800 8.788 C 148.516 9.324,143.638 10.819,140.000 12.098 C 138.130 12.756,136.150 13.387,135.600 13.501 C 135.050 13.614,134.420 13.832,134.200 13.985 C 133.980 14.137,132.900 14.580,131.800 14.969 C 130.700 15.358,128.990 16.037,128.000 16.477 C 125.163 17.739,123.902 18.279,122.436 18.860 C 100.904 27.387,66.206 53.428,53.266 70.772 C 52.679 71.557,52.002 72.380,51.760 72.600 C 48.728 75.353,36.205 93.547,32.212 101.000 C 31.151 102.980,29.589 105.831,28.741 107.336 C 27.894 108.841,27.200 110.135,27.200 110.212 C 27.200 110.289,26.461 111.938,25.557 113.876 C 22.406 120.635,21.600 122.422,21.600 122.650 C 21.600 122.776,21.312 123.536,20.959 124.340 C 20.607 125.143,20.179 126.160,20.009 126.600 C 19.839 127.040,19.480 127.940,19.212 128.600 C 18.277 130.897,14.722 141.819,14.003 144.600 C 13.605 146.140,12.984 148.480,12.622 149.800 C 11.902 152.428,11.763 153.054,10.263 160.400 C 9.041 166.384,8.283 171.869,7.219 182.400 C 6.583 188.709,6.688 208.841,7.393 215.444 C 8.259 223.557,9.612 232.810,10.398 236.000 C 10.588 236.770,10.964 238.480,11.234 239.800 C 12.185 244.458,15.022 255.208,15.984 257.800 C 16.308 258.675,16.718 259.864,18.259 264.400 C 18.819 266.050,19.710 268.350,20.239 269.512 C 20.768 270.673,21.200 271.695,21.200 271.783 C 21.200 271.870,21.806 273.260,22.548 274.871 C 24.403 278.904,25.734 281.838,26.776 284.200 C 27.262 285.300,28.186 287.283,28.830 288.607 C 29.473 289.930,30.000 291.129,30.000 291.271 C 30.000 291.413,31.080 293.811,32.400 296.600 C 33.720 299.389,34.800 301.787,34.800 301.929 C 34.800 302.072,35.236 303.091,35.769 304.194 C 37.793 308.385,39.600 312.347,39.600 312.597 C 39.600 312.740,40.472 314.689,41.539 316.928 C 42.605 319.168,44.071 322.350,44.796 324.000 C 46.904 328.797,48.359 331.995,49.828 335.062 C 50.583 336.636,51.200 338.026,51.200 338.151 C 51.200 338.369,51.764 339.628,54.626 345.800 C 55.340 347.340,56.317 349.500,56.796 350.600 C 57.733 352.748,58.565 354.586,60.597 359.000 C 61.306 360.540,62.566 363.330,63.396 365.200 C 65.579 370.117,66.756 372.732,67.809 375.000 C 68.320 376.100,69.177 377.990,69.714 379.200 C 70.251 380.410,71.100 382.300,71.599 383.400 C 72.099 384.500,73.846 388.370,75.481 392.000 C 77.115 395.630,78.891 399.545,79.426 400.700 C 79.962 401.855,80.823 403.745,81.341 404.900 C 81.858 406.055,82.777 408.080,83.383 409.400 C 83.990 410.720,84.639 412.160,84.827 412.600 C 85.015 413.040,86.075 415.355,87.184 417.745 C 88.293 420.135,89.200 422.207,89.200 422.351 C 89.200 422.494,89.720 423.689,90.357 425.006 C 92.135 428.686,94.000 432.747,94.000 432.938 C 94.000 433.033,94.907 435.065,96.016 437.455 C 97.125 439.845,98.185 442.160,98.373 442.600 C 98.694 443.353,99.318 444.732,101.719 450.000 C 102.271 451.210,103.125 453.100,103.616 454.200 C 108.133 464.302,110.297 468.930,118.208 485.400 C 119.159 487.380,121.191 491.610,122.723 494.800 C 124.256 497.990,125.893 501.452,126.361 502.492 C 127.110 504.155,129.830 509.885,134.198 519.000 C 134.936 520.540,136.614 524.050,137.926 526.800 C 139.239 529.550,141.308 533.870,142.524 536.400 C 143.741 538.930,145.178 541.990,145.718 543.200 C 146.258 544.410,148.352 548.820,150.373 553.000 C 152.393 557.180,154.472 561.500,154.992 562.600 C 155.513 563.700,156.960 566.760,158.209 569.400 C 161.640 576.654,164.213 582.041,171.200 596.592 C 172.571 599.447,174.193 602.867,174.803 604.192 C 175.414 605.516,177.389 609.660,179.191 613.400 C 180.994 617.140,182.850 621.010,183.315 622.000 C 188.420 632.858,199.305 636.963,209.517 631.882 C 214.407 629.450,216.454 626.590,222.320 614.000 C 223.892 610.627,226.453 605.247,230.700 596.400 C 234.034 589.453,237.105 583.008,238.992 579.000 C 241.494 573.683,244.197 568.009,246.807 562.600 C 248.081 559.960,249.840 556.270,250.717 554.400 C 251.594 552.530,253.299 548.930,254.506 546.400 C 256.687 541.829,258.955 537.056,262.585 529.400 C 263.628 527.200,265.528 523.240,266.807 520.600 C 268.086 517.960,269.846 514.270,270.720 512.400 C 272.903 507.722,275.393 502.483,278.799 495.400 C 280.386 492.100,282.306 488.071,283.066 486.447 C 283.826 484.822,285.628 481.042,287.071 478.047 C 290.469 470.995,292.878 465.900,293.998 463.400 C 294.490 462.300,295.683 459.715,296.647 457.655 C 297.611 455.595,298.400 453.844,298.400 453.763 C 298.400 453.683,299.043 452.219,299.829 450.509 C 300.615 448.799,301.499 446.860,301.794 446.200 C 302.089 445.540,302.862 443.830,303.512 442.400 C 305.580 437.852,306.301 436.254,307.305 434.000 C 308.264 431.847,308.692 430.903,311.484 424.800 C 313.351 420.718,313.800 419.723,314.826 417.400 C 315.311 416.300,316.314 414.094,317.054 412.498 C 317.794 410.902,318.400 409.521,318.400 409.428 C 318.400 409.335,319.007 407.940,319.749 406.329 C 320.491 404.718,321.503 402.500,321.998 401.400 C 322.493 400.300,323.478 398.140,324.188 396.600 C 324.897 395.060,325.759 393.170,326.102 392.400 C 326.445 391.630,327.392 389.560,328.205 387.800 C 329.019 386.040,330.402 382.980,331.278 381.000 C 332.155 379.020,333.289 376.500,333.799 375.400 C 334.309 374.300,335.084 372.590,335.522 371.600 C 337.858 366.314,341.818 357.475,342.869 355.200 C 343.530 353.770,344.520 351.610,345.069 350.400 C 345.618 349.190,346.402 347.480,346.810 346.600 C 347.218 345.720,348.036 343.920,348.627 342.600 C 349.217 341.280,350.955 337.410,352.489 334.000 C 354.023 330.590,355.641 326.990,356.085 326.000 C 357.077 323.787,359.063 319.417,359.811 317.800 C 360.116 317.140,360.890 315.430,361.530 314.000 C 362.822 311.115,363.959 308.599,365.600 305.000 C 366.202 303.680,367.059 301.790,367.505 300.800 C 370.385 294.410,374.093 286.213,375.104 284.000 C 377.042 279.760,378.429 276.690,379.083 275.200 C 379.421 274.430,380.111 272.900,380.617 271.800 C 381.123 270.700,382.016 268.450,382.601 266.800 C 383.186 265.150,383.815 263.440,383.999 263.000 C 385.914 258.427,389.628 244.870,391.452 235.800 C 395.351 216.410,396.241 190.693,393.612 173.400 C 393.412 172.080,393.042 169.560,392.790 167.800 C 392.005 162.311,389.916 152.297,388.785 148.600 C 388.583 147.940,388.136 146.188,387.792 144.708 C 387.152 141.952,383.250 130.157,382.137 127.614 C 381.797 126.836,381.374 125.840,381.197 125.400 C 377.128 115.257,370.870 102.533,367.230 97.000 C 366.652 96.120,365.471 94.185,364.606 92.700 C 363.741 91.215,362.891 90.000,362.717 90.000 C 362.543 90.000,362.400 89.830,362.400 89.622 C 362.400 89.198,354.972 78.674,352.800 76.020 C 347.071 69.020,344.302 65.885,339.400 60.845 C 336.320 57.678,332.360 53.827,330.600 52.288 C 328.840 50.748,326.320 48.543,325.000 47.388 C 321.683 44.486,308.219 34.439,307.000 33.957 C 306.780 33.870,305.027 32.764,303.104 31.499 C 301.181 30.235,299.519 29.200,299.411 29.200 C 299.304 29.200,298.263 28.615,297.098 27.900 C 295.933 27.185,294.625 26.387,294.190 26.127 C 291.436 24.477,274.657 16.400,273.984 16.400 C 273.767 16.400,273.277 16.235,272.895 16.034 C 272.513 15.832,271.480 15.373,270.600 15.014 C 269.720 14.655,268.687 14.190,268.305 13.981 C 267.923 13.771,267.336 13.600,267.000 13.600 C 266.664 13.600,266.077 13.430,265.695 13.221 C 264.572 12.609,254.800 9.446,252.000 8.789 C 251.230 8.608,249.520 8.164,248.200 7.801 C 246.880 7.439,244.990 6.992,244.000 6.807 C 243.010 6.623,240.940 6.174,239.400 5.810 C 235.247 4.828,230.657 4.138,222.200 3.224 C 220.000 2.986,216.751 2.614,214.979 2.396 C 211.706 1.994,189.504 1.830,189.128 2.205 M217.800 26.998 C 223.926 27.578,230.222 28.440,233.800 29.188 C 234.900 29.418,236.790 29.786,238.000 30.005 C 241.293 30.604,248.361 32.447,252.600 33.813 C 253.700 34.167,255.140 34.605,255.800 34.787 C 257.663 35.299,265.603 38.202,267.814 39.180 C 268.906 39.663,270.340 40.291,271.000 40.576 C 293.825 50.426,319.861 69.489,333.360 86.234 C 334.262 87.353,336.065 89.586,337.366 91.196 C 339.453 93.778,342.468 97.719,344.467 100.479 C 345.814 102.339,348.800 106.912,348.800 107.115 C 348.800 107.230,349.215 107.881,349.722 108.562 C 352.679 112.532,360.304 127.510,363.385 135.400 C 363.986 136.940,364.641 138.560,364.840 139.000 C 365.416 140.273,368.874 150.858,369.218 152.400 C 369.389 153.170,369.894 155.150,370.338 156.800 C 379.330 190.162,377.177 229.039,364.522 261.800 C 363.423 264.645,363.290 264.979,362.692 266.400 C 362.368 267.170,361.769 268.610,361.362 269.600 C 359.877 273.212,353.087 286.255,351.543 288.462 C 351.134 289.046,350.800 289.653,350.800 289.811 C 350.800 290.113,343.873 300.538,342.308 302.591 C 331.099 317.297,320.772 327.833,307.711 337.888 C 304.141 340.635,292.175 348.800,291.717 348.800 C 291.610 348.800,291.046 349.135,290.462 349.543 C 286.646 352.215,272.581 359.077,265.400 361.771 C 263.200 362.596,261.040 363.414,260.600 363.588 C 258.142 364.560,256.405 365.169,254.800 365.620 C 253.810 365.899,251.920 366.485,250.600 366.922 C 249.280 367.360,247.480 367.860,246.600 368.034 C 245.720 368.207,243.920 368.637,242.600 368.988 C 241.280 369.340,239.390 369.781,238.400 369.968 C 237.410 370.156,234.710 370.670,232.400 371.112 C 222.616 372.982,214.137 373.705,201.800 373.719 C 190.680 373.733,180.252 372.955,173.200 371.586 C 172.210 371.393,169.780 370.950,167.800 370.601 C 165.820 370.251,163.570 369.796,162.800 369.590 C 162.030 369.383,160.140 368.925,158.600 368.572 C 155.617 367.888,154.876 367.676,150.800 366.345 C 149.370 365.879,147.660 365.359,147.000 365.191 C 145.484 364.805,138.194 362.171,136.600 361.432 C 135.940 361.126,134.230 360.396,132.800 359.810 C 128.875 358.201,120.177 353.911,116.209 351.628 C 114.271 350.512,112.630 349.600,112.564 349.600 C 112.214 349.600,104.115 344.307,100.436 341.673 C 84.806 330.486,69.940 315.541,58.683 299.699 C 56.767 297.003,55.200 294.680,55.200 294.537 C 55.200 294.393,54.750 293.686,54.200 292.964 C 53.650 292.243,53.200 291.584,53.200 291.499 C 53.200 291.414,52.062 289.450,50.671 287.134 C 49.281 284.819,46.662 279.881,44.852 276.162 C 43.043 272.443,41.390 269.087,41.181 268.705 C 40.971 268.323,40.800 267.828,40.800 267.603 C 40.800 267.379,40.350 266.263,39.800 265.123 C 39.250 263.983,38.800 262.760,38.800 262.405 C 38.800 262.050,38.640 261.589,38.445 261.380 C 38.097 261.007,35.411 253.146,34.420 249.600 C 34.143 248.610,33.762 247.400,33.572 246.911 C 32.764 244.828,30.694 235.463,29.613 229.000 C 27.945 219.033,27.200 210.196,27.200 200.392 C 27.200 186.759,28.866 172.265,31.843 160.000 C 33.480 153.257,35.949 144.857,36.482 144.220 C 36.657 144.011,36.800 143.528,36.800 143.146 C 36.800 142.765,37.231 141.406,37.759 140.126 C 38.286 138.847,39.473 135.910,40.397 133.600 C 49.607 110.568,67.372 85.906,86.800 69.182 C 88.450 67.762,89.890 66.495,90.000 66.367 C 90.421 65.877,99.077 59.277,100.600 58.285 C 101.480 57.712,103.508 56.333,105.107 55.221 C 106.705 54.110,108.128 53.200,108.269 53.200 C 108.409 53.200,109.109 52.754,109.823 52.210 C 110.537 51.665,111.904 50.791,112.861 50.267 C 113.817 49.743,115.950 48.570,117.600 47.661 C 122.638 44.883,129.687 41.502,134.400 39.604 C 135.610 39.116,136.960 38.561,137.400 38.370 C 140.465 37.038,149.188 34.039,153.100 32.972 C 154.255 32.658,156.235 32.118,157.500 31.773 C 164.340 29.907,177.462 27.618,185.600 26.871 C 191.885 26.294,211.165 26.371,217.800 26.998 M202.800 93.051 C 192.850 94.981,189.417 98.767,176.434 122.124 C 175.968 122.962,174.848 124.942,173.944 126.524 C 171.175 131.370,170.964 131.742,169.928 133.600 C 168.955 135.346,162.296 147.174,160.696 149.998 C 156.886 156.723,155.605 156.938,151.971 151.468 C 150.777 149.671,149.665 148.140,149.500 148.067 C 149.335 147.993,149.200 147.793,149.200 147.622 C 149.200 147.451,147.977 145.441,146.481 143.156 C 144.213 139.688,133.126 122.274,131.800 120.097 C 131.580 119.735,130.815 118.578,130.100 117.524 C 129.385 116.470,128.800 115.499,128.800 115.366 C 128.800 115.233,128.395 114.559,127.900 113.870 C 127.405 113.181,126.820 112.321,126.600 111.959 C 126.380 111.597,125.559 110.333,124.776 109.150 C 123.992 107.968,123.226 106.730,123.072 106.400 C 122.918 106.070,121.386 103.640,119.667 101.000 L 116.542 96.200 109.671 96.091 C 102.138 95.971,102.087 95.989,103.800 98.236 C 104.350 98.957,104.800 99.652,104.800 99.781 C 104.800 99.909,106.015 101.857,107.500 104.110 C 108.985 106.362,110.419 108.564,110.687 109.003 C 112.600 112.134,116.569 118.236,116.799 118.400 C 116.954 118.510,117.152 118.780,117.241 119.000 C 117.426 119.459,119.705 122.969,130.488 139.400 C 132.798 142.920,135.927 147.690,137.442 150.000 C 138.957 152.310,140.270 154.373,140.360 154.585 C 140.450 154.797,141.396 156.192,142.462 157.686 C 143.528 159.180,144.400 160.505,144.400 160.630 C 144.400 161.147,148.139 166.046,149.243 166.974 C 152.755 169.930,159.232 169.331,163.288 165.677 C 164.613 164.484,168.400 159.265,168.400 158.633 C 168.400 158.546,169.480 156.656,170.800 154.433 C 172.120 152.209,173.200 150.299,173.200 150.187 C 173.200 150.076,173.622 149.313,174.137 148.492 C 174.652 147.671,175.672 145.920,176.402 144.600 C 177.133 143.280,178.092 141.570,178.534 140.800 C 178.975 140.030,180.224 137.780,181.310 135.800 C 182.395 133.820,183.894 131.155,184.641 129.879 C 185.389 128.602,186.000 127.473,186.000 127.371 C 186.000 127.268,186.460 126.456,187.021 125.566 C 188.056 123.927,188.414 123.305,190.799 119.000 C 191.530 117.680,192.524 115.970,193.008 115.200 C 193.492 114.430,194.359 112.964,194.936 111.942 C 198.793 105.108,206.302 102.853,212.483 106.672 C 214.633 108.001,216.999 111.471,222.825 121.844 C 223.258 122.616,224.330 124.513,225.207 126.060 C 226.083 127.606,226.800 128.963,226.800 129.074 C 226.800 129.185,227.134 129.754,227.543 130.338 C 228.311 131.436,229.343 133.254,232.121 138.400 C 233.011 140.050,234.158 142.071,234.670 142.892 C 235.181 143.713,235.600 144.445,235.600 144.520 C 235.600 144.595,236.885 146.894,238.456 149.628 C 240.027 152.363,241.763 155.410,242.314 156.400 C 247.486 165.699,250.416 168.414,255.600 168.714 C 262.013 169.086,264.203 167.308,270.788 156.385 C 271.125 155.827,272.515 153.667,273.877 151.585 C 277.696 145.750,287.184 131.144,289.600 127.380 C 289.930 126.866,292.326 123.150,294.925 119.123 C 297.523 115.095,301.796 108.470,304.420 104.400 C 307.043 100.330,309.192 96.775,309.195 96.500 C 309.199 96.120,307.588 96.000,302.459 96.000 L 295.718 96.000 293.959 98.808 C 291.163 103.271,281.645 118.291,279.389 121.800 C 278.258 123.560,276.372 126.530,275.199 128.400 C 258.815 154.513,257.279 156.521,255.040 154.760 C 254.159 154.067,250.800 149.164,250.800 148.572 C 250.800 148.435,250.463 147.846,250.051 147.262 C 249.639 146.678,248.769 145.210,248.118 144.000 C 247.466 142.790,246.573 141.170,246.132 140.400 C 245.691 139.630,244.732 137.920,244.000 136.600 C 243.268 135.280,242.308 133.570,241.867 132.800 C 241.426 132.030,239.596 128.790,237.800 125.600 C 234.532 119.795,234.216 119.239,231.134 113.876 C 230.225 112.294,229.205 110.460,228.868 109.800 C 222.913 98.167,212.132 91.240,202.800 93.051 M304.425 157.100 C 299.722 164.344,292.060 176.244,289.000 181.057 C 268.498 213.308,267.788 214.042,257.012 214.125 C 248.334 214.192,244.174 211.642,238.861 203.000 C 234.576 196.031,232.400 192.393,232.400 192.197 C 232.400 192.097,231.770 191.031,231.000 189.827 C 230.230 188.623,229.600 187.536,229.600 187.411 C 229.600 187.286,229.130 186.439,228.555 185.529 C 227.981 184.619,227.108 183.138,226.616 182.237 C 226.124 181.337,224.143 177.900,222.214 174.600 C 220.286 171.300,218.248 167.791,217.687 166.803 C 216.684 165.037,215.274 162.758,212.490 158.400 C 206.853 149.576,203.976 151.109,194.479 168.000 C 193.923 168.990,193.182 170.279,192.834 170.864 C 191.448 173.190,189.425 176.693,188.481 178.400 C 187.934 179.390,187.151 180.678,186.743 181.262 C 186.334 181.846,186.000 182.412,186.000 182.520 C 186.000 182.691,179.039 194.795,178.018 196.400 C 177.808 196.730,177.062 197.990,176.361 199.200 C 169.506 211.033,165.438 214.018,156.099 214.069 C 147.003 214.117,142.704 211.019,135.400 199.151 C 135.180 198.793,134.281 197.443,133.402 196.150 C 132.522 194.858,131.712 193.620,131.600 193.400 C 131.398 193.002,128.529 188.629,121.236 177.600 C 119.126 174.410,117.337 171.655,117.259 171.478 C 117.039 170.973,111.289 162.257,110.819 161.717 C 110.589 161.451,110.400 161.157,110.400 161.063 C 110.400 160.413,103.845 151.200,103.382 151.200 C 102.428 151.200,102.572 225.750,103.529 227.255 C 103.898 227.835,105.910 230.951,108.000 234.179 C 110.090 237.408,111.984 240.353,112.209 240.725 C 112.434 241.096,114.341 244.010,116.446 247.200 C 123.218 257.460,124.995 260.192,125.163 260.600 C 126.082 262.831,134.225 273.880,136.332 275.754 C 149.682 287.629,168.754 284.312,178.627 268.400 C 182.077 262.839,181.768 263.351,183.441 260.400 C 185.282 257.149,187.298 253.732,189.273 250.510 C 190.113 249.140,190.800 247.917,190.800 247.791 C 190.800 247.665,191.430 246.577,192.200 245.373 C 192.970 244.169,193.600 243.094,193.600 242.984 C 193.600 242.874,194.021 242.113,194.536 241.292 C 195.051 240.471,195.930 238.990,196.488 238.000 C 197.047 237.010,198.976 233.590,200.775 230.400 C 205.591 221.862,206.806 221.103,209.090 225.200 C 209.642 226.190,210.943 228.440,211.980 230.200 C 213.017 231.960,214.466 234.480,215.198 235.800 C 217.638 240.195,217.951 240.738,218.979 242.366 C 219.540 243.256,220.000 244.074,220.000 244.184 C 220.000 244.294,220.630 245.369,221.400 246.573 C 222.170 247.777,222.800 248.864,222.800 248.989 C 222.800 249.114,223.264 249.950,223.830 250.848 C 224.397 251.745,225.327 253.317,225.896 254.340 C 227.092 256.486,227.485 257.159,230.184 261.678 C 231.275 263.505,232.514 265.630,232.937 266.400 C 242.626 284.039,263.125 288.244,276.754 275.388 C 279.046 273.226,286.040 263.743,286.758 261.823 C 286.845 261.590,287.407 260.680,288.007 259.800 C 289.533 257.559,296.237 247.028,307.851 228.629 L 309.600 225.858 309.600 190.788 C 309.600 157.558,309.465 150.800,308.801 150.800 C 308.644 150.800,306.675 153.635,304.425 157.100 " stroke="none" fill="#eb6b2b" fill-rule="evenodd"></path>
		<path id="path1" d="M185.600 26.871 C 177.462 27.618,164.340 29.907,157.500 31.773 C 156.235 32.118,154.255 32.658,153.100 32.972 C 149.188 34.039,140.465 37.038,137.400 38.370 C 136.960 38.561,135.610 39.116,134.400 39.604 C 129.687 41.502,122.638 44.883,117.600 47.661 C 115.950 48.570,113.817 49.743,112.861 50.267 C 111.904 50.791,110.537 51.665,109.823 52.210 C 109.109 52.754,108.409 53.200,108.269 53.200 C 108.128 53.200,106.705 54.110,105.107 55.221 C 103.508 56.333,101.480 57.712,100.600 58.285 C 99.077 59.277,90.421 65.877,90.000 66.367 C 89.890 66.495,88.450 67.762,86.800 69.182 C 67.372 85.906,49.607 110.568,40.397 133.600 C 39.473 135.910,38.286 138.847,37.759 140.126 C 37.231 141.406,36.800 142.765,36.800 143.146 C 36.800 143.528,36.657 144.011,36.482 144.220 C 35.949 144.857,33.480 153.257,31.843 160.000 C 28.866 172.265,27.200 186.759,27.200 200.392 C 27.200 210.196,27.945 219.033,29.613 229.000 C 30.694 235.463,32.764 244.828,33.572 246.911 C 33.762 247.400,34.143 248.610,34.420 249.600 C 35.411 253.146,38.097 261.007,38.445 261.380 C 38.640 261.589,38.800 262.050,38.800 262.405 C 38.800 262.760,39.250 263.983,39.800 265.123 C 40.350 266.263,40.800 267.379,40.800 267.603 C 40.800 267.828,40.971 268.323,41.181 268.705 C 41.390 269.087,43.043 272.443,44.852 276.162 C 46.662 279.881,49.281 284.819,50.671 287.134 C 52.062 289.450,53.200 291.414,53.200 291.499 C 53.200 291.584,53.650 292.243,54.200 292.964 C 54.750 293.686,55.200 294.393,55.200 294.537 C 55.200 294.680,56.767 297.003,58.683 299.699 C 69.940 315.541,84.806 330.486,100.436 341.673 C 104.115 344.307,112.214 349.600,112.564 349.600 C 112.630 349.600,114.271 350.512,116.209 351.628 C 120.177 353.911,128.875 358.201,132.800 359.810 C 134.230 360.396,135.940 361.126,136.600 361.432 C 138.194 362.171,145.484 364.805,147.000 365.191 C 147.660 365.359,149.370 365.879,150.800 366.345 C 154.876 367.676,155.617 367.888,158.600 368.572 C 160.140 368.925,162.030 369.383,162.800 369.590 C 163.570 369.796,165.820 370.251,167.800 370.601 C 169.780 370.950,172.210 371.393,173.200 371.586 C 189.035 374.660,214.926 374.452,232.400 371.112 C 234.710 370.670,237.410 370.156,238.400 369.968 C 239.390 369.781,241.280 369.340,242.600 368.988 C 243.920 368.637,245.720 368.207,246.600 368.034 C 247.480 367.860,249.280 367.360,250.600 366.922 C 251.920 366.485,253.810 365.899,254.800 365.620 C 256.405 365.169,258.142 364.560,260.600 363.588 C 261.040 363.414,263.200 362.596,265.400 361.771 C 272.581 359.077,286.646 352.215,290.462 349.543 C 291.046 349.135,291.610 348.800,291.717 348.800 C 292.175 348.800,304.141 340.635,307.711 337.888 C 320.772 327.833,331.099 317.297,342.308 302.591 C 343.873 300.538,350.800 290.113,350.800 289.811 C 350.800 289.653,351.134 289.046,351.543 288.462 C 353.087 286.255,359.877 273.212,361.362 269.600 C 361.769 268.610,362.368 267.170,362.692 266.400 C 363.290 264.979,363.423 264.645,364.522 261.800 C 377.177 229.039,379.330 190.162,370.338 156.800 C 369.894 155.150,369.389 153.170,369.218 152.400 C 368.874 150.858,365.416 140.273,364.840 139.000 C 364.641 138.560,363.986 136.940,363.385 135.400 C 360.304 127.510,352.679 112.532,349.722 108.562 C 349.215 107.881,348.800 107.230,348.800 107.115 C 348.800 106.912,345.814 102.339,344.467 100.479 C 342.468 97.719,339.453 93.778,337.366 91.196 C 336.065 89.586,334.262 87.353,333.360 86.234 C 319.861 69.489,293.825 50.426,271.000 40.576 C 270.340 40.291,268.906 39.663,267.814 39.180 C 265.603 38.202,257.663 35.299,255.800 34.787 C 255.140 34.605,253.700 34.167,252.600 33.813 C 248.361 32.447,241.293 30.604,238.000 30.005 C 236.790 29.786,234.900 29.418,233.800 29.188 C 222.268 26.777,198.880 25.653,185.600 26.871 M212.880 94.157 C 219.079 96.437,224.986 102.216,228.868 109.800 C 229.205 110.460,230.225 112.294,231.134 113.876 C 234.216 119.239,234.532 119.795,237.800 125.600 C 239.596 128.790,241.426 132.030,241.867 132.800 C 242.308 133.570,243.268 135.280,244.000 136.600 C 244.732 137.920,245.691 139.630,246.132 140.400 C 246.573 141.170,247.466 142.790,248.118 144.000 C 248.769 145.210,249.639 146.678,250.051 147.262 C 250.463 147.846,250.800 148.435,250.800 148.572 C 250.800 149.164,254.159 154.067,255.040 154.760 C 257.279 156.521,258.815 154.513,275.199 128.400 C 276.372 126.530,278.258 123.560,279.389 121.800 C 281.645 118.291,291.163 103.271,293.959 98.808 L 295.718 96.000 302.459 96.000 C 307.588 96.000,309.199 96.120,309.195 96.500 C 309.192 96.775,307.043 100.330,304.420 104.400 C 301.796 108.470,297.523 115.095,294.925 119.123 C 292.326 123.150,289.930 126.866,289.600 127.380 C 287.184 131.144,277.696 145.750,273.877 151.585 C 272.515 153.667,271.125 155.827,270.788 156.385 C 264.203 167.308,262.013 169.086,255.600 168.714 C 250.416 168.414,247.486 165.699,242.314 156.400 C 241.763 155.410,240.027 152.363,238.456 149.628 C 236.885 146.894,235.600 144.595,235.600 144.520 C 235.600 144.445,235.181 143.713,234.670 142.892 C 234.158 142.071,233.011 140.050,232.121 138.400 C 229.343 133.254,228.311 131.436,227.543 130.338 C 227.134 129.754,226.800 129.185,226.800 129.074 C 226.800 128.963,226.083 127.606,225.207 126.060 C 224.330 124.513,223.258 122.616,222.825 121.844 C 216.999 111.471,214.633 108.001,212.483 106.672 C 206.302 102.853,198.793 105.108,194.936 111.942 C 194.359 112.964,193.492 114.430,193.008 115.200 C 192.524 115.970,191.530 117.680,190.799 119.000 C 188.414 123.305,188.056 123.927,187.021 125.566 C 186.460 126.456,186.000 127.268,186.000 127.371 C 186.000 127.473,185.389 128.602,184.641 129.879 C 183.894 131.155,182.395 133.820,181.310 135.800 C 180.224 137.780,178.975 140.030,178.534 140.800 C 178.092 141.570,177.133 143.280,176.402 144.600 C 175.672 145.920,174.652 147.671,174.137 148.492 C 173.622 149.313,173.200 150.076,173.200 150.187 C 173.200 150.299,172.120 152.209,170.800 154.433 C 169.480 156.656,168.400 158.546,168.400 158.633 C 168.400 159.265,164.613 164.484,163.288 165.677 C 159.232 169.331,152.755 169.930,149.243 166.974 C 148.139 166.046,144.400 161.147,144.400 160.630 C 144.400 160.505,143.528 159.180,142.462 157.686 C 141.396 156.192,140.450 154.797,140.360 154.585 C 140.270 154.373,138.957 152.310,137.442 150.000 C 135.927 147.690,132.798 142.920,130.488 139.400 C 119.705 122.969,117.426 119.459,117.241 119.000 C 117.152 118.780,116.954 118.510,116.799 118.400 C 116.569 118.236,112.600 112.134,110.687 109.003 C 110.419 108.564,108.985 106.362,107.500 104.110 C 106.015 101.857,104.800 99.909,104.800 99.781 C 104.800 99.652,104.350 98.957,103.800 98.236 C 102.087 95.989,102.138 95.971,109.671 96.091 L 116.542 96.200 119.667 101.000 C 121.386 103.640,122.918 106.070,123.072 106.400 C 123.226 106.730,123.992 107.968,124.776 109.150 C 125.559 110.333,126.380 111.597,126.600 111.959 C 126.820 112.321,127.405 113.181,127.900 113.870 C 128.395 114.559,128.800 115.233,128.800 115.366 C 128.800 115.499,129.385 116.470,130.100 117.524 C 130.815 118.578,131.580 119.735,131.800 120.097 C 133.126 122.274,144.213 139.688,146.481 143.156 C 147.977 145.441,149.200 147.451,149.200 147.622 C 149.200 147.793,149.335 147.993,149.500 148.067 C 149.665 148.140,150.777 149.671,151.971 151.468 C 155.605 156.938,156.886 156.723,160.696 149.998 C 162.296 147.174,168.955 135.346,169.928 133.600 C 170.964 131.742,171.175 131.370,173.944 126.524 C 174.848 124.942,175.968 122.962,176.434 122.124 C 183.413 109.568,187.144 103.411,189.079 101.252 C 195.876 93.675,204.544 91.091,212.880 94.157 M309.343 153.259 C 309.484 154.611,309.600 171.499,309.600 190.788 L 309.600 225.858 307.851 228.629 C 296.237 247.028,289.533 257.559,288.007 259.800 C 287.407 260.680,286.845 261.590,286.758 261.823 C 286.040 263.743,279.046 273.226,276.754 275.388 C 263.125 288.244,242.626 284.039,232.937 266.400 C 232.514 265.630,231.275 263.505,230.184 261.678 C 227.485 257.159,227.092 256.486,225.896 254.340 C 225.327 253.317,224.397 251.745,223.830 250.848 C 223.264 249.950,222.800 249.114,222.800 248.989 C 222.800 248.864,222.170 247.777,221.400 246.573 C 220.630 245.369,220.000 244.294,220.000 244.184 C 220.000 244.074,219.540 243.256,218.979 242.366 C 217.951 240.738,217.638 240.195,215.198 235.800 C 214.466 234.480,213.017 231.960,211.980 230.200 C 210.943 228.440,209.642 226.190,209.090 225.200 C 206.806 221.103,205.591 221.862,200.775 230.400 C 198.976 233.590,197.047 237.010,196.488 238.000 C 195.930 238.990,195.051 240.471,194.536 241.292 C 194.021 242.113,193.600 242.874,193.600 242.984 C 193.600 243.094,192.970 244.169,192.200 245.373 C 191.430 246.577,190.800 247.665,190.800 247.791 C 190.800 247.917,190.113 249.140,189.273 250.510 C 187.298 253.732,185.282 257.149,183.441 260.400 C 181.768 263.351,182.077 262.839,178.627 268.400 C 168.754 284.312,149.682 287.629,136.332 275.754 C 134.225 273.880,126.082 262.831,125.163 260.600 C 124.995 260.192,123.218 257.460,116.446 247.200 C 114.341 244.010,112.434 241.096,112.209 240.725 C 111.984 240.353,110.090 237.408,108.000 234.179 C 105.910 230.951,103.898 227.835,103.529 227.255 C 102.572 225.750,102.428 151.200,103.382 151.200 C 103.845 151.200,110.400 160.413,110.400 161.063 C 110.400 161.157,110.589 161.451,110.819 161.717 C 111.289 162.257,117.039 170.973,117.259 171.478 C 117.337 171.655,119.126 174.410,121.236 177.600 C 128.529 188.629,131.398 193.002,131.600 193.400 C 131.712 193.620,132.522 194.858,133.402 196.150 C 134.281 197.443,135.180 198.793,135.400 199.151 C 142.704 211.019,147.003 214.117,156.099 214.069 C 165.438 214.018,169.506 211.033,176.361 199.200 C 177.062 197.990,177.808 196.730,178.018 196.400 C 179.039 194.795,186.000 182.691,186.000 182.520 C 186.000 182.412,186.334 181.846,186.743 181.262 C 187.151 180.678,187.934 179.390,188.481 178.400 C 189.425 176.693,191.448 173.190,192.834 170.864 C 193.182 170.279,193.923 168.990,194.479 168.000 C 203.976 151.109,206.853 149.576,212.490 158.400 C 215.274 162.758,216.684 165.037,217.687 166.803 C 218.248 167.791,220.286 171.300,222.214 174.600 C 224.143 177.900,226.124 181.337,226.616 182.237 C 227.108 183.138,227.981 184.619,228.555 185.529 C 229.130 186.439,229.600 187.286,229.600 187.411 C 229.600 187.536,230.230 188.623,231.000 189.827 C 231.770 191.031,232.400 192.097,232.400 192.197 C 232.400 192.393,234.576 196.031,238.861 203.000 C 244.174 211.642,248.334 214.192,257.012 214.125 C 266.365 214.053,268.316 212.603,277.354 199.000 C 281.910 192.143,283.988 188.941,289.000 181.057 C 292.060 176.244,299.722 164.344,304.425 157.100 C 309.098 149.903,309.000 149.979,309.343 153.259 " stroke="none" fill="#ffffff" fill-rule="evenodd"></path>
	</g>
</svg>