<svg id="svg" version="1.1" xmlns="http://www.w3.org/2000/svg" xmlns:xlink="http://www.w3.org/1999/xlink" width="60" height="93" viewBox="0, 0, 400,620.2352941176471">
	<g id="svgg">
		<path id="path0" d="M189.136 2.197 C 188.992 2.341,186.653 2.612,183.937 2.800 C 179.549 3.104,177.173 3.419,168.800 4.804 C 162.892 5.781,157.763 6.903,157.360 7.306 C 157.199 7.468,156.614 7.600,156.062 7.600 C 155.011 7.600,154.631 7.700,149.352 9.372 C 147.565 9.937,145.756 10.400,145.332 10.400 C 144.907 10.400,144.389 10.543,144.180 10.718 C 143.971 10.893,142.720 11.374,141.400 11.789 C 140.080 12.203,138.829 12.690,138.620 12.871 C 138.411 13.052,137.914 13.200,137.515 13.200 C 137.116 13.200,136.477 13.362,136.095 13.559 C 135.713 13.756,134.590 14.231,133.600 14.614 C 132.610 14.996,131.037 15.645,130.104 16.055 C 129.172 16.465,128.322 16.800,128.215 16.800 C 127.254 16.800,113.799 23.518,107.600 27.093 C 100.570 31.147,100.252 31.337,100.000 31.639 C 99.890 31.771,98.540 32.664,97.000 33.625 C 92.770 36.262,85.918 41.280,82.012 44.600 C 80.977 45.480,79.156 47.010,77.965 48.000 C 75.300 50.216,69.097 56.123,65.832 59.556 C 64.494 60.962,62.769 62.762,61.999 63.556 C 52.111 73.743,38.893 93.159,31.741 108.000 C 28.047 115.666,24.238 124.535,23.581 127.000 C 23.405 127.660,22.513 130.360,21.599 133.000 C 19.959 137.739,16.725 149.726,15.933 154.000 C 15.709 155.210,15.366 157.010,15.171 158.000 C 11.496 176.608,11.340 206.372,14.822 224.400 C 15.055 225.610,15.435 227.590,15.665 228.800 C 16.776 234.653,20.466 249.016,21.238 250.495 C 21.437 250.877,21.600 251.541,21.600 251.971 C 21.600 252.401,21.759 252.851,21.952 252.970 C 22.146 253.090,22.396 253.596,22.508 254.094 C 22.797 255.377,24.678 260.532,25.663 262.739 C 26.119 263.762,26.724 265.140,27.006 265.800 C 27.288 266.460,28.347 268.760,29.360 270.911 C 30.372 273.062,31.200 274.897,31.200 274.987 C 31.200 275.078,32.010 276.874,33.000 278.978 C 33.990 281.083,34.800 282.884,34.800 282.981 C 34.800 283.078,35.454 284.562,36.253 286.279 C 37.669 289.319,38.961 292.146,40.424 295.400 C 40.820 296.280,41.876 298.578,42.772 300.508 C 43.667 302.437,44.400 304.095,44.400 304.192 C 44.400 304.290,45.016 305.681,45.768 307.285 C 47.178 310.288,52.120 321.236,53.224 323.800 C 53.413 324.240,54.475 326.555,55.584 328.945 C 56.693 331.335,57.600 333.355,57.600 333.435 C 57.600 333.515,58.116 334.709,58.747 336.090 C 59.378 337.470,60.299 339.500,60.794 340.600 C 62.305 343.956,64.010 347.696,64.988 349.800 C 65.500 350.900,66.402 352.880,66.993 354.200 C 67.584 355.520,68.405 357.320,68.817 358.200 C 69.229 359.080,70.365 361.600,71.342 363.800 C 72.319 366.000,73.857 369.386,74.759 371.324 C 75.662 373.262,76.400 374.941,76.400 375.055 C 76.400 375.169,77.004 376.553,77.743 378.131 C 78.482 379.709,79.405 381.720,79.794 382.600 C 80.184 383.480,81.007 385.280,81.624 386.600 C 82.241 387.920,84.033 391.880,85.606 395.400 C 87.179 398.920,88.918 402.790,89.469 404.000 C 90.021 405.210,90.798 406.920,91.195 407.800 C 93.447 412.780,94.538 415.171,95.211 416.600 C 95.625 417.480,96.847 420.180,97.927 422.600 C 99.006 425.020,100.295 427.900,100.791 429.000 C 101.287 430.100,101.927 431.540,102.212 432.200 C 103.066 434.175,104.806 437.998,106.400 441.400 C 108.620 446.139,110.000 449.202,110.000 449.391 C 110.000 449.483,111.459 452.582,113.243 456.279 C 115.027 459.975,117.114 464.350,117.881 466.000 C 118.648 467.650,120.267 471.070,121.478 473.600 C 124.984 480.923,127.994 487.237,129.009 489.400 C 129.525 490.500,131.669 494.968,133.774 499.329 C 135.878 503.690,137.600 507.341,137.600 507.441 C 137.600 507.542,138.880 510.274,140.445 513.512 C 144.258 521.402,147.155 527.446,149.211 531.800 C 150.146 533.780,152.074 537.830,153.494 540.800 C 154.915 543.770,156.936 548.000,157.984 550.200 C 159.032 552.400,160.711 555.910,161.715 558.000 C 162.718 560.090,164.182 563.193,164.967 564.897 C 165.753 566.600,167.586 570.470,169.042 573.497 C 171.844 579.322,174.532 584.952,177.496 591.200 C 186.019 609.172,187.858 611.944,192.672 614.073 C 203.541 618.881,213.308 614.655,218.722 602.800 C 219.376 601.370,221.077 597.770,222.504 594.800 C 224.972 589.664,226.478 586.503,230.796 577.400 C 231.840 575.200,233.687 571.330,234.900 568.800 C 236.113 566.270,237.738 562.850,238.511 561.200 C 239.284 559.550,241.124 555.680,242.601 552.600 C 248.201 540.922,249.733 537.712,251.095 534.800 C 251.867 533.150,253.670 529.370,255.101 526.400 C 256.532 523.430,258.379 519.560,259.204 517.800 C 261.244 513.451,264.167 507.315,267.397 500.600 C 268.878 497.520,270.768 493.560,271.595 491.800 C 272.423 490.040,274.041 486.620,275.192 484.200 C 276.343 481.780,278.096 478.090,279.089 476.000 C 280.082 473.910,282.126 469.654,283.632 466.543 C 285.138 463.431,286.897 459.741,287.542 458.343 C 288.187 456.944,289.473 454.180,290.400 452.200 C 292.393 447.943,293.955 444.554,295.193 441.800 C 295.687 440.700,296.504 438.900,297.008 437.800 C 297.512 436.700,298.407 434.720,298.997 433.400 C 299.586 432.080,300.313 430.460,300.611 429.800 C 300.910 429.140,301.956 426.800,302.936 424.600 C 303.916 422.400,305.457 419.014,306.359 417.076 C 307.262 415.138,308.000 413.491,308.000 413.416 C 308.000 413.341,308.697 411.777,309.550 409.940 C 311.178 406.433,312.555 403.409,313.895 400.400 C 314.336 399.410,315.378 397.070,316.211 395.200 C 317.044 393.330,318.687 389.757,319.863 387.259 C 321.038 384.761,322.000 382.627,322.000 382.516 C 322.000 382.405,322.521 381.209,323.158 379.857 C 324.257 377.523,325.299 375.233,327.095 371.200 C 327.536 370.210,328.578 367.870,329.411 366.000 C 330.244 364.130,331.887 360.557,333.063 358.059 C 334.238 355.561,335.200 353.451,335.200 353.369 C 335.200 353.287,335.716 352.091,336.347 350.710 C 336.978 349.330,337.897 347.300,338.389 346.200 C 338.881 345.100,339.775 343.120,340.376 341.800 C 340.977 340.480,343.046 335.890,344.974 331.600 C 346.902 327.310,348.981 322.720,349.594 321.400 C 350.207 320.080,351.113 318.100,351.607 317.000 C 352.101 315.900,353.022 313.870,353.653 312.490 C 354.284 311.109,354.800 309.915,354.800 309.835 C 354.800 309.756,355.589 308.005,356.553 305.945 C 358.149 302.535,358.865 300.959,360.703 296.800 C 361.044 296.030,361.900 294.140,362.607 292.600 C 363.314 291.060,364.173 289.170,364.517 288.400 C 364.861 287.630,365.785 285.601,366.571 283.891 C 367.357 282.181,368.000 280.717,368.000 280.636 C 368.000 280.556,368.900 278.577,370.000 276.239 C 371.100 273.901,372.000 271.919,372.000 271.834 C 372.000 271.749,372.738 270.087,373.640 268.140 C 375.210 264.750,375.728 263.585,376.951 260.700 C 378.581 256.853,383.028 242.681,384.011 238.200 C 384.205 237.320,384.832 234.530,385.406 232.000 C 386.595 226.753,386.825 225.371,387.932 216.800 C 389.649 203.502,390.152 188.132,389.189 178.400 C 387.903 165.416,386.480 156.271,384.552 148.600 C 384.220 147.280,383.795 145.570,383.606 144.800 C 382.078 138.553,378.119 126.250,376.568 122.925 C 376.036 121.783,375.600 120.692,375.600 120.500 C 375.600 120.307,375.150 119.217,374.600 118.077 C 374.050 116.937,373.600 115.859,373.600 115.682 C 373.600 115.505,372.602 113.299,371.383 110.780 C 368.928 105.709,368.982 105.815,367.413 103.000 C 366.800 101.900,365.568 99.650,364.674 98.000 C 361.781 92.655,350.953 76.250,349.626 75.200 C 349.487 75.090,348.659 74.100,347.786 73.001 C 346.914 71.901,345.962 70.750,345.672 70.443 C 345.381 70.137,344.189 68.697,343.023 67.243 C 339.622 63.002,327.965 51.446,322.745 47.141 C 321.345 45.987,320.110 44.933,320.000 44.800 C 319.890 44.667,319.080 44.028,318.200 43.381 C 317.320 42.734,316.510 42.101,316.400 41.974 C 316.290 41.848,315.139 40.947,313.841 39.972 C 309.361 36.607,306.769 34.800,306.418 34.800 C 306.225 34.800,306.007 34.653,305.933 34.474 C 305.812 34.177,300.943 30.879,299.000 29.777 C 298.560 29.528,297.570 28.941,296.800 28.472 C 296.030 28.004,294.680 27.217,293.800 26.724 C 292.920 26.231,291.840 25.616,291.400 25.356 C 288.020 23.366,272.644 16.000,271.869 16.000 C 271.589 16.000,271.189 15.846,270.980 15.658 C 270.514 15.239,264.206 12.876,259.600 11.395 C 257.730 10.794,255.840 10.169,255.400 10.007 C 254.494 9.673,251.084 8.695,248.400 8.000 C 244.367 6.956,243.694 6.791,241.200 6.236 C 237.093 5.323,236.338 5.172,234.000 4.794 C 227.381 3.723,222.997 3.103,219.600 2.757 C 215.050 2.294,189.509 1.825,189.136 2.197 M215.382 26.018 C 222.074 26.652,231.303 27.981,235.800 28.958 C 236.240 29.054,237.680 29.353,239.000 29.623 C 240.320 29.894,242.660 30.460,244.200 30.883 C 245.740 31.305,247.901 31.895,249.002 32.194 C 253.202 33.336,263.009 36.776,266.363 38.285 C 267.113 38.622,268.993 39.420,270.542 40.059 C 291.702 48.784,317.500 68.532,332.911 87.800 C 333.263 88.240,334.147 89.330,334.875 90.222 C 335.604 91.113,337.010 92.977,338.000 94.362 C 338.990 95.748,340.171 97.358,340.624 97.941 C 344.561 103.001,352.977 118.007,356.585 126.400 C 357.200 127.830,358.031 129.744,358.432 130.653 C 359.818 133.799,363.090 143.266,364.221 147.400 C 369.410 166.380,371.094 179.520,370.653 197.600 C 370.360 209.610,369.675 217.430,368.429 223.000 C 368.232 223.880,367.859 225.860,367.599 227.400 C 366.262 235.334,361.476 251.263,358.249 258.521 C 357.936 259.224,357.262 260.790,356.751 262.000 C 355.259 265.534,349.486 276.794,347.877 279.308 C 347.065 280.577,346.400 281.714,346.400 281.833 C 346.400 282.112,340.377 291.111,338.256 294.000 C 329.707 305.647,316.020 319.810,306.409 326.953 C 305.194 327.856,304.110 328.698,304.000 328.824 C 303.353 329.563,292.978 336.560,288.200 339.480 C 284.618 341.669,276.226 346.080,273.199 347.363 C 272.210 347.783,270.500 348.533,269.400 349.031 C 265.598 350.751,263.393 351.663,261.600 352.257 C 260.610 352.586,259.260 353.085,258.600 353.367 C 257.044 354.032,255.390 354.599,253.400 355.150 C 252.520 355.393,250.360 356.029,248.600 356.563 C 246.840 357.097,244.410 357.751,243.200 358.017 C 241.990 358.282,240.550 358.644,240.000 358.820 C 238.700 359.237,233.797 360.199,230.000 360.782 C 228.350 361.035,226.100 361.414,225.000 361.623 C 214.887 363.548,191.599 363.621,179.200 361.767 C 171.598 360.631,169.771 360.332,168.200 359.969 C 167.320 359.766,164.980 359.246,163.000 358.813 C 161.020 358.380,157.240 357.380,154.600 356.590 C 151.960 355.801,149.260 355.002,148.600 354.816 C 137.728 351.745,120.535 343.416,107.400 334.857 C 96.479 327.740,81.043 314.026,72.413 303.772 C 70.597 301.615,65.012 294.458,64.000 292.993 C 63.450 292.197,62.623 291.062,62.163 290.472 C 61.245 289.296,55.921 280.962,55.474 280.000 C 55.320 279.670,54.738 278.680,54.179 277.800 C 52.858 275.719,45.200 260.233,45.200 259.642 C 45.200 259.393,45.029 258.877,44.819 258.495 C 44.137 257.250,43.285 255.075,41.805 250.800 C 41.005 248.490,40.193 246.150,40.000 245.600 C 32.304 223.641,29.863 189.177,34.390 166.400 C 34.587 165.410,35.048 162.980,35.415 161.000 C 37.228 151.227,43.614 131.119,46.736 125.351 C 46.960 124.938,48.252 122.351,49.607 119.601 C 54.040 110.609,63.839 94.720,66.382 92.400 C 66.502 92.290,68.401 89.952,70.601 87.205 C 79.907 75.581,91.354 65.216,107.596 53.706 C 112.264 50.397,125.331 43.174,131.414 40.540 C 134.710 39.113,139.990 36.921,141.400 36.394 C 141.840 36.230,142.920 35.815,143.800 35.471 C 146.448 34.438,154.298 32.000,154.977 32.000 C 155.326 32.000,155.923 31.837,156.305 31.637 C 159.164 30.146,177.052 26.890,187.000 26.051 C 192.876 25.556,210.281 25.535,215.382 26.018 M196.000 90.872 C 195.450 91.102,194.280 91.576,193.400 91.926 C 188.653 93.811,183.896 98.384,180.631 104.200 C 178.004 108.881,177.327 110.076,174.291 115.400 C 172.535 118.480,170.737 121.630,170.297 122.400 C 169.857 123.170,168.823 125.060,168.000 126.600 C 167.177 128.140,166.142 130.030,165.700 130.800 C 162.848 135.770,157.701 144.909,156.833 146.544 C 156.265 147.614,155.159 149.219,154.375 150.111 L 152.950 151.734 151.775 151.022 C 150.145 150.035,149.797 149.546,142.216 137.600 C 138.516 131.770,134.799 125.920,133.955 124.600 C 133.111 123.280,128.308 115.720,123.282 107.800 L 114.144 93.400 107.472 93.290 C 103.802 93.230,100.800 93.304,100.800 93.455 C 100.800 93.878,102.644 96.930,105.959 101.994 C 107.618 104.527,109.218 107.050,109.515 107.599 C 109.812 108.149,110.313 108.883,110.628 109.231 C 110.942 109.578,111.200 109.975,111.200 110.112 C 111.200 110.249,111.965 111.495,112.900 112.881 C 113.835 114.266,114.780 115.703,115.000 116.074 C 115.220 116.445,117.470 119.923,120.000 123.802 C 122.530 127.681,124.780 131.161,125.000 131.535 C 125.220 131.909,126.233 133.472,127.251 135.008 C 129.130 137.842,135.027 146.858,135.785 148.054 C 142.638 158.869,145.224 162.281,147.402 163.384 C 153.007 166.219,159.979 163.128,163.646 156.182 C 164.222 155.092,166.427 151.170,168.546 147.466 C 170.666 143.763,172.400 140.665,172.400 140.584 C 172.400 140.502,172.922 139.550,173.560 138.467 C 174.199 137.385,175.308 135.442,176.026 134.150 C 176.743 132.857,177.687 131.170,178.122 130.400 C 178.558 129.630,179.306 128.280,179.785 127.400 C 180.264 126.520,182.246 123.010,184.189 119.600 C 186.132 116.190,188.044 112.827,188.439 112.126 C 193.553 103.050,198.058 100.489,205.020 102.698 C 208.647 103.849,209.832 105.162,214.323 113.000 C 216.796 117.317,217.054 117.773,218.400 120.200 C 219.132 121.520,220.061 123.185,220.465 123.900 C 222.347 127.229,222.740 127.929,223.782 129.800 C 224.395 130.900,225.530 132.970,226.306 134.400 C 227.082 135.830,227.846 137.180,228.005 137.400 C 228.164 137.620,228.887 138.880,229.612 140.200 C 241.500 161.841,243.684 164.400,250.267 164.400 C 253.894 164.400,255.454 163.849,257.289 161.921 C 258.584 160.560,263.109 154.123,263.560 153.000 C 263.648 152.780,264.473 151.520,265.392 150.200 C 266.734 148.274,273.956 137.099,280.000 127.596 C 285.152 119.496,299.274 97.613,300.418 95.958 C 302.162 93.434,302.089 93.400,294.867 93.400 L 288.334 93.400 275.798 113.200 C 250.514 153.137,251.737 151.365,249.622 151.119 C 248.615 151.002,246.861 148.810,244.883 145.200 C 243.191 142.109,240.070 136.486,239.002 134.600 C 237.296 131.590,236.571 130.286,234.946 127.312 C 234.131 125.821,233.045 123.929,232.532 123.108 C 232.020 122.287,231.600 121.537,231.600 121.441 C 231.600 121.345,230.822 119.946,229.872 118.333 C 228.922 116.720,227.510 114.230,226.734 112.800 C 224.817 109.265,220.876 102.470,219.891 101.000 C 214.746 93.322,202.529 88.143,196.000 90.872 M101.043 147.091 C 100.909 147.224,100.800 163.773,100.800 183.866 L 100.800 220.399 103.583 224.699 C 105.114 227.065,106.509 229.190,106.683 229.422 C 106.858 229.654,107.180 230.141,107.400 230.504 C 107.620 230.867,110.320 235.060,113.400 239.822 C 116.480 244.583,119.360 249.049,119.800 249.746 C 120.983 251.618,125.988 259.274,126.635 260.200 C 126.942 260.640,127.843 261.945,128.636 263.100 C 136.372 274.367,148.397 278.308,161.000 273.708 C 168.406 271.004,174.362 263.725,183.828 245.810 C 184.063 245.364,184.738 244.239,185.328 243.308 C 185.918 242.377,186.400 241.514,186.400 241.389 C 186.400 241.264,187.030 240.177,187.800 238.973 C 188.570 237.769,189.200 236.730,189.200 236.664 C 189.200 236.598,191.045 233.310,193.300 229.358 C 195.555 225.407,197.760 221.487,198.200 220.648 C 200.072 217.079,202.058 216.234,203.573 218.362 C 204.028 219.001,204.400 219.626,204.400 219.750 C 204.400 219.875,205.210 221.347,206.200 223.022 C 207.190 224.696,208.000 226.115,208.000 226.176 C 208.000 226.236,208.925 227.886,210.055 229.843 C 211.185 231.799,212.420 233.940,212.799 234.600 C 213.177 235.260,214.890 238.230,216.606 241.200 C 218.321 244.170,219.921 246.960,220.162 247.400 C 220.403 247.840,220.690 248.290,220.800 248.400 C 220.910 248.510,221.196 248.960,221.436 249.400 C 223.554 253.287,226.603 258.534,228.123 260.908 C 228.935 262.177,229.600 263.314,229.600 263.435 C 229.600 263.556,230.545 264.783,231.700 266.160 C 238.669 274.473,249.999 277.543,261.042 274.109 C 264.918 272.904,264.585 274.510,264.713 256.390 C 264.847 237.482,263.995 239.479,271.846 239.670 C 278.492 239.831,277.986 239.067,277.994 248.949 C 278.001 258.296,277.762 258.172,282.191 251.137 C 285.181 246.387,285.200 246.340,285.200 243.607 C 285.200 240.449,285.733 239.603,287.729 239.594 C 288.428 239.591,289.197 239.456,289.439 239.294 C 289.931 238.964,298.567 225.494,300.410 222.182 L 301.600 220.043 301.600 183.645 C 301.600 160.988,301.456 147.158,301.219 147.011 C 300.822 146.766,298.775 149.710,292.381 159.722 C 290.302 162.979,287.931 166.669,287.113 167.922 C 286.296 169.175,285.501 170.470,285.346 170.800 C 285.192 171.130,284.511 172.210,283.833 173.200 C 283.155 174.190,282.420 175.305,282.200 175.677 C 277.366 183.856,265.471 201.542,263.073 204.116 C 255.269 212.493,240.782 210.012,233.916 199.122 C 231.227 194.856,224.439 183.358,222.932 180.515 C 221.863 178.499,220.986 176.988,220.776 176.800 C 220.565 176.611,219.413 174.614,217.429 171.000 C 216.057 168.500,215.437 167.449,214.949 166.800 C 214.701 166.470,214.064 165.390,213.533 164.400 C 212.536 162.539,209.056 156.653,208.000 155.043 C 205.744 151.602,205.132 150.805,204.161 150.041 C 201.939 148.293,200.289 148.464,198.300 150.650 C 197.171 151.891,191.200 160.951,191.200 161.424 C 191.200 161.529,190.718 162.377,190.129 163.308 C 189.540 164.239,187.983 166.890,186.668 169.200 C 184.038 173.823,183.823 174.197,180.788 179.400 C 179.634 181.380,178.235 183.810,177.680 184.800 C 166.082 205.487,162.560 208.839,152.480 208.783 C 144.450 208.739,141.335 206.739,135.065 197.600 C 133.178 194.850,131.301 192.150,130.893 191.600 C 130.486 191.050,128.379 187.810,126.211 184.400 C 124.043 180.990,121.787 177.480,121.199 176.600 C 119.270 173.716,117.836 171.523,117.415 170.812 C 117.187 170.428,116.478 169.324,115.840 168.357 C 115.202 167.391,113.868 165.340,112.876 163.800 C 103.842 149.781,101.566 146.568,101.043 147.091 " stroke="none" fill="#14649c" fill-rule="evenodd"></path>
		<path id="path1" d="M187.000 26.051 C 177.052 26.890,159.164 30.146,156.305 31.637 C 155.923 31.837,155.326 32.000,154.977 32.000 C 154.298 32.000,146.448 34.438,143.800 35.471 C 142.920 35.815,141.840 36.230,141.400 36.394 C 139.990 36.921,134.710 39.113,131.414 40.540 C 125.331 43.174,112.264 50.397,107.596 53.706 C 91.354 65.216,79.907 75.581,70.601 87.205 C 68.401 89.952,66.502 92.290,66.382 92.400 C 63.839 94.720,54.040 110.609,49.607 119.601 C 48.252 122.351,46.960 124.938,46.736 125.351 C 43.614 131.119,37.228 151.227,35.415 161.000 C 35.048 162.980,34.587 165.410,34.390 166.400 C 29.863 189.177,32.304 223.641,40.000 245.600 C 40.193 246.150,41.005 248.490,41.805 250.800 C 43.285 255.075,44.137 257.250,44.819 258.495 C 45.029 258.877,45.200 259.393,45.200 259.642 C 45.200 260.233,52.858 275.719,54.179 277.800 C 54.738 278.680,55.320 279.670,55.474 280.000 C 55.921 280.962,61.245 289.296,62.163 290.472 C 62.623 291.062,63.450 292.197,64.000 292.993 C 65.012 294.458,70.597 301.615,72.413 303.772 C 81.043 314.026,96.479 327.740,107.400 334.857 C 120.535 343.416,137.728 351.745,148.600 354.816 C 149.260 355.002,151.960 355.801,154.600 356.590 C 157.240 357.380,161.020 358.380,163.000 358.813 C 164.980 359.246,167.320 359.766,168.200 359.969 C 169.771 360.332,171.598 360.631,179.200 361.767 C 191.599 363.621,214.887 363.548,225.000 361.623 C 226.100 361.414,228.350 361.035,230.000 360.782 C 233.797 360.199,238.700 359.237,240.000 358.820 C 240.550 358.644,241.990 358.282,243.200 358.017 C 244.410 357.751,246.840 357.097,248.600 356.563 C 250.360 356.029,252.520 355.393,253.400 355.150 C 255.390 354.599,257.044 354.032,258.600 353.367 C 259.260 353.085,260.610 352.586,261.600 352.257 C 263.393 351.663,265.598 350.751,269.400 349.031 C 270.500 348.533,272.210 347.783,273.199 347.363 C 276.226 346.080,284.618 341.669,288.200 339.480 C 292.978 336.560,303.353 329.563,304.000 328.824 C 304.110 328.698,305.194 327.856,306.409 326.953 C 316.020 319.810,329.707 305.647,338.256 294.000 C 340.377 291.111,346.400 282.112,346.400 281.833 C 346.400 281.714,347.065 280.577,347.877 279.308 C 349.486 276.794,355.259 265.534,356.751 262.000 C 357.262 260.790,357.936 259.224,358.249 258.521 C 361.476 251.263,366.262 235.334,367.599 227.400 C 367.859 225.860,368.232 223.880,368.429 223.000 C 369.675 217.430,370.360 209.610,370.653 197.600 C 371.094 179.520,369.410 166.380,364.221 147.400 C 363.090 143.266,359.818 133.799,358.432 130.653 C 358.031 129.744,357.200 127.830,356.585 126.400 C 352.977 118.007,344.561 103.001,340.624 97.941 C 340.171 97.358,338.990 95.748,338.000 94.362 C 337.010 92.977,335.604 91.113,334.875 90.222 C 334.147 89.330,333.263 88.240,332.911 87.800 C 317.500 68.532,291.702 48.784,270.542 40.059 C 268.993 39.420,267.113 38.622,266.363 38.285 C 263.009 36.776,253.202 33.336,249.002 32.194 C 247.901 31.895,245.740 31.305,244.200 30.883 C 242.660 30.460,240.320 29.894,239.000 29.623 C 237.680 29.353,236.240 29.054,235.800 28.958 C 222.383 26.042,201.715 24.810,187.000 26.051 M206.186 90.980 C 210.780 92.176,217.051 96.761,219.891 101.000 C 220.876 102.470,224.817 109.265,226.734 112.800 C 227.510 114.230,228.922 116.720,229.872 118.333 C 230.822 119.946,231.600 121.345,231.600 121.441 C 231.600 121.537,232.020 122.287,232.532 123.108 C 233.045 123.929,234.131 125.821,234.946 127.312 C 236.571 130.286,237.296 131.590,239.002 134.600 C 240.070 136.486,243.191 142.109,244.883 145.200 C 246.861 148.810,248.615 151.002,249.622 151.119 C 251.737 151.365,250.514 153.137,275.798 113.200 L 288.334 93.400 294.867 93.400 C 302.089 93.400,302.162 93.434,300.418 95.958 C 299.274 97.613,285.152 119.496,280.000 127.596 C 273.956 137.099,266.734 148.274,265.392 150.200 C 264.473 151.520,263.648 152.780,263.560 153.000 C 263.109 154.123,258.584 160.560,257.289 161.921 C 255.454 163.849,253.894 164.400,250.267 164.400 C 243.684 164.400,241.500 161.841,229.612 140.200 C 228.887 138.880,228.164 137.620,228.005 137.400 C 227.846 137.180,227.082 135.830,226.306 134.400 C 225.530 132.970,224.395 130.900,223.782 129.800 C 222.740 127.929,222.347 127.229,220.465 123.900 C 220.061 123.185,219.132 121.520,218.400 120.200 C 217.668 118.880,216.761 117.260,216.384 116.600 C 209.585 104.703,208.971 103.952,205.020 102.698 C 198.058 100.489,193.553 103.050,188.439 112.126 C 188.044 112.827,186.132 116.190,184.189 119.600 C 182.246 123.010,180.264 126.520,179.785 127.400 C 179.306 128.280,178.558 129.630,178.122 130.400 C 177.687 131.170,176.743 132.857,176.026 134.150 C 175.308 135.442,174.199 137.385,173.560 138.467 C 172.922 139.550,172.400 140.502,172.400 140.584 C 172.400 140.665,170.666 143.763,168.546 147.466 C 166.427 151.170,164.222 155.092,163.646 156.182 C 159.979 163.128,153.007 166.219,147.402 163.384 C 145.224 162.281,142.638 158.869,135.785 148.054 C 135.027 146.858,129.130 137.842,127.251 135.008 C 126.233 133.472,125.220 131.909,125.000 131.535 C 124.780 131.161,122.530 127.681,120.000 123.802 C 117.470 119.923,115.220 116.445,115.000 116.074 C 114.780 115.703,113.835 114.266,112.900 112.881 C 111.965 111.495,111.200 110.249,111.200 110.112 C 111.200 109.975,110.942 109.578,110.628 109.231 C 110.313 108.883,109.812 108.149,109.515 107.599 C 109.218 107.050,107.618 104.527,105.959 101.994 C 102.644 96.930,100.800 93.878,100.800 93.455 C 100.800 93.304,103.802 93.230,107.472 93.290 L 114.144 93.400 123.282 107.800 C 128.308 115.720,133.111 123.280,133.955 124.600 C 134.799 125.920,138.516 131.770,142.216 137.600 C 149.797 149.546,150.145 150.035,151.775 151.022 L 152.950 151.734 154.375 150.111 C 155.159 149.219,156.265 147.614,156.833 146.544 C 157.701 144.909,162.848 135.770,165.700 130.800 C 166.142 130.030,167.177 128.140,168.000 126.600 C 168.823 125.060,169.857 123.170,170.297 122.400 C 170.737 121.630,172.535 118.480,174.291 115.400 C 177.327 110.076,178.004 108.881,180.631 104.200 C 183.896 98.384,188.653 93.811,193.400 91.926 C 194.280 91.576,195.450 91.102,196.000 90.872 C 197.485 90.251,203.639 90.316,206.186 90.980 M106.873 154.600 C 109.182 158.120,111.883 162.260,112.876 163.800 C 113.868 165.340,115.202 167.391,115.840 168.357 C 116.478 169.324,117.187 170.428,117.415 170.812 C 117.836 171.523,119.270 173.716,121.199 176.600 C 121.787 177.480,124.043 180.990,126.211 184.400 C 128.379 187.810,130.486 191.050,130.893 191.600 C 131.301 192.150,133.178 194.850,135.065 197.600 C 141.335 206.739,144.450 208.739,152.480 208.783 C 162.560 208.839,166.082 205.487,177.680 184.800 C 178.235 183.810,179.634 181.380,180.788 179.400 C 183.823 174.197,184.038 173.823,186.668 169.200 C 187.983 166.890,189.540 164.239,190.129 163.308 C 190.718 162.377,191.200 161.529,191.200 161.424 C 191.200 160.951,197.171 151.891,198.300 150.650 C 200.289 148.464,201.939 148.293,204.161 150.041 C 205.132 150.805,205.744 151.602,208.000 155.043 C 209.056 156.653,212.536 162.539,213.533 164.400 C 214.064 165.390,214.701 166.470,214.949 166.800 C 215.437 167.449,216.057 168.500,217.429 171.000 C 219.413 174.614,220.565 176.611,220.776 176.800 C 220.986 176.988,221.863 178.499,222.932 180.515 C 224.439 183.358,231.227 194.856,233.916 199.122 C 240.782 210.012,255.269 212.493,263.073 204.116 C 265.471 201.542,277.366 183.856,282.200 175.677 C 282.420 175.305,283.155 174.190,283.833 173.200 C 284.511 172.210,285.192 171.130,285.346 170.800 C 285.501 170.470,286.296 169.175,287.113 167.922 C 287.931 166.669,290.302 162.979,292.381 159.722 C 298.775 149.710,300.822 146.766,301.219 147.011 C 301.456 147.158,301.600 160.988,301.600 183.645 L 301.600 220.043 300.424 222.158 C 299.777 223.320,297.079 227.676,294.428 231.836 L 289.608 239.400 293.504 239.600 C 297.622 239.811,298.400 240.049,298.400 241.095 C 298.400 241.452,298.571 242.296,298.780 242.972 C 298.989 243.647,299.552 246.540,300.030 249.400 C 300.509 252.260,301.056 255.500,301.247 256.600 C 301.437 257.700,301.765 259.680,301.977 261.000 C 303.193 268.599,305.272 279.991,305.655 281.160 C 306.272 283.041,306.561 282.344,307.544 276.600 C 308.381 271.715,309.024 268.062,310.432 260.200 C 310.865 257.780,311.390 254.720,311.598 253.400 C 313.852 239.097,313.528 239.600,320.476 239.600 C 327.077 239.600,328.217 240.575,326.843 245.040 C 326.647 245.678,326.264 247.280,325.992 248.600 C 325.721 249.920,325.087 252.800,324.585 255.000 C 324.082 257.200,323.585 259.450,323.481 260.000 C 323.377 260.550,322.625 263.970,321.810 267.600 C 320.995 271.230,319.984 275.820,319.562 277.800 C 319.141 279.780,318.703 281.648,318.591 281.951 C 318.478 282.254,318.109 283.874,317.770 285.551 C 317.432 287.228,316.699 290.580,316.142 293.000 C 315.585 295.420,314.797 298.840,314.392 300.600 C 313.986 302.360,313.533 304.469,313.385 305.286 C 312.999 307.421,312.428 307.701,308.027 307.913 C 299.955 308.302,299.091 307.851,298.242 302.800 C 298.112 302.030,297.841 300.680,297.639 299.800 C 297.437 298.920,296.983 296.940,296.629 295.400 C 296.274 293.860,295.812 291.790,295.601 290.800 C 293.942 283.025,293.494 280.967,292.771 277.800 C 291.290 271.316,290.070 265.839,289.607 263.600 C 289.357 262.390,288.879 260.230,288.545 258.800 C 288.211 257.370,287.784 255.480,287.596 254.600 C 285.558 245.038,285.810 245.375,283.488 249.100 C 282.562 250.585,280.993 252.970,280.002 254.400 L 278.200 257.000 278.000 278.400 L 277.800 299.800 276.857 301.600 C 274.103 306.856,272.060 307.600,260.376 307.600 L 251.582 307.600 249.091 306.470 C 244.173 304.239,243.200 301.843,243.200 291.964 C 243.200 283.404,242.710 284.000,249.745 284.000 C 256.120 284.000,256.000 283.898,256.000 289.297 C 256.000 294.502,256.227 294.800,260.186 294.800 C 264.820 294.800,264.578 295.398,264.726 283.579 C 264.852 273.491,264.698 272.155,263.517 273.078 C 259.133 276.502,246.112 276.075,239.039 272.276 C 235.948 270.615,229.600 264.670,229.600 263.435 C 229.600 263.314,228.935 262.177,228.123 260.908 C 226.603 258.534,223.554 253.287,221.436 249.400 C 221.196 248.960,220.910 248.510,220.800 248.400 C 220.690 248.290,220.403 247.840,220.162 247.400 C 219.921 246.960,218.321 244.170,216.606 241.200 C 214.890 238.230,213.177 235.260,212.799 234.600 C 212.420 233.940,211.185 231.799,210.055 229.843 C 208.925 227.886,208.000 226.236,208.000 226.176 C 208.000 226.115,207.190 224.696,206.200 223.022 C 205.210 221.347,204.400 219.875,204.400 219.750 C 204.400 219.626,204.028 219.001,203.573 218.362 C 202.058 216.234,200.072 217.079,198.200 220.648 C 197.760 221.487,195.555 225.407,193.300 229.358 C 191.045 233.310,189.200 236.598,189.200 236.664 C 189.200 236.730,188.570 237.769,187.800 238.973 C 187.030 240.177,186.400 241.264,186.400 241.389 C 186.400 241.514,185.918 242.377,185.328 243.308 C 184.738 244.239,184.063 245.364,183.828 245.810 C 174.362 263.725,168.406 271.004,161.000 273.708 C 148.397 278.308,136.372 274.367,128.636 263.100 C 127.843 261.945,126.942 260.640,126.635 260.200 C 125.988 259.274,120.983 251.618,119.800 249.746 C 119.360 249.049,116.480 244.583,113.400 239.822 C 110.320 235.060,107.620 230.867,107.400 230.504 C 107.180 230.141,106.858 229.654,106.683 229.422 C 106.509 229.190,105.114 227.065,103.583 224.699 L 100.800 220.399 100.800 183.866 C 100.800 163.773,100.909 147.224,101.043 147.091 C 101.482 146.651,102.624 148.122,106.873 154.600 " stroke="none" fill="#ffffff" fill-rule="evenodd"></path>
		<path id="path2" d="M287.623 239.631 C 286.693 239.759,285.770 240.119,285.572 240.431 C 285.138 241.117,285.074 246.400,285.500 246.401 C 285.762 246.402,286.283 248.440,287.596 254.600 C 287.784 255.480,288.211 257.370,288.545 258.800 C 288.879 260.230,289.357 262.390,289.607 263.600 C 290.070 265.839,291.290 271.316,292.771 277.800 C 293.494 280.967,293.942 283.025,295.601 290.800 C 295.812 291.790,296.274 293.860,296.629 295.400 C 296.983 296.940,297.437 298.920,297.639 299.800 C 297.841 300.680,298.112 302.030,298.242 302.800 C 299.091 307.851,299.955 308.302,308.027 307.913 C 312.428 307.701,312.999 307.421,313.385 305.286 C 313.533 304.469,313.986 302.360,314.392 300.600 C 314.797 298.840,315.585 295.420,316.142 293.000 C 316.699 290.580,317.432 287.228,317.770 285.551 C 318.109 283.874,318.478 282.254,318.591 281.951 C 318.703 281.648,319.141 279.780,319.562 277.800 C 319.984 275.820,320.995 271.230,321.810 267.600 C 322.625 263.970,323.377 260.550,323.481 260.000 C 323.585 259.450,324.082 257.200,324.585 255.000 C 325.087 252.800,325.721 249.920,325.992 248.600 C 326.264 247.280,326.647 245.678,326.843 245.040 C 328.217 240.575,327.077 239.600,320.476 239.600 C 313.528 239.600,313.852 239.097,311.598 253.400 C 311.390 254.720,310.865 257.780,310.432 260.200 C 309.024 268.062,308.381 271.715,307.544 276.600 C 306.561 282.344,306.272 283.041,305.655 281.160 C 305.272 279.991,303.193 268.599,301.977 261.000 C 301.765 259.680,301.437 257.700,301.247 256.600 C 301.056 255.500,300.509 252.260,300.030 249.400 C 299.552 246.540,298.989 243.647,298.780 242.972 C 298.571 242.296,298.400 241.452,298.400 241.095 C 298.400 239.842,292.221 239.002,287.623 239.631 M265.504 240.076 C 264.857 240.563,264.801 242.461,264.704 267.132 C 264.584 297.773,265.069 294.800,260.186 294.800 C 256.227 294.800,256.000 294.502,256.000 289.297 C 256.000 283.898,256.120 284.000,249.745 284.000 C 242.710 284.000,243.200 283.404,243.200 291.964 C 243.200 301.843,244.173 304.239,249.091 306.470 L 251.582 307.600 260.376 307.600 C 272.060 307.600,274.103 306.856,276.857 301.600 L 277.800 299.800 278.000 278.600 C 278.215 255.861,278.004 240.669,277.468 240.132 C 276.871 239.536,266.288 239.486,265.504 240.076 " stroke="none" fill="#ea6b2b" fill-rule="evenodd"></path>
	</g>
</svg>