<svg id="svg" version="1.1" xmlns="http://www.w3.org/2000/svg" xmlns:xlink="http://www.w3.org/1999/xlink" width="45" height="43.425" viewBox="0, 0, 400,386.254295532646">
	<g id="svgg">
		<path id="path0" d="M173.527 13.711 C 170.951 14.136,169.369 14.637,166.763 15.855 C 166.338 16.053,165.556 16.393,165.024 16.609 C 159.940 18.680,148.707 29.410,147.143 33.690 C 147.013 34.046,146.428 35.090,145.843 36.009 C 144.701 37.805,142.558 41.592,141.617 43.478 C 141.299 44.116,140.701 45.159,140.290 45.797 C 139.878 46.435,139.220 47.565,138.828 48.309 C 138.436 49.053,137.387 50.938,136.497 52.498 C 135.607 54.058,134.879 55.436,134.879 55.560 C 134.879 55.683,134.644 56.059,134.357 56.395 C 134.070 56.730,133.421 57.787,132.914 58.744 C 131.790 60.869,128.044 67.607,127.543 68.406 C 126.967 69.325,122.721 77.060,122.558 77.488 C 122.477 77.700,122.196 78.135,121.933 78.454 C 121.671 78.773,120.629 80.599,119.618 82.512 C 118.608 84.425,117.645 86.164,117.480 86.377 C 117.314 86.589,116.634 87.807,115.968 89.082 C 115.302 90.357,114.592 91.662,114.390 91.981 C 113.781 92.947,111.924 96.248,110.153 99.517 C 109.232 101.217,108.158 103.023,107.766 103.530 C 107.374 104.037,107.053 104.606,107.053 104.794 C 107.053 104.982,106.579 105.872,106.000 106.771 C 105.421 107.670,104.718 108.832,104.438 109.352 C 101.114 115.519,98.038 115.942,94.454 110.725 C 94.016 110.087,93.019 108.654,92.239 107.540 C 91.459 106.426,90.821 105.441,90.821 105.350 C 90.821 105.192,88.479 101.567,85.358 96.896 C 84.537 95.667,83.865 94.573,83.865 94.465 C 83.865 94.357,83.535 93.797,83.131 93.221 C 82.177 91.859,78.704 86.490,78.454 85.990 C 78.204 85.490,74.731 80.121,73.777 78.760 C 73.374 78.184,73.043 77.563,73.043 77.380 C 73.043 77.197,72.348 76.115,71.498 74.976 C 70.647 73.836,69.952 72.743,69.952 72.546 C 69.952 72.349,69.430 71.530,68.792 70.725 C 68.155 69.919,67.633 69.125,67.633 68.958 C 67.633 68.564,64.049 63.228,63.671 63.060 C 63.512 62.989,63.382 62.741,63.382 62.508 C 63.382 62.276,62.797 61.203,62.082 60.125 C 61.367 59.047,60.127 57.121,59.326 55.845 C 58.526 54.570,57.479 52.918,57.001 52.174 C 56.522 51.430,55.307 49.517,54.301 47.923 C 53.294 46.329,51.795 44.019,50.969 42.790 C 50.144 41.561,49.469 40.472,49.469 40.370 C 49.469 40.269,48.860 39.319,48.116 38.261 C 47.372 37.202,46.763 36.173,46.763 35.974 C 46.763 35.774,46.535 35.381,46.255 35.100 C 45.975 34.819,45.246 33.720,44.634 32.657 C 44.022 31.594,43.136 30.203,42.665 29.565 C 41.831 28.435,38.183 22.613,37.333 21.057 C 37.099 20.629,36.505 19.716,36.012 19.028 L 35.116 17.778 24.805 17.784 C 19.133 17.787,14.257 17.939,13.968 18.122 C 13.120 18.659,14.459 21.273,18.586 27.134 C 18.992 27.710,19.324 28.277,19.324 28.394 C 19.324 28.511,19.932 29.473,20.676 30.531 C 21.420 31.590,22.029 32.546,22.029 32.657 C 22.029 32.768,22.638 33.724,23.382 34.783 C 24.126 35.841,24.734 36.790,24.734 36.892 C 24.734 36.994,25.411 38.083,26.239 39.312 C 28.824 43.152,31.691 47.586,31.691 47.746 C 31.691 47.830,32.363 48.904,33.184 50.133 C 35.936 54.251,37.101 56.076,37.101 56.267 C 37.101 56.459,38.517 58.530,39.227 59.378 C 39.440 59.631,40.135 60.720,40.773 61.796 C 41.411 62.873,42.063 63.757,42.222 63.761 C 42.382 63.765,42.512 63.936,42.512 64.142 C 42.512 64.468,45.059 68.700,45.892 69.758 C 46.438 70.452,49.250 74.757,49.849 75.818 C 51.209 78.222,52.774 80.672,53.791 81.988 C 54.389 82.763,54.879 83.562,54.879 83.764 C 54.879 83.966,55.227 84.446,55.652 84.831 C 56.077 85.216,56.425 85.672,56.425 85.845 C 56.425 86.246,59.614 90.972,60.000 91.143 C 60.159 91.214,60.290 91.475,60.290 91.723 C 60.291 91.971,60.986 93.176,61.836 94.400 C 62.686 95.625,63.382 96.713,63.382 96.820 C 63.382 96.926,64.024 97.924,64.809 99.038 C 65.594 100.152,66.748 101.845,67.374 102.802 C 67.999 103.758,69.183 105.547,70.004 106.775 C 70.826 108.004,71.498 109.093,71.498 109.195 C 71.498 109.297,72.136 110.291,72.916 111.405 C 75.181 114.641,75.399 114.964,80.880 123.285 C 86.058 131.144,87.621 133.048,89.855 134.220 C 99.391 139.224,110.125 135.058,116.536 123.864 C 117.591 122.023,118.638 120.313,118.862 120.065 C 119.087 119.817,119.392 119.353,119.540 119.034 C 119.688 118.715,120.590 117.063,121.545 115.362 C 122.499 113.662,123.501 111.836,123.770 111.304 C 124.040 110.773,124.736 109.602,125.319 108.703 C 125.901 107.804,126.377 106.968,126.377 106.846 C 126.377 106.724,127.311 105.025,128.452 103.070 C 130.834 98.991,131.904 97.071,136.054 89.432 C 136.700 88.243,137.499 86.857,137.829 86.353 C 138.396 85.487,139.208 84.003,142.360 78.068 C 143.094 76.686,144.146 74.896,144.697 74.089 C 145.249 73.283,145.704 72.413,145.709 72.157 C 145.714 71.900,146.058 71.256,146.473 70.725 C 146.889 70.193,147.233 69.633,147.238 69.480 C 147.243 69.328,148.096 67.762,149.134 66.002 C 150.172 64.242,151.541 61.845,152.177 60.676 C 155.230 55.062,155.898 53.898,156.175 53.712 C 156.339 53.601,156.658 53.080,156.883 52.553 C 157.108 52.025,157.505 51.246,157.764 50.821 C 158.023 50.396,159.177 48.483,160.329 46.570 C 163.789 40.823,164.237 40.190,166.314 38.112 C 169.171 35.252,170.626 34.393,174.684 33.169 C 176.752 32.545,184.598 32.947,186.473 33.773 C 189.780 35.228,190.739 35.796,192.099 37.101 C 193.658 38.598,196.209 41.858,196.776 43.079 C 196.977 43.511,197.524 44.487,197.991 45.248 C 201.020 50.179,201.651 51.254,204.381 56.144 C 204.947 57.159,205.798 58.637,206.271 59.429 C 206.744 60.222,207.292 61.226,207.488 61.663 C 207.685 62.099,208.665 63.838,209.666 65.527 C 210.667 67.217,211.650 68.947,211.850 69.372 C 212.050 69.797,212.632 70.841,213.144 71.691 C 213.656 72.541,214.334 73.758,214.651 74.396 C 214.968 75.034,215.834 76.599,216.576 77.874 C 217.317 79.150,218.474 81.237,219.146 82.512 C 219.818 83.787,220.499 85.005,220.659 85.217 C 220.820 85.430,221.473 86.560,222.110 87.729 C 224.313 91.770,228.308 98.909,228.814 99.710 C 229.016 100.029,229.335 100.638,229.524 101.063 C 229.712 101.488,230.686 103.218,231.687 104.907 C 232.688 106.597,233.666 108.336,233.860 108.772 C 234.054 109.208,234.583 110.174,235.037 110.918 C 235.490 111.662,236.383 113.227,237.020 114.396 C 237.657 115.565,238.364 116.758,238.591 117.046 C 239.042 117.619,239.621 118.599,240.567 120.386 C 242.829 124.664,245.780 128.671,248.696 131.424 C 253.005 135.493,254.873 136.143,261.745 135.967 C 269.723 135.762,271.797 134.328,278.091 124.668 C 279.991 121.752,282.068 118.584,282.705 117.628 C 283.343 116.672,284.039 115.598,284.251 115.240 C 284.464 114.882,286.159 112.279,288.019 109.456 C 289.879 106.633,291.401 104.261,291.401 104.185 C 291.401 104.109,292.618 102.207,294.106 99.957 C 295.594 97.708,296.812 95.794,296.812 95.704 C 296.812 95.614,297.730 94.175,298.852 92.505 C 299.974 90.835,302.275 87.295,303.965 84.638 C 305.655 81.981,307.176 79.633,307.343 79.420 C 307.511 79.208,308.967 76.947,310.578 74.396 C 312.190 71.845,314.425 68.367,315.545 66.667 C 320.311 59.431,321.546 57.519,321.546 57.375 C 321.546 57.291,322.221 56.217,323.047 54.988 C 323.872 53.759,325.377 51.449,326.390 49.855 C 327.403 48.261,329.419 45.130,330.870 42.899 C 334.196 37.782,336.996 33.413,340.356 28.093 C 341.808 25.795,343.297 23.447,343.667 22.876 C 344.852 21.039,346.045 18.574,345.845 18.373 C 345.738 18.266,341.199 18.061,335.757 17.918 C 324.443 17.619,324.257 17.654,322.540 20.407 C 321.918 21.406,320.861 23.092,320.192 24.155 C 319.523 25.217,318.215 27.304,317.284 28.792 C 316.354 30.280,314.497 33.196,313.159 35.271 C 311.820 37.346,310.725 39.131,310.725 39.236 C 310.725 39.342,310.147 40.253,309.441 41.260 C 308.735 42.267,307.648 43.933,307.026 44.962 C 306.403 45.990,305.633 47.242,305.314 47.743 C 304.995 48.244,303.952 49.895,302.995 51.412 C 302.039 52.929,299.508 56.909,297.371 60.258 C 292.809 67.406,291.666 69.236,291.442 69.752 C 291.351 69.961,290.150 71.874,288.774 74.003 C 285.993 78.304,285.055 79.788,282.512 83.914 C 281.556 85.465,280.034 87.842,279.130 89.195 C 278.227 90.548,277.488 91.729,277.488 91.820 C 277.488 91.911,276.045 94.202,274.281 96.910 C 272.517 99.619,270.303 103.053,269.362 104.541 C 268.420 106.029,267.559 107.333,267.447 107.440 C 267.335 107.546,266.729 108.415,266.099 109.372 C 262.909 114.215,260.174 115.569,258.092 113.333 C 257.063 112.229,254.648 108.836,254.171 107.826 C 254.021 107.507,253.475 106.551,252.959 105.700 C 252.443 104.850,251.832 103.736,251.601 103.225 C 251.370 102.713,250.709 101.583,250.131 100.712 C 249.554 99.842,248.593 98.174,247.995 97.005 C 247.397 95.836,246.756 94.618,246.570 94.300 C 245.218 91.982,242.009 86.270,241.794 85.797 C 241.649 85.478,241.111 84.522,240.599 83.671 C 240.086 82.821,239.402 81.604,239.080 80.966 C 238.757 80.329,237.877 78.763,237.124 77.488 C 236.371 76.213,235.487 74.647,235.159 74.010 C 234.832 73.372,234.170 72.155,233.688 71.304 C 233.207 70.454,232.282 68.802,231.632 67.633 C 230.982 66.464,230.079 64.899,229.625 64.155 C 229.171 63.411,228.683 62.541,228.542 62.222 C 228.401 61.903,227.640 60.512,226.853 59.130 C 226.065 57.749,224.986 55.836,224.455 54.879 C 223.924 53.923,223.119 52.531,222.667 51.787 C 222.215 51.043,221.687 50.078,221.493 49.642 C 221.299 49.206,220.321 47.466,219.320 45.777 C 218.319 44.088,217.336 42.357,217.136 41.932 C 216.936 41.507,216.348 40.464,215.830 39.614 C 215.312 38.763,214.695 37.589,214.460 37.005 C 214.224 36.420,213.894 35.942,213.727 35.942 C 213.560 35.942,213.324 35.638,213.202 35.266 C 212.651 33.587,209.629 29.367,206.570 26.007 C 204.535 23.772,199.418 19.324,198.881 19.324 C 198.774 19.324,197.926 18.810,196.996 18.183 C 190.933 14.091,181.786 12.348,173.527 13.711 M14.026 106.908 C 13.868 107.307,13.735 135.024,13.729 168.502 L 13.720 229.372 15.169 231.397 C 15.966 232.511,16.618 233.513,16.618 233.623 C 16.618 233.734,17.227 234.690,17.971 235.749 C 18.715 236.807,19.324 237.778,19.324 237.906 C 19.324 238.034,19.628 238.538,20.000 239.025 C 20.767 240.029,20.700 239.929,24.277 245.411 C 25.733 247.643,27.151 249.892,27.427 250.410 C 27.704 250.928,28.087 251.537,28.278 251.763 C 28.572 252.110,29.624 253.684,31.498 256.579 C 31.710 256.908,32.536 258.225,33.332 259.506 C 35.052 262.272,35.527 262.987,36.425 264.164 C 36.797 264.651,37.101 265.147,37.101 265.266 C 37.101 265.385,37.773 266.488,38.595 267.717 C 41.615 272.237,42.512 273.669,42.512 273.969 C 42.512 274.138,42.860 274.591,43.285 274.976 C 43.710 275.361,44.058 275.829,44.058 276.018 C 44.058 276.348,45.555 278.639,46.029 279.034 C 46.157 279.140,46.484 279.662,46.757 280.193 C 47.464 281.572,52.223 288.870,55.007 292.846 C 55.787 293.960,56.425 294.952,56.425 295.051 C 56.425 295.239,56.702 295.652,60.460 301.063 C 78.437 326.949,115.445 326.969,133.314 301.102 C 134.933 298.758,155.362 263.749,155.362 263.318 C 155.362 263.174,155.604 262.781,155.899 262.446 C 156.194 262.110,156.933 260.919,157.541 259.798 C 158.150 258.677,159.035 257.111,159.508 256.319 C 159.981 255.527,160.539 254.496,160.747 254.028 C 160.955 253.561,161.610 252.430,162.201 251.516 C 162.792 250.603,163.492 249.420,163.756 248.889 C 164.020 248.357,164.410 247.662,164.622 247.343 C 164.983 246.800,169.448 238.970,171.730 234.879 C 172.293 233.870,173.167 232.304,173.673 231.401 C 174.178 230.498,174.919 229.150,175.319 228.406 C 177.076 225.140,178.731 223.768,180.914 223.768 C 181.863 223.768,184.348 226.000,184.348 226.853 C 184.348 227.230,184.609 227.755,184.928 228.019 C 185.246 228.284,185.507 228.701,185.507 228.945 C 185.507 229.190,186.072 230.255,186.763 231.313 C 187.454 232.371,188.235 233.671,188.500 234.203 C 188.764 234.734,189.146 235.430,189.349 235.749 C 190.177 237.049,193.727 243.304,194.054 244.040 C 194.247 244.475,194.776 245.440,195.228 246.184 C 195.680 246.928,196.483 248.319,197.012 249.275 C 197.541 250.232,198.179 251.275,198.429 251.594 C 198.680 251.913,199.100 252.609,199.364 253.140 C 199.628 253.671,200.266 254.802,200.782 255.652 C 201.299 256.502,201.905 257.617,202.130 258.128 C 202.355 258.640,203.055 259.822,203.685 260.756 C 204.315 261.690,204.831 262.679,204.831 262.955 C 204.831 263.230,205.179 263.770,205.604 264.155 C 206.029 264.539,206.377 265.012,206.377 265.206 C 206.377 265.399,207.594 267.622,209.082 270.145 C 210.570 272.668,211.787 274.822,211.787 274.931 C 211.787 275.041,212.288 275.878,212.900 276.792 C 213.511 277.706,214.523 279.411,215.147 280.580 C 215.772 281.749,216.833 283.575,217.506 284.638 C 218.179 285.700,218.733 286.773,218.737 287.021 C 218.741 287.269,218.889 287.530,219.066 287.601 C 219.243 287.671,220.069 288.946,220.902 290.432 C 221.734 291.919,222.628 293.484,222.888 293.911 C 223.147 294.337,223.584 295.121,223.858 295.652 C 229.362 306.320,239.362 314.992,249.855 318.198 C 260.033 321.307,273.329 320.677,282.005 316.674 C 283.108 316.165,284.175 315.749,284.375 315.749 C 285.134 315.749,285.207 313.363,285.212 288.466 C 285.217 264.214,285.253 262.889,285.924 262.282 C 287.051 261.262,304.905 261.323,305.834 262.349 C 306.403 262.978,306.473 264.528,306.473 276.433 C 306.473 284.038,306.625 289.903,306.825 290.027 C 307.114 290.205,309.048 287.521,310.911 284.355 C 311.127 283.987,312.261 282.197,313.430 280.377 C 316.545 275.527,316.826 275.080,317.486 273.913 C 317.817 273.329,318.274 272.850,318.503 272.850 C 318.772 272.850,318.840 272.203,318.697 271.014 C 317.645 262.290,317.909 261.643,322.512 261.643 L 325.354 261.643 326.638 259.484 C 328.548 256.274,328.560 256.254,330.466 253.333 C 331.437 251.845,332.880 249.585,333.673 248.309 C 334.467 247.034,335.671 245.134,336.350 244.087 C 337.759 241.914,337.716 241.984,340.248 237.861 C 341.287 236.168,342.876 233.652,343.779 232.271 C 344.681 230.889,345.613 229.379,345.850 228.914 C 346.325 227.983,346.491 117.962,346.029 110.417 C 345.750 105.858,345.480 105.670,343.464 108.630 C 342.969 109.357,341.921 110.863,341.137 111.977 C 340.352 113.090,339.710 114.150,339.710 114.332 C 339.710 114.514,339.362 114.978,338.937 115.362 C 338.512 115.747,338.164 116.206,338.164 116.382 C 338.164 116.557,336.834 118.748,335.208 121.249 C 333.581 123.751,331.474 127.014,330.524 128.502 C 328.706 131.350,328.523 131.634,324.562 137.778 C 320.045 144.782,318.145 147.808,315.569 152.100 C 314.938 153.150,314.242 154.202,314.023 154.438 C 313.803 154.673,313.188 155.584,312.657 156.461 C 311.058 159.101,307.685 164.418,307.347 164.831 C 307.173 165.043,306.551 166.043,305.963 167.053 C 305.376 168.062,303.772 170.545,302.399 172.570 C 301.027 174.594,299.903 176.346,299.903 176.462 C 299.903 177.509,284.783 199.103,281.977 202.064 C 270.877 213.772,246.197 211.768,237.045 198.414 C 236.226 197.219,234.820 195.174,233.922 193.869 C 233.023 192.565,232.284 191.365,232.279 191.204 C 232.274 191.042,231.705 190.077,231.014 189.059 C 229.264 186.480,228.951 185.963,227.806 183.768 C 227.252 182.705,226.585 181.575,226.324 181.256 C 226.063 180.937,225.641 180.242,225.385 179.710 C 225.129 179.179,224.573 178.222,224.150 177.585 C 223.726 176.947,223.108 175.903,222.774 175.266 C 221.246 172.339,220.928 171.775,220.705 171.594 C 220.574 171.488,220.255 170.966,219.995 170.435 C 219.735 169.903,219.354 169.208,219.147 168.889 C 218.089 167.253,212.947 158.090,212.947 157.840 C 212.947 157.680,212.703 157.274,212.406 156.939 C 211.879 156.344,209.949 153.047,208.994 151.111 C 208.732 150.580,208.395 150.054,208.245 149.944 C 208.094 149.833,207.784 149.311,207.556 148.784 C 207.328 148.257,206.706 147.130,206.173 146.280 C 205.640 145.430,205.024 144.386,204.804 143.961 C 204.585 143.536,203.983 142.493,203.468 141.643 C 202.952 140.792,202.352 139.692,202.133 139.198 C 201.915 138.703,201.258 137.570,200.675 136.679 C 198.906 133.980,198.652 133.565,198.152 132.560 C 197.888 132.029,197.224 130.899,196.676 130.048 C 196.128 129.198,195.434 128.038,195.135 127.471 C 194.835 126.903,193.981 125.449,193.237 124.240 C 192.493 123.030,191.536 121.458,191.111 120.746 C 185.027 110.556,180.466 108.083,175.626 112.349 C 174.782 113.092,170.435 118.839,170.435 119.210 C 170.435 119.330,169.857 120.253,169.150 121.260 C 167.702 123.325,155.314 144.384,152.832 149.000 C 151.510 151.458,150.935 152.449,150.706 152.657 C 150.451 152.890,149.028 155.366,147.041 159.034 C 146.235 160.522,145.256 162.154,144.865 162.661 C 144.474 163.168,144.155 163.736,144.155 163.925 C 144.155 164.113,143.686 165.002,143.114 165.901 C 142.542 166.801,141.703 168.232,141.250 169.082 C 140.797 169.932,139.309 172.510,137.943 174.810 C 136.577 177.110,135.150 179.545,134.773 180.220 C 134.396 180.896,133.787 181.911,133.420 182.475 C 133.054 183.040,131.901 184.953,130.860 186.727 C 119.742 205.658,114.633 209.288,99.130 209.263 C 90.509 209.250,88.747 208.866,83.285 205.811 C 81.215 204.654,75.749 199.716,75.749 199.003 C 75.749 198.872,75.389 198.350,74.948 197.843 C 73.909 196.644,70.843 192.311,68.271 188.406 C 67.151 186.705,65.289 183.910,64.132 182.194 C 62.975 180.478,61.855 178.808,61.643 178.483 C 61.430 178.157,60.749 177.127,60.129 176.192 C 56.647 170.941,56.528 170.757,53.720 166.387 C 52.551 164.567,51.405 162.734,51.173 162.314 C 50.942 161.895,50.464 161.232,50.111 160.842 C 49.758 160.452,49.469 160.021,49.469 159.885 C 49.469 159.749,48.797 158.632,47.976 157.403 C 47.155 156.175,45.300 153.343,43.854 151.111 C 42.408 148.879,40.775 146.396,40.226 145.593 C 39.676 144.789,39.052 143.833,38.838 143.467 C 38.424 142.760,35.602 138.402,33.282 134.888 C 32.513 133.723,31.797 132.593,31.691 132.376 C 31.453 131.890,27.452 125.769,25.549 122.980 C 24.782 121.855,23.807 120.342,23.382 119.617 C 22.957 118.892,21.870 117.241,20.966 115.949 C 20.063 114.656,19.324 113.516,19.324 113.414 C 19.324 113.236,17.691 110.853,15.396 107.681 C 14.444 106.364,14.278 106.270,14.026 106.908 " stroke="none" fill="#18669c" fill-rule="evenodd"></path>
		<path id="path1" d="M322.624 261.562 C 317.420 261.759,316.944 263.859,319.633 274.783 C 320.489 278.260,321.201 281.394,322.313 286.570 C 322.769 288.696,323.463 291.826,323.855 293.527 C 324.754 297.432,325.533 300.987,326.566 305.894 C 327.013 308.019,327.620 310.802,327.915 312.077 C 328.210 313.353,328.815 316.048,329.260 318.068 C 329.704 320.087,330.406 323.217,330.820 325.024 C 331.233 326.831,331.846 329.614,332.183 331.208 C 332.519 332.802,333.071 335.150,333.409 336.425 C 333.748 337.700,334.157 339.527,334.318 340.483 C 334.592 342.108,335.702 347.195,336.553 350.725 C 336.758 351.575,337.202 353.575,337.539 355.169 C 338.691 360.613,338.897 361.547,339.286 363.092 C 339.501 363.942,340.071 366.430,340.555 368.621 C 341.851 374.497,340.992 374.106,352.605 374.106 C 365.060 374.106,363.915 375.248,366.944 359.807 C 367.410 357.432,367.706 356.118,368.753 351.787 C 368.997 350.778,369.429 348.821,369.713 347.440 C 369.997 346.058,370.590 343.362,371.030 341.449 C 371.471 339.536,372.064 336.841,372.349 335.459 C 372.633 334.077,373.254 331.295,373.727 329.275 C 374.201 327.256,374.805 324.473,375.070 323.092 C 375.335 321.710,375.814 319.536,376.134 318.261 C 376.454 316.986,377.010 314.551,377.368 312.850 C 377.727 311.150,378.363 308.280,378.781 306.473 C 379.199 304.667,379.785 302.058,380.085 300.676 C 380.655 298.040,381.913 292.429,382.814 288.502 C 383.106 287.227,383.710 284.444,384.155 282.319 C 384.600 280.193,385.198 277.498,385.484 276.329 C 388.014 265.985,388.117 264.913,386.763 262.925 L 385.894 261.648 376.812 261.654 C 368.800 261.659,367.629 261.738,366.874 262.327 C 365.795 263.170,364.831 267.619,361.956 285.024 C 361.605 287.150,361.156 289.498,360.958 290.242 C 360.760 290.986,360.418 292.899,360.198 294.493 C 359.978 296.087,359.631 298.174,359.425 299.130 C 359.220 300.087,358.692 302.957,358.253 305.507 C 357.813 308.058,357.203 311.362,356.897 312.850 C 356.592 314.338,356.161 316.686,355.941 318.068 C 355.721 319.449,355.188 322.493,354.756 324.831 C 354.325 327.169,353.822 329.952,353.640 331.014 C 353.345 332.728,352.553 335.237,352.488 334.660 C 352.335 333.290,350.579 323.707,349.872 320.386 C 349.533 318.792,349.132 316.444,348.981 315.169 C 348.830 313.894,348.435 311.459,348.104 309.758 C 347.773 308.058,347.418 306.145,347.316 305.507 C 347.214 304.870,346.755 302.261,346.296 299.710 C 345.837 297.159,345.206 293.527,344.894 291.637 C 344.582 289.748,344.254 288.083,344.164 287.937 C 344.074 287.792,343.827 286.381,343.617 284.802 C 343.406 283.224,342.958 280.541,342.621 278.841 C 341.497 273.171,340.927 269.969,340.711 268.114 C 340.375 265.225,339.366 262.566,338.426 262.089 C 337.580 261.660,328.257 261.349,322.624 261.562 M285.862 262.344 C 285.282 262.985,285.218 266.825,285.125 306.567 C 285.025 349.898,285.021 350.093,284.224 351.180 C 282.773 353.157,281.214 353.672,277.070 353.544 C 270.652 353.346,269.762 352.011,269.753 342.564 C 269.746 336.282,269.730 336.217,267.967 335.505 C 266.296 334.830,251.013 335.046,249.758 335.762 L 248.889 336.259 248.889 347.716 C 248.889 365.161,251.299 370.206,261.090 373.255 C 265.386 374.593,290.684 374.562,294.493 373.214 C 300.586 371.058,303.842 367.774,305.643 361.966 C 306.799 358.242,306.985 263.621,305.839 262.355 C 304.858 261.271,286.842 261.261,285.862 262.344 " stroke="none" fill="#ec6c2d" fill-rule="evenodd"></path>
	</g>
</svg>