<svg id="svg" xmlns="http://www.w3.org/2000/svg" xmlns:xlink="http://www.w3.org/1999/xlink" width="37.5" height="32.655" viewBox="0, 0, 400,348.3614697120159">
	<g id="svgg">
		<path id="path0" d="M193.908 8.390 C 183.363 10.143,173.148 17.334,165.763 28.203 C 164.520 30.031,148.442 58.476,128.603 93.942 C 115.454 117.451,115.412 117.504,111.540 115.855 C 109.511 114.990,110.263 116.123,78.637 66.336 C 62.192 40.447,47.853 17.880,46.773 16.187 L 44.809 13.108 32.954 13.108 C 26.434 13.108,21.006 13.259,20.892 13.443 C 20.604 13.910,97.150 131.890,99.386 134.426 C 104.374 140.084,113.838 141.452,121.206 137.580 C 123.856 136.188,126.786 133.466,130.348 129.091 C 131.146 128.111,142.473 108.183,155.521 84.806 C 179.410 42.006,181.942 37.740,185.588 34.150 C 192.475 27.372,205.653 27.116,212.888 33.621 C 216.058 36.471,218.523 40.632,243.341 85.014 C 267.930 128.989,268.981 130.710,273.883 135.041 C 278.135 138.799,280.462 139.624,286.792 139.618 C 295.051 139.610,297.883 137.850,303.727 129.096 C 310.053 119.620,378.210 13.916,378.183 13.624 C 378.166 13.450,372.756 13.307,366.160 13.307 L 354.168 13.307 343.080 30.785 C 336.982 40.397,322.776 62.830,311.512 80.636 C 290.358 114.070,289.530 115.281,287.316 116.012 C 283.617 117.233,283.667 117.298,270.602 93.942 C 250.742 58.437,234.685 30.030,233.442 28.203 C 223.565 13.676,208.257 6.004,193.908 8.390 M348.336 151.252 C 313.142 206.576,310.023 210.959,303.277 214.568 C 293.079 220.023,277.424 219.316,267.964 212.973 C 261.470 208.618,260.572 207.242,233.214 159.682 C 207.089 114.265,205.533 112.016,200.236 112.016 C 194.623 112.016,193.605 113.477,167.000 159.713 C 139.158 208.100,137.194 210.925,128.500 215.106 C 120.173 219.111,106.951 219.208,98.652 215.324 C 90.341 211.436,89.584 210.412,51.634 151.816 C 35.573 127.019,22.256 106.757,22.041 106.791 C 21.785 106.831,21.614 129.732,21.548 172.657 L 21.448 238.461 45.756 276.033 C 74.300 320.150,74.313 320.168,80.636 325.603 C 89.468 333.195,97.929 336.233,110.228 336.230 C 127.798 336.225,140.299 329.701,150.221 315.361 C 152.620 311.895,193.017 241.917,195.783 236.436 C 198.067 231.912,202.576 231.792,204.420 236.207 C 205.431 238.627,247.918 312.339,250.176 315.591 C 259.868 329.549,272.765 336.199,290.169 336.212 C 303.681 336.223,313.135 332.317,322.431 322.883 C 327.759 317.476,327.784 317.438,353.855 276.150 L 377.756 238.298 377.756 172.400 C 377.756 136.020,377.603 106.407,377.414 106.290 C 377.226 106.174,364.141 126.407,348.336 151.252 " stroke="none" fill="#ed6a2d" fill-rule="evenodd"></path>
	</g>
</svg>